%TF.GenerationSoftware,KiCad,Pcbnew,5.1.10-88a1d61d58~90~ubuntu20.04.1*%
%TF.CreationDate,2022-04-26T09:50:21-05:00*%
%TF.ProjectId,Autoclave_2.0,4175746f-636c-4617-9665-5f322e302e6b,rev?*%
%TF.SameCoordinates,Original*%
%TF.FileFunction,Legend,Top*%
%TF.FilePolarity,Positive*%
%FSLAX46Y46*%
G04 Gerber Fmt 4.6, Leading zero omitted, Abs format (unit mm)*
G04 Created by KiCad (PCBNEW 5.1.10-88a1d61d58~90~ubuntu20.04.1) date 2022-04-26 09:50:21*
%MOMM*%
%LPD*%
G01*
G04 APERTURE LIST*
%ADD10C,0.150000*%
%ADD11C,0.120000*%
%ADD12C,0.100000*%
G04 APERTURE END LIST*
D10*
X223902685Y-85161380D02*
X223902685Y-84161380D01*
X224474114Y-85161380D01*
X224474114Y-84161380D01*
X225283638Y-84637571D02*
X225426495Y-84685190D01*
X225474114Y-84732809D01*
X225521733Y-84828047D01*
X225521733Y-84970904D01*
X225474114Y-85066142D01*
X225426495Y-85113761D01*
X225331257Y-85161380D01*
X224950304Y-85161380D01*
X224950304Y-84161380D01*
X225283638Y-84161380D01*
X225378876Y-84209000D01*
X225426495Y-84256619D01*
X225474114Y-84351857D01*
X225474114Y-84447095D01*
X225426495Y-84542333D01*
X225378876Y-84589952D01*
X225283638Y-84637571D01*
X224950304Y-84637571D01*
X224482114Y-75001380D02*
X224482114Y-74001380D01*
X225053542Y-75001380D01*
X225053542Y-74001380D01*
X225482114Y-74715666D02*
X225958304Y-74715666D01*
X225386876Y-75001380D02*
X225720209Y-74001380D01*
X226053542Y-75001380D01*
X224688495Y-79129000D02*
X224593257Y-79081380D01*
X224450400Y-79081380D01*
X224307542Y-79129000D01*
X224212304Y-79224238D01*
X224164685Y-79319476D01*
X224117066Y-79509952D01*
X224117066Y-79652809D01*
X224164685Y-79843285D01*
X224212304Y-79938523D01*
X224307542Y-80033761D01*
X224450400Y-80081380D01*
X224545638Y-80081380D01*
X224688495Y-80033761D01*
X224736114Y-79986142D01*
X224736114Y-79652809D01*
X224545638Y-79652809D01*
X225164685Y-80081380D02*
X225164685Y-79081380D01*
X225736114Y-80081380D01*
X225736114Y-79081380D01*
X226212304Y-80081380D02*
X226212304Y-79081380D01*
X226450400Y-79081380D01*
X226593257Y-79129000D01*
X226688495Y-79224238D01*
X226736114Y-79319476D01*
X226783733Y-79509952D01*
X226783733Y-79652809D01*
X226736114Y-79843285D01*
X226688495Y-79938523D01*
X226593257Y-80033761D01*
X226450400Y-80081380D01*
X226212304Y-80081380D01*
X81807085Y-40660580D02*
X81807085Y-39660580D01*
X82378514Y-40660580D01*
X82378514Y-39660580D01*
X82402323Y-35072580D02*
X81926133Y-35072580D01*
X81926133Y-34072580D01*
X224577352Y-17597380D02*
X224005923Y-17597380D01*
X224291638Y-17597380D02*
X224291638Y-16597380D01*
X224196400Y-16740238D01*
X224101161Y-16835476D01*
X224005923Y-16883095D01*
X224958304Y-16692619D02*
X225005923Y-16645000D01*
X225101161Y-16597380D01*
X225339257Y-16597380D01*
X225434495Y-16645000D01*
X225482114Y-16692619D01*
X225529733Y-16787857D01*
X225529733Y-16883095D01*
X225482114Y-17025952D01*
X224910685Y-17597380D01*
X225529733Y-17597380D01*
X225815447Y-16597380D02*
X226148780Y-17597380D01*
X226482114Y-16597380D01*
X224577352Y-34361380D02*
X224005923Y-34361380D01*
X224291638Y-34361380D02*
X224291638Y-33361380D01*
X224196400Y-33504238D01*
X224101161Y-33599476D01*
X224005923Y-33647095D01*
X224958304Y-33456619D02*
X225005923Y-33409000D01*
X225101161Y-33361380D01*
X225339257Y-33361380D01*
X225434495Y-33409000D01*
X225482114Y-33456619D01*
X225529733Y-33551857D01*
X225529733Y-33647095D01*
X225482114Y-33789952D01*
X224910685Y-34361380D01*
X225529733Y-34361380D01*
X225815447Y-33361380D02*
X226148780Y-34361380D01*
X226482114Y-33361380D01*
X224358295Y-9761600D02*
X224263057Y-9713980D01*
X224120200Y-9713980D01*
X223977342Y-9761600D01*
X223882104Y-9856838D01*
X223834485Y-9952076D01*
X223786866Y-10142552D01*
X223786866Y-10285409D01*
X223834485Y-10475885D01*
X223882104Y-10571123D01*
X223977342Y-10666361D01*
X224120200Y-10713980D01*
X224215438Y-10713980D01*
X224358295Y-10666361D01*
X224405914Y-10618742D01*
X224405914Y-10285409D01*
X224215438Y-10285409D01*
X224834485Y-10713980D02*
X224834485Y-9713980D01*
X225405914Y-10713980D01*
X225405914Y-9713980D01*
X225882104Y-10713980D02*
X225882104Y-9713980D01*
X226120200Y-9713980D01*
X226263057Y-9761600D01*
X226358295Y-9856838D01*
X226405914Y-9952076D01*
X226453533Y-10142552D01*
X226453533Y-10285409D01*
X226405914Y-10475885D01*
X226358295Y-10571123D01*
X226263057Y-10666361D01*
X226120200Y-10713980D01*
X225882104Y-10713980D01*
X224688495Y-26805000D02*
X224593257Y-26757380D01*
X224450400Y-26757380D01*
X224307542Y-26805000D01*
X224212304Y-26900238D01*
X224164685Y-26995476D01*
X224117066Y-27185952D01*
X224117066Y-27328809D01*
X224164685Y-27519285D01*
X224212304Y-27614523D01*
X224307542Y-27709761D01*
X224450400Y-27757380D01*
X224545638Y-27757380D01*
X224688495Y-27709761D01*
X224736114Y-27662142D01*
X224736114Y-27328809D01*
X224545638Y-27328809D01*
X225164685Y-27757380D02*
X225164685Y-26757380D01*
X225736114Y-27757380D01*
X225736114Y-26757380D01*
X226212304Y-27757380D02*
X226212304Y-26757380D01*
X226450400Y-26757380D01*
X226593257Y-26805000D01*
X226688495Y-26900238D01*
X226736114Y-26995476D01*
X226783733Y-27185952D01*
X226783733Y-27328809D01*
X226736114Y-27519285D01*
X226688495Y-27614523D01*
X226593257Y-27709761D01*
X226450400Y-27757380D01*
X226212304Y-27757380D01*
X224688495Y-43569000D02*
X224593257Y-43521380D01*
X224450400Y-43521380D01*
X224307542Y-43569000D01*
X224212304Y-43664238D01*
X224164685Y-43759476D01*
X224117066Y-43949952D01*
X224117066Y-44092809D01*
X224164685Y-44283285D01*
X224212304Y-44378523D01*
X224307542Y-44473761D01*
X224450400Y-44521380D01*
X224545638Y-44521380D01*
X224688495Y-44473761D01*
X224736114Y-44426142D01*
X224736114Y-44092809D01*
X224545638Y-44092809D01*
X225164685Y-44521380D02*
X225164685Y-43521380D01*
X225736114Y-44521380D01*
X225736114Y-43521380D01*
X226212304Y-44521380D02*
X226212304Y-43521380D01*
X226450400Y-43521380D01*
X226593257Y-43569000D01*
X226688495Y-43664238D01*
X226736114Y-43759476D01*
X226783733Y-43949952D01*
X226783733Y-44092809D01*
X226736114Y-44283285D01*
X226688495Y-44378523D01*
X226593257Y-44473761D01*
X226450400Y-44521380D01*
X226212304Y-44521380D01*
X224942495Y-55507000D02*
X224847257Y-55459380D01*
X224704400Y-55459380D01*
X224561542Y-55507000D01*
X224466304Y-55602238D01*
X224418685Y-55697476D01*
X224371066Y-55887952D01*
X224371066Y-56030809D01*
X224418685Y-56221285D01*
X224466304Y-56316523D01*
X224561542Y-56411761D01*
X224704400Y-56459380D01*
X224799638Y-56459380D01*
X224942495Y-56411761D01*
X224990114Y-56364142D01*
X224990114Y-56030809D01*
X224799638Y-56030809D01*
X225418685Y-56459380D02*
X225418685Y-55459380D01*
X225990114Y-56459380D01*
X225990114Y-55459380D01*
X226466304Y-56459380D02*
X226466304Y-55459380D01*
X226704400Y-55459380D01*
X226847257Y-55507000D01*
X226942495Y-55602238D01*
X226990114Y-55697476D01*
X227037733Y-55887952D01*
X227037733Y-56030809D01*
X226990114Y-56221285D01*
X226942495Y-56316523D01*
X226847257Y-56411761D01*
X226704400Y-56459380D01*
X226466304Y-56459380D01*
X224942495Y-66937000D02*
X224847257Y-66889380D01*
X224704400Y-66889380D01*
X224561542Y-66937000D01*
X224466304Y-67032238D01*
X224418685Y-67127476D01*
X224371066Y-67317952D01*
X224371066Y-67460809D01*
X224418685Y-67651285D01*
X224466304Y-67746523D01*
X224561542Y-67841761D01*
X224704400Y-67889380D01*
X224799638Y-67889380D01*
X224942495Y-67841761D01*
X224990114Y-67794142D01*
X224990114Y-67460809D01*
X224799638Y-67460809D01*
X225418685Y-67889380D02*
X225418685Y-66889380D01*
X225990114Y-67889380D01*
X225990114Y-66889380D01*
X226466304Y-67889380D02*
X226466304Y-66889380D01*
X226704400Y-66889380D01*
X226847257Y-66937000D01*
X226942495Y-67032238D01*
X226990114Y-67127476D01*
X227037733Y-67317952D01*
X227037733Y-67460809D01*
X226990114Y-67651285D01*
X226942495Y-67746523D01*
X226847257Y-67841761D01*
X226704400Y-67889380D01*
X226466304Y-67889380D01*
X205439923Y-163723580D02*
X204963733Y-163723580D01*
X204963733Y-162723580D01*
X181817923Y-163469580D02*
X181341733Y-163469580D01*
X181341733Y-162469580D01*
X158957923Y-163469580D02*
X158481733Y-163469580D01*
X158481733Y-162469580D01*
X136605923Y-163469580D02*
X136129733Y-163469580D01*
X136129733Y-162469580D01*
X112983923Y-164739580D02*
X112507733Y-164739580D01*
X112507733Y-163739580D01*
X90123923Y-164739580D02*
X89647733Y-164739580D01*
X89647733Y-163739580D01*
X68279923Y-164993580D02*
X67803733Y-164993580D01*
X67803733Y-163993580D01*
X45927923Y-164993580D02*
X45451733Y-164993580D01*
X45451733Y-163993580D01*
X50412685Y-164993580D02*
X50412685Y-163993580D01*
X50984114Y-164993580D01*
X50984114Y-163993580D01*
X72510685Y-164993580D02*
X72510685Y-163993580D01*
X73082114Y-164993580D01*
X73082114Y-163993580D01*
X94608685Y-164739580D02*
X94608685Y-163739580D01*
X95180114Y-164739580D01*
X95180114Y-163739580D01*
X117722685Y-164485580D02*
X117722685Y-163485580D01*
X118294114Y-164485580D01*
X118294114Y-163485580D01*
X141090685Y-163469580D02*
X141090685Y-162469580D01*
X141662114Y-163469580D01*
X141662114Y-162469580D01*
X163442685Y-163723580D02*
X163442685Y-162723580D01*
X164014114Y-163723580D01*
X164014114Y-162723580D01*
X186302685Y-163723580D02*
X186302685Y-162723580D01*
X186874114Y-163723580D01*
X186874114Y-162723580D01*
X210178685Y-163977580D02*
X210178685Y-162977580D01*
X210750114Y-163977580D01*
X210750114Y-162977580D01*
X250651923Y-163977580D02*
X250175733Y-163977580D01*
X250175733Y-162977580D01*
X255136685Y-163977580D02*
X255136685Y-162977580D01*
X255708114Y-163977580D01*
X255708114Y-162977580D01*
X221299161Y-163977580D02*
X220822971Y-163977580D01*
X220822971Y-162977580D01*
X221632495Y-163310914D02*
X221632495Y-163977580D01*
X221632495Y-163406152D02*
X221680114Y-163358533D01*
X221775352Y-163310914D01*
X221918209Y-163310914D01*
X222013447Y-163358533D01*
X222061066Y-163453771D01*
X222061066Y-163977580D01*
X222965828Y-163977580D02*
X222965828Y-163453771D01*
X222918209Y-163358533D01*
X222822971Y-163310914D01*
X222632495Y-163310914D01*
X222537257Y-163358533D01*
X222965828Y-163929961D02*
X222870590Y-163977580D01*
X222632495Y-163977580D01*
X222537257Y-163929961D01*
X222489638Y-163834723D01*
X222489638Y-163739485D01*
X222537257Y-163644247D01*
X222632495Y-163596628D01*
X222870590Y-163596628D01*
X222965828Y-163549009D01*
X236308971Y-163977580D02*
X235832780Y-163977580D01*
X235832780Y-162977580D01*
X236642304Y-163310914D02*
X236642304Y-163977580D01*
X236642304Y-163406152D02*
X236689923Y-163358533D01*
X236785161Y-163310914D01*
X236928019Y-163310914D01*
X237023257Y-163358533D01*
X237070876Y-163453771D01*
X237070876Y-163977580D01*
X237975638Y-163929961D02*
X237880400Y-163977580D01*
X237689923Y-163977580D01*
X237594685Y-163929961D01*
X237547066Y-163882342D01*
X237499447Y-163787104D01*
X237499447Y-163501390D01*
X237547066Y-163406152D01*
X237594685Y-163358533D01*
X237689923Y-163310914D01*
X237880400Y-163310914D01*
X237975638Y-163358533D01*
X231514685Y-163977580D02*
X231514685Y-162977580D01*
X232086114Y-163977580D01*
X232086114Y-162977580D01*
X226942685Y-163977580D02*
X226942685Y-162977580D01*
X227514114Y-163977580D01*
X227514114Y-162977580D01*
%TO.C,XA1*%
X106349800Y28371800D02*
X106349800Y-69164200D01*
X159689800Y28371800D02*
X159689800Y-70688200D01*
X106349800Y-69164200D02*
X107873800Y-70688200D01*
X159689800Y-70688200D02*
X158419800Y-70688200D01*
X158419800Y-70688200D02*
X155879800Y-73228200D01*
X155879800Y-73228200D02*
X121589800Y-73228200D01*
X121589800Y-73228200D02*
X119049800Y-70688200D01*
X119049800Y-70688200D02*
X107873800Y-70688200D01*
X106349800Y28371800D02*
X159689800Y28371800D01*
D11*
%TO.C,J4*%
X179187800Y-5443400D02*
X180237800Y-5443400D01*
X180237800Y-4393400D02*
X180237800Y-5443400D01*
X170837800Y656600D02*
X170837800Y9456600D01*
X170837800Y9456600D02*
X180037800Y9456600D01*
X173537800Y-5243400D02*
X170837800Y-5243400D01*
X170837800Y-5243400D02*
X170837800Y-3343400D01*
X180037800Y9456600D02*
X180037800Y-5243400D01*
X180037800Y-5243400D02*
X177437800Y-5243400D01*
%TO.C,Blanca1*%
X219590400Y-70237000D02*
X219590400Y-68237000D01*
X217350400Y-70237000D02*
X219590400Y-70237000D01*
X216266400Y-63617000D02*
X216359400Y-63711000D01*
X214015400Y-61367000D02*
X214074400Y-61426000D01*
X216506400Y-63447000D02*
X216564400Y-63506000D01*
X214221400Y-61162000D02*
X214314400Y-61256000D01*
X211230400Y-59877000D02*
X219350400Y-59877000D01*
X211230400Y-69997000D02*
X219350400Y-69997000D01*
X219350400Y-69997000D02*
X219350400Y-59877000D01*
X211230400Y-69997000D02*
X211230400Y-59877000D01*
X213290400Y-69997000D02*
X213290400Y-59877000D01*
X217290400Y-69997000D02*
X217290400Y-59877000D01*
X216970400Y-62437000D02*
G75*
G03*
X216970400Y-62437000I-1680000J0D01*
G01*
X216773752Y-66648288D02*
G75*
G02*
X216970400Y-67437000I-1483352J-788712D01*
G01*
X214501312Y-65953047D02*
G75*
G02*
X216079400Y-65953000I789088J-1483953D01*
G01*
X213806447Y-68226088D02*
G75*
G02*
X213806400Y-66648000I1483953J789088D01*
G01*
X216079488Y-68920953D02*
G75*
G02*
X214501400Y-68921000I-789088J1483953D01*
G01*
X216970850Y-67407617D02*
G75*
G02*
X216774400Y-68226000I-1680450J-29383D01*
G01*
%TO.C,T_EX1*%
X216970400Y-4953000D02*
G75*
G03*
X216970400Y-4953000I-1680000J0D01*
G01*
X216970400Y127000D02*
G75*
G03*
X216970400Y127000I-1680000J0D01*
G01*
X217290400Y-12633000D02*
X217290400Y2727000D01*
X213290400Y-12633000D02*
X213290400Y2727000D01*
X211230400Y-12633000D02*
X211230400Y2727000D01*
X219350400Y-12633000D02*
X219350400Y2727000D01*
X211230400Y-12633000D02*
X219350400Y-12633000D01*
X211230400Y2727000D02*
X219350400Y2727000D01*
X214221400Y-3678000D02*
X214314400Y-3772000D01*
X216506400Y-5963000D02*
X216564400Y-6022000D01*
X214015400Y-3883000D02*
X214074400Y-3942000D01*
X216266400Y-6133000D02*
X216359400Y-6227000D01*
X214221400Y1402000D02*
X214314400Y1308000D01*
X216506400Y-883000D02*
X216564400Y-942000D01*
X214015400Y1197000D02*
X214074400Y1138000D01*
X216266400Y-1053000D02*
X216359400Y-1147000D01*
X217350400Y-12873000D02*
X219590400Y-12873000D01*
X219590400Y-12873000D02*
X219590400Y-10873000D01*
X216773752Y-9244288D02*
G75*
G02*
X216970400Y-10033000I-1483352J-788712D01*
G01*
X214501312Y-8549047D02*
G75*
G02*
X216079400Y-8549000I789088J-1483953D01*
G01*
X213806447Y-10822088D02*
G75*
G02*
X213806400Y-9244000I1483953J789088D01*
G01*
X216079488Y-11516953D02*
G75*
G02*
X214501400Y-11517000I-789088J1483953D01*
G01*
X216970850Y-10003617D02*
G75*
G02*
X216774400Y-10822000I-1680450J-29383D01*
G01*
%TO.C,P_IN1*%
X216970400Y-21717000D02*
G75*
G03*
X216970400Y-21717000I-1680000J0D01*
G01*
X216970400Y-16637000D02*
G75*
G03*
X216970400Y-16637000I-1680000J0D01*
G01*
X217290400Y-29397000D02*
X217290400Y-14037000D01*
X213290400Y-29397000D02*
X213290400Y-14037000D01*
X211230400Y-29397000D02*
X211230400Y-14037000D01*
X219350400Y-29397000D02*
X219350400Y-14037000D01*
X211230400Y-29397000D02*
X219350400Y-29397000D01*
X211230400Y-14037000D02*
X219350400Y-14037000D01*
X214221400Y-20442000D02*
X214314400Y-20536000D01*
X216506400Y-22727000D02*
X216564400Y-22786000D01*
X214015400Y-20647000D02*
X214074400Y-20706000D01*
X216266400Y-22897000D02*
X216359400Y-22991000D01*
X214221400Y-15362000D02*
X214314400Y-15456000D01*
X216506400Y-17647000D02*
X216564400Y-17706000D01*
X214015400Y-15567000D02*
X214074400Y-15626000D01*
X216266400Y-17817000D02*
X216359400Y-17911000D01*
X217350400Y-29637000D02*
X219590400Y-29637000D01*
X219590400Y-29637000D02*
X219590400Y-27637000D01*
X216773752Y-26008288D02*
G75*
G02*
X216970400Y-26797000I-1483352J-788712D01*
G01*
X214501312Y-25313047D02*
G75*
G02*
X216079400Y-25313000I789088J-1483953D01*
G01*
X213806447Y-27586088D02*
G75*
G02*
X213806400Y-26008000I1483953J789088D01*
G01*
X216079488Y-28280953D02*
G75*
G02*
X214501400Y-28281000I-789088J1483953D01*
G01*
X216970850Y-26767617D02*
G75*
G02*
X216774400Y-27586000I-1680450J-29383D01*
G01*
%TO.C,P_EX1*%
X216970400Y-38735000D02*
G75*
G03*
X216970400Y-38735000I-1680000J0D01*
G01*
X216970400Y-33655000D02*
G75*
G03*
X216970400Y-33655000I-1680000J0D01*
G01*
X217290400Y-46415000D02*
X217290400Y-31055000D01*
X213290400Y-46415000D02*
X213290400Y-31055000D01*
X211230400Y-46415000D02*
X211230400Y-31055000D01*
X219350400Y-46415000D02*
X219350400Y-31055000D01*
X211230400Y-46415000D02*
X219350400Y-46415000D01*
X211230400Y-31055000D02*
X219350400Y-31055000D01*
X214221400Y-37460000D02*
X214314400Y-37554000D01*
X216506400Y-39745000D02*
X216564400Y-39804000D01*
X214015400Y-37665000D02*
X214074400Y-37724000D01*
X216266400Y-39915000D02*
X216359400Y-40009000D01*
X214221400Y-32380000D02*
X214314400Y-32474000D01*
X216506400Y-34665000D02*
X216564400Y-34724000D01*
X214015400Y-32585000D02*
X214074400Y-32644000D01*
X216266400Y-34835000D02*
X216359400Y-34929000D01*
X217350400Y-46655000D02*
X219590400Y-46655000D01*
X219590400Y-46655000D02*
X219590400Y-44655000D01*
X216773752Y-43026288D02*
G75*
G02*
X216970400Y-43815000I-1483352J-788712D01*
G01*
X214501312Y-42331047D02*
G75*
G02*
X216079400Y-42331000I789088J-1483953D01*
G01*
X213806447Y-44604088D02*
G75*
G02*
X213806400Y-43026000I1483953J789088D01*
G01*
X216079488Y-45298953D02*
G75*
G02*
X214501400Y-45299000I-789088J1483953D01*
G01*
X216970850Y-43785617D02*
G75*
G02*
X216774400Y-44604000I-1680450J-29383D01*
G01*
%TO.C,Nivel1*%
X216970400Y-79121000D02*
G75*
G03*
X216970400Y-79121000I-1680000J0D01*
G01*
X216970400Y-74041000D02*
G75*
G03*
X216970400Y-74041000I-1680000J0D01*
G01*
X217290400Y-86801000D02*
X217290400Y-71441000D01*
X213290400Y-86801000D02*
X213290400Y-71441000D01*
X211230400Y-86801000D02*
X211230400Y-71441000D01*
X219350400Y-86801000D02*
X219350400Y-71441000D01*
X211230400Y-86801000D02*
X219350400Y-86801000D01*
X211230400Y-71441000D02*
X219350400Y-71441000D01*
X214221400Y-77846000D02*
X214314400Y-77940000D01*
X216506400Y-80131000D02*
X216564400Y-80190000D01*
X214015400Y-78051000D02*
X214074400Y-78110000D01*
X216266400Y-80301000D02*
X216359400Y-80395000D01*
X214221400Y-72766000D02*
X214314400Y-72860000D01*
X216506400Y-75051000D02*
X216564400Y-75110000D01*
X214015400Y-72971000D02*
X214074400Y-73030000D01*
X216266400Y-75221000D02*
X216359400Y-75315000D01*
X217350400Y-87041000D02*
X219590400Y-87041000D01*
X219590400Y-87041000D02*
X219590400Y-85041000D01*
X216773752Y-83412288D02*
G75*
G02*
X216970400Y-84201000I-1483352J-788712D01*
G01*
X214501312Y-82717047D02*
G75*
G02*
X216079400Y-82717000I789088J-1483953D01*
G01*
X213806447Y-84990088D02*
G75*
G02*
X213806400Y-83412000I1483953J789088D01*
G01*
X216079488Y-85684953D02*
G75*
G02*
X214501400Y-85685000I-789088J1483953D01*
G01*
X216970850Y-84171617D02*
G75*
G02*
X216774400Y-84990000I-1680450J-29383D01*
G01*
%TO.C,J12*%
X52298400Y-153619200D02*
G75*
G03*
X52298400Y-153619200I-1680000J0D01*
G01*
X43058400Y-155619200D02*
X53178400Y-155619200D01*
X43058400Y-151619200D02*
X53178400Y-151619200D01*
X43058400Y-149559200D02*
X53178400Y-149559200D01*
X43058400Y-157679200D02*
X53178400Y-157679200D01*
X43058400Y-149559200D02*
X43058400Y-157679200D01*
X53178400Y-149559200D02*
X53178400Y-157679200D01*
X51893400Y-152550200D02*
X51799400Y-152643200D01*
X49608400Y-154835200D02*
X49549400Y-154893200D01*
X51688400Y-152344200D02*
X51629400Y-152403200D01*
X49438400Y-154595200D02*
X49344400Y-154688200D01*
X42818400Y-155679200D02*
X42818400Y-157919200D01*
X42818400Y-157919200D02*
X44818400Y-157919200D01*
X46407112Y-155102552D02*
G75*
G02*
X45618400Y-155299200I-788712J1483352D01*
G01*
X47102353Y-152830112D02*
G75*
G02*
X47102400Y-154408200I-1483953J-789088D01*
G01*
X44829312Y-152135247D02*
G75*
G02*
X46407400Y-152135200I789088J-1483953D01*
G01*
X44134447Y-154408288D02*
G75*
G02*
X44134400Y-152830200I1483953J789088D01*
G01*
X45647783Y-155299650D02*
G75*
G02*
X44829400Y-155103200I-29383J1680450D01*
G01*
%TO.C,J11*%
X74650400Y-153365200D02*
G75*
G03*
X74650400Y-153365200I-1680000J0D01*
G01*
X65410400Y-155365200D02*
X75530400Y-155365200D01*
X65410400Y-151365200D02*
X75530400Y-151365200D01*
X65410400Y-149305200D02*
X75530400Y-149305200D01*
X65410400Y-157425200D02*
X75530400Y-157425200D01*
X65410400Y-149305200D02*
X65410400Y-157425200D01*
X75530400Y-149305200D02*
X75530400Y-157425200D01*
X74245400Y-152296200D02*
X74151400Y-152389200D01*
X71960400Y-154581200D02*
X71901400Y-154639200D01*
X74040400Y-152090200D02*
X73981400Y-152149200D01*
X71790400Y-154341200D02*
X71696400Y-154434200D01*
X65170400Y-155425200D02*
X65170400Y-157665200D01*
X65170400Y-157665200D02*
X67170400Y-157665200D01*
X68759112Y-154848552D02*
G75*
G02*
X67970400Y-155045200I-788712J1483352D01*
G01*
X69454353Y-152576112D02*
G75*
G02*
X69454400Y-154154200I-1483953J-789088D01*
G01*
X67181312Y-151881247D02*
G75*
G02*
X68759400Y-151881200I789088J-1483953D01*
G01*
X66486447Y-154154288D02*
G75*
G02*
X66486400Y-152576200I1483953J789088D01*
G01*
X67999783Y-155045650D02*
G75*
G02*
X67181400Y-154849200I-29383J1680450D01*
G01*
%TO.C,J10*%
X257022400Y-153619200D02*
G75*
G03*
X257022400Y-153619200I-1680000J0D01*
G01*
X247782400Y-155619200D02*
X257902400Y-155619200D01*
X247782400Y-151619200D02*
X257902400Y-151619200D01*
X247782400Y-149559200D02*
X257902400Y-149559200D01*
X247782400Y-157679200D02*
X257902400Y-157679200D01*
X247782400Y-149559200D02*
X247782400Y-157679200D01*
X257902400Y-149559200D02*
X257902400Y-157679200D01*
X256617400Y-152550200D02*
X256523400Y-152643200D01*
X254332400Y-154835200D02*
X254273400Y-154893200D01*
X256412400Y-152344200D02*
X256353400Y-152403200D01*
X254162400Y-154595200D02*
X254068400Y-154688200D01*
X247542400Y-155679200D02*
X247542400Y-157919200D01*
X247542400Y-157919200D02*
X249542400Y-157919200D01*
X251131112Y-155102552D02*
G75*
G02*
X250342400Y-155299200I-788712J1483352D01*
G01*
X251826353Y-152830112D02*
G75*
G02*
X251826400Y-154408200I-1483953J-789088D01*
G01*
X249553312Y-152135247D02*
G75*
G02*
X251131400Y-152135200I789088J-1483953D01*
G01*
X248858447Y-154408288D02*
G75*
G02*
X248858400Y-152830200I1483953J789088D01*
G01*
X250371783Y-155299650D02*
G75*
G02*
X249553400Y-155103200I-29383J1680450D01*
G01*
%TO.C,J9*%
X96494400Y-153365200D02*
G75*
G03*
X96494400Y-153365200I-1680000J0D01*
G01*
X87254400Y-155365200D02*
X97374400Y-155365200D01*
X87254400Y-151365200D02*
X97374400Y-151365200D01*
X87254400Y-149305200D02*
X97374400Y-149305200D01*
X87254400Y-157425200D02*
X97374400Y-157425200D01*
X87254400Y-149305200D02*
X87254400Y-157425200D01*
X97374400Y-149305200D02*
X97374400Y-157425200D01*
X96089400Y-152296200D02*
X95995400Y-152389200D01*
X93804400Y-154581200D02*
X93745400Y-154639200D01*
X95884400Y-152090200D02*
X95825400Y-152149200D01*
X93634400Y-154341200D02*
X93540400Y-154434200D01*
X87014400Y-155425200D02*
X87014400Y-157665200D01*
X87014400Y-157665200D02*
X89014400Y-157665200D01*
X90603112Y-154848552D02*
G75*
G02*
X89814400Y-155045200I-788712J1483352D01*
G01*
X91298353Y-152576112D02*
G75*
G02*
X91298400Y-154154200I-1483953J-789088D01*
G01*
X89025312Y-151881247D02*
G75*
G02*
X90603400Y-151881200I789088J-1483953D01*
G01*
X88330447Y-154154288D02*
G75*
G02*
X88330400Y-152576200I1483953J789088D01*
G01*
X89843783Y-155045650D02*
G75*
G02*
X89025400Y-154849200I-29383J1680450D01*
G01*
%TO.C,J8*%
X228654400Y-153619200D02*
G75*
G03*
X228654400Y-153619200I-1680000J0D01*
G01*
X233734400Y-153619200D02*
G75*
G03*
X233734400Y-153619200I-1680000J0D01*
G01*
X238814400Y-153619200D02*
G75*
G03*
X238814400Y-153619200I-1680000J0D01*
G01*
X219294400Y-155619200D02*
X239734400Y-155619200D01*
X219294400Y-151619200D02*
X239734400Y-151619200D01*
X219294400Y-149559200D02*
X239734400Y-149559200D01*
X219294400Y-157679200D02*
X239734400Y-157679200D01*
X219294400Y-149559200D02*
X219294400Y-157679200D01*
X239734400Y-149559200D02*
X239734400Y-157679200D01*
X228249400Y-152550200D02*
X228155400Y-152643200D01*
X225964400Y-154835200D02*
X225905400Y-154893200D01*
X228044400Y-152344200D02*
X227985400Y-152403200D01*
X225794400Y-154595200D02*
X225700400Y-154688200D01*
X233329400Y-152550200D02*
X233235400Y-152643200D01*
X231044400Y-154835200D02*
X230985400Y-154893200D01*
X233124400Y-152344200D02*
X233065400Y-152403200D01*
X230874400Y-154595200D02*
X230780400Y-154688200D01*
X238409400Y-152550200D02*
X238315400Y-152643200D01*
X236124400Y-154835200D02*
X236065400Y-154893200D01*
X238204400Y-152344200D02*
X238145400Y-152403200D01*
X235954400Y-154595200D02*
X235860400Y-154688200D01*
X219054400Y-155679200D02*
X219054400Y-157919200D01*
X219054400Y-157919200D02*
X221054400Y-157919200D01*
X222683112Y-155102552D02*
G75*
G02*
X221894400Y-155299200I-788712J1483352D01*
G01*
X223378353Y-152830112D02*
G75*
G02*
X223378400Y-154408200I-1483953J-789088D01*
G01*
X221105312Y-152135247D02*
G75*
G02*
X222683400Y-152135200I789088J-1483953D01*
G01*
X220410447Y-154408288D02*
G75*
G02*
X220410400Y-152830200I1483953J789088D01*
G01*
X221923783Y-155299650D02*
G75*
G02*
X221105400Y-155103200I-29383J1680450D01*
G01*
%TO.C,J7*%
X119608400Y-153365200D02*
G75*
G03*
X119608400Y-153365200I-1680000J0D01*
G01*
X110368400Y-155365200D02*
X120488400Y-155365200D01*
X110368400Y-151365200D02*
X120488400Y-151365200D01*
X110368400Y-149305200D02*
X120488400Y-149305200D01*
X110368400Y-157425200D02*
X120488400Y-157425200D01*
X110368400Y-149305200D02*
X110368400Y-157425200D01*
X120488400Y-149305200D02*
X120488400Y-157425200D01*
X119203400Y-152296200D02*
X119109400Y-152389200D01*
X116918400Y-154581200D02*
X116859400Y-154639200D01*
X118998400Y-152090200D02*
X118939400Y-152149200D01*
X116748400Y-154341200D02*
X116654400Y-154434200D01*
X110128400Y-155425200D02*
X110128400Y-157665200D01*
X110128400Y-157665200D02*
X112128400Y-157665200D01*
X113717112Y-154848552D02*
G75*
G02*
X112928400Y-155045200I-788712J1483352D01*
G01*
X114412353Y-152576112D02*
G75*
G02*
X114412400Y-154154200I-1483953J-789088D01*
G01*
X112139312Y-151881247D02*
G75*
G02*
X113717400Y-151881200I789088J-1483953D01*
G01*
X111444447Y-154154288D02*
G75*
G02*
X111444400Y-152576200I1483953J789088D01*
G01*
X112957783Y-155045650D02*
G75*
G02*
X112139400Y-154849200I-29383J1680450D01*
G01*
%TO.C,J6*%
X211810400Y-153619200D02*
G75*
G03*
X211810400Y-153619200I-1680000J0D01*
G01*
X202570400Y-155619200D02*
X212690400Y-155619200D01*
X202570400Y-151619200D02*
X212690400Y-151619200D01*
X202570400Y-149559200D02*
X212690400Y-149559200D01*
X202570400Y-157679200D02*
X212690400Y-157679200D01*
X202570400Y-149559200D02*
X202570400Y-157679200D01*
X212690400Y-149559200D02*
X212690400Y-157679200D01*
X211405400Y-152550200D02*
X211311400Y-152643200D01*
X209120400Y-154835200D02*
X209061400Y-154893200D01*
X211200400Y-152344200D02*
X211141400Y-152403200D01*
X208950400Y-154595200D02*
X208856400Y-154688200D01*
X202330400Y-155679200D02*
X202330400Y-157919200D01*
X202330400Y-157919200D02*
X204330400Y-157919200D01*
X205919112Y-155102552D02*
G75*
G02*
X205130400Y-155299200I-788712J1483352D01*
G01*
X206614353Y-152830112D02*
G75*
G02*
X206614400Y-154408200I-1483953J-789088D01*
G01*
X204341312Y-152135247D02*
G75*
G02*
X205919400Y-152135200I789088J-1483953D01*
G01*
X203646447Y-154408288D02*
G75*
G02*
X203646400Y-152830200I1483953J789088D01*
G01*
X205159783Y-155299650D02*
G75*
G02*
X204341400Y-155103200I-29383J1680450D01*
G01*
%TO.C,J5*%
X142976400Y-153365200D02*
G75*
G03*
X142976400Y-153365200I-1680000J0D01*
G01*
X133736400Y-155365200D02*
X143856400Y-155365200D01*
X133736400Y-151365200D02*
X143856400Y-151365200D01*
X133736400Y-149305200D02*
X143856400Y-149305200D01*
X133736400Y-157425200D02*
X143856400Y-157425200D01*
X133736400Y-149305200D02*
X133736400Y-157425200D01*
X143856400Y-149305200D02*
X143856400Y-157425200D01*
X142571400Y-152296200D02*
X142477400Y-152389200D01*
X140286400Y-154581200D02*
X140227400Y-154639200D01*
X142366400Y-152090200D02*
X142307400Y-152149200D01*
X140116400Y-154341200D02*
X140022400Y-154434200D01*
X133496400Y-155425200D02*
X133496400Y-157665200D01*
X133496400Y-157665200D02*
X135496400Y-157665200D01*
X137085112Y-154848552D02*
G75*
G02*
X136296400Y-155045200I-788712J1483352D01*
G01*
X137780353Y-152576112D02*
G75*
G02*
X137780400Y-154154200I-1483953J-789088D01*
G01*
X135507312Y-151881247D02*
G75*
G02*
X137085400Y-151881200I789088J-1483953D01*
G01*
X134812447Y-154154288D02*
G75*
G02*
X134812400Y-152576200I1483953J789088D01*
G01*
X136325783Y-155045650D02*
G75*
G02*
X135507400Y-154849200I-29383J1680450D01*
G01*
%TO.C,J3*%
X188188400Y-153365200D02*
G75*
G03*
X188188400Y-153365200I-1680000J0D01*
G01*
X178948400Y-155365200D02*
X189068400Y-155365200D01*
X178948400Y-151365200D02*
X189068400Y-151365200D01*
X178948400Y-149305200D02*
X189068400Y-149305200D01*
X178948400Y-157425200D02*
X189068400Y-157425200D01*
X178948400Y-149305200D02*
X178948400Y-157425200D01*
X189068400Y-149305200D02*
X189068400Y-157425200D01*
X187783400Y-152296200D02*
X187689400Y-152389200D01*
X185498400Y-154581200D02*
X185439400Y-154639200D01*
X187578400Y-152090200D02*
X187519400Y-152149200D01*
X185328400Y-154341200D02*
X185234400Y-154434200D01*
X178708400Y-155425200D02*
X178708400Y-157665200D01*
X178708400Y-157665200D02*
X180708400Y-157665200D01*
X182297112Y-154848552D02*
G75*
G02*
X181508400Y-155045200I-788712J1483352D01*
G01*
X182992353Y-152576112D02*
G75*
G02*
X182992400Y-154154200I-1483953J-789088D01*
G01*
X180719312Y-151881247D02*
G75*
G02*
X182297400Y-151881200I789088J-1483953D01*
G01*
X180024447Y-154154288D02*
G75*
G02*
X180024400Y-152576200I1483953J789088D01*
G01*
X181537783Y-155045650D02*
G75*
G02*
X180719400Y-154849200I-29383J1680450D01*
G01*
%TO.C,J2*%
X165328400Y-153365200D02*
G75*
G03*
X165328400Y-153365200I-1680000J0D01*
G01*
X156088400Y-155365200D02*
X166208400Y-155365200D01*
X156088400Y-151365200D02*
X166208400Y-151365200D01*
X156088400Y-149305200D02*
X166208400Y-149305200D01*
X156088400Y-157425200D02*
X166208400Y-157425200D01*
X156088400Y-149305200D02*
X156088400Y-157425200D01*
X166208400Y-149305200D02*
X166208400Y-157425200D01*
X164923400Y-152296200D02*
X164829400Y-152389200D01*
X162638400Y-154581200D02*
X162579400Y-154639200D01*
X164718400Y-152090200D02*
X164659400Y-152149200D01*
X162468400Y-154341200D02*
X162374400Y-154434200D01*
X155848400Y-155425200D02*
X155848400Y-157665200D01*
X155848400Y-157665200D02*
X157848400Y-157665200D01*
X159437112Y-154848552D02*
G75*
G02*
X158648400Y-155045200I-788712J1483352D01*
G01*
X160132353Y-152576112D02*
G75*
G02*
X160132400Y-154154200I-1483953J-789088D01*
G01*
X157859312Y-151881247D02*
G75*
G02*
X159437400Y-151881200I789088J-1483953D01*
G01*
X157164447Y-154154288D02*
G75*
G02*
X157164400Y-152576200I1483953J789088D01*
G01*
X158677783Y-155045650D02*
G75*
G02*
X157859400Y-154849200I-29383J1680450D01*
G01*
%TO.C,J1*%
X91215000Y-39874200D02*
G75*
G03*
X91215000Y-39874200I-1680000J0D01*
G01*
X87535000Y-32314200D02*
X87535000Y-42434200D01*
X91535000Y-32314200D02*
X91535000Y-42434200D01*
X93595000Y-32314200D02*
X93595000Y-42434200D01*
X85475000Y-32314200D02*
X85475000Y-42434200D01*
X93595000Y-32314200D02*
X85475000Y-32314200D01*
X93595000Y-42434200D02*
X85475000Y-42434200D01*
X90604000Y-41149200D02*
X90511000Y-41055200D01*
X88319000Y-38864200D02*
X88261000Y-38805200D01*
X90810000Y-40944200D02*
X90751000Y-40885200D01*
X88559000Y-38694200D02*
X88466000Y-38600200D01*
X87475000Y-32074200D02*
X85235000Y-32074200D01*
X85235000Y-32074200D02*
X85235000Y-34074200D01*
X88051648Y-35662912D02*
G75*
G02*
X87855000Y-34874200I1483352J788712D01*
G01*
X90324088Y-36358153D02*
G75*
G02*
X88746000Y-36358200I-789088J1483953D01*
G01*
X91018953Y-34085112D02*
G75*
G02*
X91019000Y-35663200I-1483953J-789088D01*
G01*
X88745912Y-33390247D02*
G75*
G02*
X90324000Y-33390200I789088J-1483953D01*
G01*
X87854550Y-34903583D02*
G75*
G02*
X88051000Y-34085200I1680450J29383D01*
G01*
%TO.C,Gris1*%
X216970400Y-50753000D02*
G75*
G03*
X216970400Y-50753000I-1680000J0D01*
G01*
X217290400Y-58313000D02*
X217290400Y-48193000D01*
X213290400Y-58313000D02*
X213290400Y-48193000D01*
X211230400Y-58313000D02*
X211230400Y-48193000D01*
X219350400Y-58313000D02*
X219350400Y-48193000D01*
X211230400Y-58313000D02*
X219350400Y-58313000D01*
X211230400Y-48193000D02*
X219350400Y-48193000D01*
X214221400Y-49478000D02*
X214314400Y-49572000D01*
X216506400Y-51763000D02*
X216564400Y-51822000D01*
X214015400Y-49683000D02*
X214074400Y-49742000D01*
X216266400Y-51933000D02*
X216359400Y-52027000D01*
X217350400Y-58553000D02*
X219590400Y-58553000D01*
X219590400Y-58553000D02*
X219590400Y-56553000D01*
X216773752Y-54964288D02*
G75*
G02*
X216970400Y-55753000I-1483352J-788712D01*
G01*
X214501312Y-54269047D02*
G75*
G02*
X216079400Y-54269000I789088J-1483953D01*
G01*
X213806447Y-56542088D02*
G75*
G02*
X213806400Y-54964000I1483953J789088D01*
G01*
X216079488Y-57236953D02*
G75*
G02*
X214501400Y-57237000I-789088J1483953D01*
G01*
X216970850Y-55723617D02*
G75*
G02*
X216774400Y-56542000I-1680450J-29383D01*
G01*
%TO.C,BMB1*%
X137636400Y-123517200D02*
X131036400Y-123517200D01*
X146636400Y-123517200D02*
X140036400Y-123517200D01*
X146636400Y-123517200D02*
X146636400Y-143317200D01*
X146636400Y-143317200D02*
X131036400Y-143317200D01*
X131036400Y-143317200D02*
X131036400Y-123517200D01*
X134636400Y-139067200D02*
X137086400Y-139067200D01*
X143036400Y-139067200D02*
X140536400Y-139067200D01*
X132786400Y-128467200D02*
X132786400Y-130967200D01*
X138786400Y-127567200D02*
X138786400Y-126767200D01*
X144786400Y-130967200D02*
X144786400Y-128467200D01*
X138786400Y-134367200D02*
X138786400Y-135867200D01*
X138786400Y-135867200D02*
X141286400Y-140467200D01*
X135186400Y-134367200D02*
X135186400Y-127567200D01*
X138786400Y-134367200D02*
X135186400Y-134367200D01*
X138786400Y-127567200D02*
X135186400Y-127567200D01*
X144786400Y-130967200D02*
X140586400Y-130967200D01*
X136986400Y-130967200D02*
X132786400Y-130967200D01*
X136986400Y-132967200D02*
X140586400Y-128967200D01*
X136986400Y-128967200D02*
X140586400Y-128967200D01*
X140586400Y-128967200D02*
X140586400Y-132967200D01*
X140586400Y-132967200D02*
X136986400Y-132967200D01*
X136986400Y-132967200D02*
X136986400Y-128967200D01*
%TO.C,Buzzer1*%
X148594000Y-87995600D02*
G75*
G03*
X148594000Y-87995600I-6100000J0D01*
G01*
%TO.C,C1*%
X85254200Y6137400D02*
G75*
G03*
X85254200Y6137400I-2120000J0D01*
G01*
X85214200Y6137400D02*
X81054200Y6137400D01*
X85214200Y6097400D02*
X81054200Y6097400D01*
X85213200Y6057400D02*
X81055200Y6057400D01*
X85211200Y6017400D02*
X81057200Y6017400D01*
X85208200Y5977400D02*
X81060200Y5977400D01*
X85205200Y5937400D02*
X83974200Y5937400D01*
X82294200Y5937400D02*
X81063200Y5937400D01*
X85201200Y5897400D02*
X83974200Y5897400D01*
X82294200Y5897400D02*
X81067200Y5897400D01*
X85196200Y5857400D02*
X83974200Y5857400D01*
X82294200Y5857400D02*
X81072200Y5857400D01*
X85190200Y5817400D02*
X83974200Y5817400D01*
X82294200Y5817400D02*
X81078200Y5817400D01*
X85184200Y5777400D02*
X83974200Y5777400D01*
X82294200Y5777400D02*
X81084200Y5777400D01*
X85176200Y5737400D02*
X83974200Y5737400D01*
X82294200Y5737400D02*
X81092200Y5737400D01*
X85168200Y5697400D02*
X83974200Y5697400D01*
X82294200Y5697400D02*
X81100200Y5697400D01*
X85159200Y5657400D02*
X83974200Y5657400D01*
X82294200Y5657400D02*
X81109200Y5657400D01*
X85150200Y5617400D02*
X83974200Y5617400D01*
X82294200Y5617400D02*
X81118200Y5617400D01*
X85139200Y5577400D02*
X83974200Y5577400D01*
X82294200Y5577400D02*
X81129200Y5577400D01*
X85128200Y5537400D02*
X83974200Y5537400D01*
X82294200Y5537400D02*
X81140200Y5537400D01*
X85116200Y5497400D02*
X83974200Y5497400D01*
X82294200Y5497400D02*
X81152200Y5497400D01*
X85102200Y5457400D02*
X83974200Y5457400D01*
X82294200Y5457400D02*
X81166200Y5457400D01*
X85088200Y5416400D02*
X83974200Y5416400D01*
X82294200Y5416400D02*
X81180200Y5416400D01*
X85074200Y5376400D02*
X83974200Y5376400D01*
X82294200Y5376400D02*
X81194200Y5376400D01*
X85058200Y5336400D02*
X83974200Y5336400D01*
X82294200Y5336400D02*
X81210200Y5336400D01*
X85041200Y5296400D02*
X83974200Y5296400D01*
X82294200Y5296400D02*
X81227200Y5296400D01*
X85023200Y5256400D02*
X83974200Y5256400D01*
X82294200Y5256400D02*
X81245200Y5256400D01*
X85004200Y5216400D02*
X83974200Y5216400D01*
X82294200Y5216400D02*
X81264200Y5216400D01*
X84985200Y5176400D02*
X83974200Y5176400D01*
X82294200Y5176400D02*
X81283200Y5176400D01*
X84964200Y5136400D02*
X83974200Y5136400D01*
X82294200Y5136400D02*
X81304200Y5136400D01*
X84942200Y5096400D02*
X83974200Y5096400D01*
X82294200Y5096400D02*
X81326200Y5096400D01*
X84919200Y5056400D02*
X83974200Y5056400D01*
X82294200Y5056400D02*
X81349200Y5056400D01*
X84894200Y5016400D02*
X83974200Y5016400D01*
X82294200Y5016400D02*
X81374200Y5016400D01*
X84869200Y4976400D02*
X83974200Y4976400D01*
X82294200Y4976400D02*
X81399200Y4976400D01*
X84842200Y4936400D02*
X83974200Y4936400D01*
X82294200Y4936400D02*
X81426200Y4936400D01*
X84814200Y4896400D02*
X83974200Y4896400D01*
X82294200Y4896400D02*
X81454200Y4896400D01*
X84784200Y4856400D02*
X83974200Y4856400D01*
X82294200Y4856400D02*
X81484200Y4856400D01*
X84753200Y4816400D02*
X83974200Y4816400D01*
X82294200Y4816400D02*
X81515200Y4816400D01*
X84721200Y4776400D02*
X83974200Y4776400D01*
X82294200Y4776400D02*
X81547200Y4776400D01*
X84686200Y4736400D02*
X83974200Y4736400D01*
X82294200Y4736400D02*
X81582200Y4736400D01*
X84650200Y4696400D02*
X83974200Y4696400D01*
X82294200Y4696400D02*
X81618200Y4696400D01*
X84612200Y4656400D02*
X83974200Y4656400D01*
X82294200Y4656400D02*
X81656200Y4656400D01*
X84572200Y4616400D02*
X83974200Y4616400D01*
X82294200Y4616400D02*
X81696200Y4616400D01*
X84530200Y4576400D02*
X83974200Y4576400D01*
X82294200Y4576400D02*
X81738200Y4576400D01*
X84485200Y4536400D02*
X83974200Y4536400D01*
X82294200Y4536400D02*
X81783200Y4536400D01*
X84438200Y4496400D02*
X83974200Y4496400D01*
X82294200Y4496400D02*
X81830200Y4496400D01*
X84388200Y4456400D02*
X83974200Y4456400D01*
X82294200Y4456400D02*
X81880200Y4456400D01*
X84334200Y4416400D02*
X83974200Y4416400D01*
X82294200Y4416400D02*
X81934200Y4416400D01*
X84276200Y4376400D02*
X83974200Y4376400D01*
X82294200Y4376400D02*
X81992200Y4376400D01*
X84214200Y4336400D02*
X83974200Y4336400D01*
X82294200Y4336400D02*
X82054200Y4336400D01*
X84147200Y4296400D02*
X82121200Y4296400D01*
X84074200Y4256400D02*
X82194200Y4256400D01*
X83993200Y4216400D02*
X82275200Y4216400D01*
X83902200Y4176400D02*
X82366200Y4176400D01*
X83798200Y4136400D02*
X82470200Y4136400D01*
X83671200Y4096400D02*
X82597200Y4096400D01*
X83504200Y4056400D02*
X82764200Y4056400D01*
X84329200Y8407201D02*
X84329200Y8007201D01*
X84529200Y8207201D02*
X84129200Y8207201D01*
%TO.C,C2*%
X84529200Y2365201D02*
X84129200Y2365201D01*
X84329200Y2565201D02*
X84329200Y2165201D01*
X83504200Y-1785600D02*
X82764200Y-1785600D01*
X83671200Y-1745600D02*
X82597200Y-1745600D01*
X83798200Y-1705600D02*
X82470200Y-1705600D01*
X83902200Y-1665600D02*
X82366200Y-1665600D01*
X83993200Y-1625600D02*
X82275200Y-1625600D01*
X84074200Y-1585600D02*
X82194200Y-1585600D01*
X84147200Y-1545600D02*
X82121200Y-1545600D01*
X82294200Y-1505600D02*
X82054200Y-1505600D01*
X84214200Y-1505600D02*
X83974200Y-1505600D01*
X82294200Y-1465600D02*
X81992200Y-1465600D01*
X84276200Y-1465600D02*
X83974200Y-1465600D01*
X82294200Y-1425600D02*
X81934200Y-1425600D01*
X84334200Y-1425600D02*
X83974200Y-1425600D01*
X82294200Y-1385600D02*
X81880200Y-1385600D01*
X84388200Y-1385600D02*
X83974200Y-1385600D01*
X82294200Y-1345600D02*
X81830200Y-1345600D01*
X84438200Y-1345600D02*
X83974200Y-1345600D01*
X82294200Y-1305600D02*
X81783200Y-1305600D01*
X84485200Y-1305600D02*
X83974200Y-1305600D01*
X82294200Y-1265600D02*
X81738200Y-1265600D01*
X84530200Y-1265600D02*
X83974200Y-1265600D01*
X82294200Y-1225600D02*
X81696200Y-1225600D01*
X84572200Y-1225600D02*
X83974200Y-1225600D01*
X82294200Y-1185600D02*
X81656200Y-1185600D01*
X84612200Y-1185600D02*
X83974200Y-1185600D01*
X82294200Y-1145600D02*
X81618200Y-1145600D01*
X84650200Y-1145600D02*
X83974200Y-1145600D01*
X82294200Y-1105600D02*
X81582200Y-1105600D01*
X84686200Y-1105600D02*
X83974200Y-1105600D01*
X82294200Y-1065600D02*
X81547200Y-1065600D01*
X84721200Y-1065600D02*
X83974200Y-1065600D01*
X82294200Y-1025600D02*
X81515200Y-1025600D01*
X84753200Y-1025600D02*
X83974200Y-1025600D01*
X82294200Y-985600D02*
X81484200Y-985600D01*
X84784200Y-985600D02*
X83974200Y-985600D01*
X82294200Y-945600D02*
X81454200Y-945600D01*
X84814200Y-945600D02*
X83974200Y-945600D01*
X82294200Y-905600D02*
X81426200Y-905600D01*
X84842200Y-905600D02*
X83974200Y-905600D01*
X82294200Y-865600D02*
X81399200Y-865600D01*
X84869200Y-865600D02*
X83974200Y-865600D01*
X82294200Y-825600D02*
X81374200Y-825600D01*
X84894200Y-825600D02*
X83974200Y-825600D01*
X82294200Y-785600D02*
X81349200Y-785600D01*
X84919200Y-785600D02*
X83974200Y-785600D01*
X82294200Y-745600D02*
X81326200Y-745600D01*
X84942200Y-745600D02*
X83974200Y-745600D01*
X82294200Y-705600D02*
X81304200Y-705600D01*
X84964200Y-705600D02*
X83974200Y-705600D01*
X82294200Y-665600D02*
X81283200Y-665600D01*
X84985200Y-665600D02*
X83974200Y-665600D01*
X82294200Y-625600D02*
X81264200Y-625600D01*
X85004200Y-625600D02*
X83974200Y-625600D01*
X82294200Y-585600D02*
X81245200Y-585600D01*
X85023200Y-585600D02*
X83974200Y-585600D01*
X82294200Y-545600D02*
X81227200Y-545600D01*
X85041200Y-545600D02*
X83974200Y-545600D01*
X82294200Y-505600D02*
X81210200Y-505600D01*
X85058200Y-505600D02*
X83974200Y-505600D01*
X82294200Y-465600D02*
X81194200Y-465600D01*
X85074200Y-465600D02*
X83974200Y-465600D01*
X82294200Y-425600D02*
X81180200Y-425600D01*
X85088200Y-425600D02*
X83974200Y-425600D01*
X82294200Y-384600D02*
X81166200Y-384600D01*
X85102200Y-384600D02*
X83974200Y-384600D01*
X82294200Y-344600D02*
X81152200Y-344600D01*
X85116200Y-344600D02*
X83974200Y-344600D01*
X82294200Y-304600D02*
X81140200Y-304600D01*
X85128200Y-304600D02*
X83974200Y-304600D01*
X82294200Y-264600D02*
X81129200Y-264600D01*
X85139200Y-264600D02*
X83974200Y-264600D01*
X82294200Y-224600D02*
X81118200Y-224600D01*
X85150200Y-224600D02*
X83974200Y-224600D01*
X82294200Y-184600D02*
X81109200Y-184600D01*
X85159200Y-184600D02*
X83974200Y-184600D01*
X82294200Y-144600D02*
X81100200Y-144600D01*
X85168200Y-144600D02*
X83974200Y-144600D01*
X82294200Y-104600D02*
X81092200Y-104600D01*
X85176200Y-104600D02*
X83974200Y-104600D01*
X82294200Y-64600D02*
X81084200Y-64600D01*
X85184200Y-64600D02*
X83974200Y-64600D01*
X82294200Y-24600D02*
X81078200Y-24600D01*
X85190200Y-24600D02*
X83974200Y-24600D01*
X82294200Y15400D02*
X81072200Y15400D01*
X85196200Y15400D02*
X83974200Y15400D01*
X82294200Y55400D02*
X81067200Y55400D01*
X85201200Y55400D02*
X83974200Y55400D01*
X82294200Y95400D02*
X81063200Y95400D01*
X85205200Y95400D02*
X83974200Y95400D01*
X85208200Y135400D02*
X81060200Y135400D01*
X85211200Y175400D02*
X81057200Y175400D01*
X85213200Y215400D02*
X81055200Y215400D01*
X85214200Y255400D02*
X81054200Y255400D01*
X85214200Y295400D02*
X81054200Y295400D01*
X85254200Y295400D02*
G75*
G03*
X85254200Y295400I-2120000J0D01*
G01*
%TO.C,C3*%
X85254200Y11693400D02*
G75*
G03*
X85254200Y11693400I-2120000J0D01*
G01*
X85214200Y11693400D02*
X81054200Y11693400D01*
X85214200Y11653400D02*
X81054200Y11653400D01*
X85213200Y11613400D02*
X81055200Y11613400D01*
X85211200Y11573400D02*
X81057200Y11573400D01*
X85208200Y11533400D02*
X81060200Y11533400D01*
X85205200Y11493400D02*
X83974200Y11493400D01*
X82294200Y11493400D02*
X81063200Y11493400D01*
X85201200Y11453400D02*
X83974200Y11453400D01*
X82294200Y11453400D02*
X81067200Y11453400D01*
X85196200Y11413400D02*
X83974200Y11413400D01*
X82294200Y11413400D02*
X81072200Y11413400D01*
X85190200Y11373400D02*
X83974200Y11373400D01*
X82294200Y11373400D02*
X81078200Y11373400D01*
X85184200Y11333400D02*
X83974200Y11333400D01*
X82294200Y11333400D02*
X81084200Y11333400D01*
X85176200Y11293400D02*
X83974200Y11293400D01*
X82294200Y11293400D02*
X81092200Y11293400D01*
X85168200Y11253400D02*
X83974200Y11253400D01*
X82294200Y11253400D02*
X81100200Y11253400D01*
X85159200Y11213400D02*
X83974200Y11213400D01*
X82294200Y11213400D02*
X81109200Y11213400D01*
X85150200Y11173400D02*
X83974200Y11173400D01*
X82294200Y11173400D02*
X81118200Y11173400D01*
X85139200Y11133400D02*
X83974200Y11133400D01*
X82294200Y11133400D02*
X81129200Y11133400D01*
X85128200Y11093400D02*
X83974200Y11093400D01*
X82294200Y11093400D02*
X81140200Y11093400D01*
X85116200Y11053400D02*
X83974200Y11053400D01*
X82294200Y11053400D02*
X81152200Y11053400D01*
X85102200Y11013400D02*
X83974200Y11013400D01*
X82294200Y11013400D02*
X81166200Y11013400D01*
X85088200Y10972400D02*
X83974200Y10972400D01*
X82294200Y10972400D02*
X81180200Y10972400D01*
X85074200Y10932400D02*
X83974200Y10932400D01*
X82294200Y10932400D02*
X81194200Y10932400D01*
X85058200Y10892400D02*
X83974200Y10892400D01*
X82294200Y10892400D02*
X81210200Y10892400D01*
X85041200Y10852400D02*
X83974200Y10852400D01*
X82294200Y10852400D02*
X81227200Y10852400D01*
X85023200Y10812400D02*
X83974200Y10812400D01*
X82294200Y10812400D02*
X81245200Y10812400D01*
X85004200Y10772400D02*
X83974200Y10772400D01*
X82294200Y10772400D02*
X81264200Y10772400D01*
X84985200Y10732400D02*
X83974200Y10732400D01*
X82294200Y10732400D02*
X81283200Y10732400D01*
X84964200Y10692400D02*
X83974200Y10692400D01*
X82294200Y10692400D02*
X81304200Y10692400D01*
X84942200Y10652400D02*
X83974200Y10652400D01*
X82294200Y10652400D02*
X81326200Y10652400D01*
X84919200Y10612400D02*
X83974200Y10612400D01*
X82294200Y10612400D02*
X81349200Y10612400D01*
X84894200Y10572400D02*
X83974200Y10572400D01*
X82294200Y10572400D02*
X81374200Y10572400D01*
X84869200Y10532400D02*
X83974200Y10532400D01*
X82294200Y10532400D02*
X81399200Y10532400D01*
X84842200Y10492400D02*
X83974200Y10492400D01*
X82294200Y10492400D02*
X81426200Y10492400D01*
X84814200Y10452400D02*
X83974200Y10452400D01*
X82294200Y10452400D02*
X81454200Y10452400D01*
X84784200Y10412400D02*
X83974200Y10412400D01*
X82294200Y10412400D02*
X81484200Y10412400D01*
X84753200Y10372400D02*
X83974200Y10372400D01*
X82294200Y10372400D02*
X81515200Y10372400D01*
X84721200Y10332400D02*
X83974200Y10332400D01*
X82294200Y10332400D02*
X81547200Y10332400D01*
X84686200Y10292400D02*
X83974200Y10292400D01*
X82294200Y10292400D02*
X81582200Y10292400D01*
X84650200Y10252400D02*
X83974200Y10252400D01*
X82294200Y10252400D02*
X81618200Y10252400D01*
X84612200Y10212400D02*
X83974200Y10212400D01*
X82294200Y10212400D02*
X81656200Y10212400D01*
X84572200Y10172400D02*
X83974200Y10172400D01*
X82294200Y10172400D02*
X81696200Y10172400D01*
X84530200Y10132400D02*
X83974200Y10132400D01*
X82294200Y10132400D02*
X81738200Y10132400D01*
X84485200Y10092400D02*
X83974200Y10092400D01*
X82294200Y10092400D02*
X81783200Y10092400D01*
X84438200Y10052400D02*
X83974200Y10052400D01*
X82294200Y10052400D02*
X81830200Y10052400D01*
X84388200Y10012400D02*
X83974200Y10012400D01*
X82294200Y10012400D02*
X81880200Y10012400D01*
X84334200Y9972400D02*
X83974200Y9972400D01*
X82294200Y9972400D02*
X81934200Y9972400D01*
X84276200Y9932400D02*
X83974200Y9932400D01*
X82294200Y9932400D02*
X81992200Y9932400D01*
X84214200Y9892400D02*
X83974200Y9892400D01*
X82294200Y9892400D02*
X82054200Y9892400D01*
X84147200Y9852400D02*
X82121200Y9852400D01*
X84074200Y9812400D02*
X82194200Y9812400D01*
X83993200Y9772400D02*
X82275200Y9772400D01*
X83902200Y9732400D02*
X82366200Y9732400D01*
X83798200Y9692400D02*
X82470200Y9692400D01*
X83671200Y9652400D02*
X82597200Y9652400D01*
X83504200Y9612400D02*
X82764200Y9612400D01*
X84329200Y13963201D02*
X84329200Y13563201D01*
X84529200Y13763201D02*
X84129200Y13763201D01*
%TO.C,C4*%
X84529200Y19637201D02*
X84129200Y19637201D01*
X84329200Y19837201D02*
X84329200Y19437201D01*
X83504200Y15486400D02*
X82764200Y15486400D01*
X83671200Y15526400D02*
X82597200Y15526400D01*
X83798200Y15566400D02*
X82470200Y15566400D01*
X83902200Y15606400D02*
X82366200Y15606400D01*
X83993200Y15646400D02*
X82275200Y15646400D01*
X84074200Y15686400D02*
X82194200Y15686400D01*
X84147200Y15726400D02*
X82121200Y15726400D01*
X82294200Y15766400D02*
X82054200Y15766400D01*
X84214200Y15766400D02*
X83974200Y15766400D01*
X82294200Y15806400D02*
X81992200Y15806400D01*
X84276200Y15806400D02*
X83974200Y15806400D01*
X82294200Y15846400D02*
X81934200Y15846400D01*
X84334200Y15846400D02*
X83974200Y15846400D01*
X82294200Y15886400D02*
X81880200Y15886400D01*
X84388200Y15886400D02*
X83974200Y15886400D01*
X82294200Y15926400D02*
X81830200Y15926400D01*
X84438200Y15926400D02*
X83974200Y15926400D01*
X82294200Y15966400D02*
X81783200Y15966400D01*
X84485200Y15966400D02*
X83974200Y15966400D01*
X82294200Y16006400D02*
X81738200Y16006400D01*
X84530200Y16006400D02*
X83974200Y16006400D01*
X82294200Y16046400D02*
X81696200Y16046400D01*
X84572200Y16046400D02*
X83974200Y16046400D01*
X82294200Y16086400D02*
X81656200Y16086400D01*
X84612200Y16086400D02*
X83974200Y16086400D01*
X82294200Y16126400D02*
X81618200Y16126400D01*
X84650200Y16126400D02*
X83974200Y16126400D01*
X82294200Y16166400D02*
X81582200Y16166400D01*
X84686200Y16166400D02*
X83974200Y16166400D01*
X82294200Y16206400D02*
X81547200Y16206400D01*
X84721200Y16206400D02*
X83974200Y16206400D01*
X82294200Y16246400D02*
X81515200Y16246400D01*
X84753200Y16246400D02*
X83974200Y16246400D01*
X82294200Y16286400D02*
X81484200Y16286400D01*
X84784200Y16286400D02*
X83974200Y16286400D01*
X82294200Y16326400D02*
X81454200Y16326400D01*
X84814200Y16326400D02*
X83974200Y16326400D01*
X82294200Y16366400D02*
X81426200Y16366400D01*
X84842200Y16366400D02*
X83974200Y16366400D01*
X82294200Y16406400D02*
X81399200Y16406400D01*
X84869200Y16406400D02*
X83974200Y16406400D01*
X82294200Y16446400D02*
X81374200Y16446400D01*
X84894200Y16446400D02*
X83974200Y16446400D01*
X82294200Y16486400D02*
X81349200Y16486400D01*
X84919200Y16486400D02*
X83974200Y16486400D01*
X82294200Y16526400D02*
X81326200Y16526400D01*
X84942200Y16526400D02*
X83974200Y16526400D01*
X82294200Y16566400D02*
X81304200Y16566400D01*
X84964200Y16566400D02*
X83974200Y16566400D01*
X82294200Y16606400D02*
X81283200Y16606400D01*
X84985200Y16606400D02*
X83974200Y16606400D01*
X82294200Y16646400D02*
X81264200Y16646400D01*
X85004200Y16646400D02*
X83974200Y16646400D01*
X82294200Y16686400D02*
X81245200Y16686400D01*
X85023200Y16686400D02*
X83974200Y16686400D01*
X82294200Y16726400D02*
X81227200Y16726400D01*
X85041200Y16726400D02*
X83974200Y16726400D01*
X82294200Y16766400D02*
X81210200Y16766400D01*
X85058200Y16766400D02*
X83974200Y16766400D01*
X82294200Y16806400D02*
X81194200Y16806400D01*
X85074200Y16806400D02*
X83974200Y16806400D01*
X82294200Y16846400D02*
X81180200Y16846400D01*
X85088200Y16846400D02*
X83974200Y16846400D01*
X82294200Y16887400D02*
X81166200Y16887400D01*
X85102200Y16887400D02*
X83974200Y16887400D01*
X82294200Y16927400D02*
X81152200Y16927400D01*
X85116200Y16927400D02*
X83974200Y16927400D01*
X82294200Y16967400D02*
X81140200Y16967400D01*
X85128200Y16967400D02*
X83974200Y16967400D01*
X82294200Y17007400D02*
X81129200Y17007400D01*
X85139200Y17007400D02*
X83974200Y17007400D01*
X82294200Y17047400D02*
X81118200Y17047400D01*
X85150200Y17047400D02*
X83974200Y17047400D01*
X82294200Y17087400D02*
X81109200Y17087400D01*
X85159200Y17087400D02*
X83974200Y17087400D01*
X82294200Y17127400D02*
X81100200Y17127400D01*
X85168200Y17127400D02*
X83974200Y17127400D01*
X82294200Y17167400D02*
X81092200Y17167400D01*
X85176200Y17167400D02*
X83974200Y17167400D01*
X82294200Y17207400D02*
X81084200Y17207400D01*
X85184200Y17207400D02*
X83974200Y17207400D01*
X82294200Y17247400D02*
X81078200Y17247400D01*
X85190200Y17247400D02*
X83974200Y17247400D01*
X82294200Y17287400D02*
X81072200Y17287400D01*
X85196200Y17287400D02*
X83974200Y17287400D01*
X82294200Y17327400D02*
X81067200Y17327400D01*
X85201200Y17327400D02*
X83974200Y17327400D01*
X82294200Y17367400D02*
X81063200Y17367400D01*
X85205200Y17367400D02*
X83974200Y17367400D01*
X85208200Y17407400D02*
X81060200Y17407400D01*
X85211200Y17447400D02*
X81057200Y17447400D01*
X85213200Y17487400D02*
X81055200Y17487400D01*
X85214200Y17527400D02*
X81054200Y17527400D01*
X85214200Y17567400D02*
X81054200Y17567400D01*
X85254200Y17567400D02*
G75*
G03*
X85254200Y17567400I-2120000J0D01*
G01*
%TO.C,Cf1*%
X201391225Y-8155600D02*
X201391225Y-8655600D01*
X201141225Y-8405600D02*
X201641225Y-8405600D01*
X206547000Y-9596600D02*
X206547000Y-10164600D01*
X206507000Y-9362600D02*
X206507000Y-10398600D01*
X206467000Y-9203600D02*
X206467000Y-10557600D01*
X206427000Y-9075600D02*
X206427000Y-10685600D01*
X206387000Y-8965600D02*
X206387000Y-10795600D01*
X206347000Y-8869600D02*
X206347000Y-10891600D01*
X206307000Y-8782600D02*
X206307000Y-10978600D01*
X206267000Y-8702600D02*
X206267000Y-11058600D01*
X206227000Y-8629600D02*
X206227000Y-11131600D01*
X206187000Y-8561600D02*
X206187000Y-11199600D01*
X206147000Y-8497600D02*
X206147000Y-11263600D01*
X206107000Y-8437600D02*
X206107000Y-11323600D01*
X206067000Y-8380600D02*
X206067000Y-11380600D01*
X206027000Y-8326600D02*
X206027000Y-11434600D01*
X205987000Y-8275600D02*
X205987000Y-11485600D01*
X205947000Y-10920600D02*
X205947000Y-11533600D01*
X205947000Y-8227600D02*
X205947000Y-8840600D01*
X205907000Y-10920600D02*
X205907000Y-11579600D01*
X205907000Y-8181600D02*
X205907000Y-8840600D01*
X205867000Y-10920600D02*
X205867000Y-11623600D01*
X205867000Y-8137600D02*
X205867000Y-8840600D01*
X205827000Y-10920600D02*
X205827000Y-11665600D01*
X205827000Y-8095600D02*
X205827000Y-8840600D01*
X205787000Y-10920600D02*
X205787000Y-11706600D01*
X205787000Y-8054600D02*
X205787000Y-8840600D01*
X205747000Y-10920600D02*
X205747000Y-11744600D01*
X205747000Y-8016600D02*
X205747000Y-8840600D01*
X205707000Y-10920600D02*
X205707000Y-11781600D01*
X205707000Y-7979600D02*
X205707000Y-8840600D01*
X205667000Y-10920600D02*
X205667000Y-11817600D01*
X205667000Y-7943600D02*
X205667000Y-8840600D01*
X205627000Y-10920600D02*
X205627000Y-11851600D01*
X205627000Y-7909600D02*
X205627000Y-8840600D01*
X205587000Y-10920600D02*
X205587000Y-11884600D01*
X205587000Y-7876600D02*
X205587000Y-8840600D01*
X205547000Y-10920600D02*
X205547000Y-11915600D01*
X205547000Y-7845600D02*
X205547000Y-8840600D01*
X205507000Y-10920600D02*
X205507000Y-11945600D01*
X205507000Y-7815600D02*
X205507000Y-8840600D01*
X205467000Y-10920600D02*
X205467000Y-11975600D01*
X205467000Y-7785600D02*
X205467000Y-8840600D01*
X205427000Y-10920600D02*
X205427000Y-12002600D01*
X205427000Y-7758600D02*
X205427000Y-8840600D01*
X205387000Y-10920600D02*
X205387000Y-12029600D01*
X205387000Y-7731600D02*
X205387000Y-8840600D01*
X205347000Y-10920600D02*
X205347000Y-12055600D01*
X205347000Y-7705600D02*
X205347000Y-8840600D01*
X205307000Y-10920600D02*
X205307000Y-12080600D01*
X205307000Y-7680600D02*
X205307000Y-8840600D01*
X205267000Y-10920600D02*
X205267000Y-12104600D01*
X205267000Y-7656600D02*
X205267000Y-8840600D01*
X205227000Y-10920600D02*
X205227000Y-12127600D01*
X205227000Y-7633600D02*
X205227000Y-8840600D01*
X205187000Y-10920600D02*
X205187000Y-12148600D01*
X205187000Y-7612600D02*
X205187000Y-8840600D01*
X205147000Y-10920600D02*
X205147000Y-12170600D01*
X205147000Y-7590600D02*
X205147000Y-8840600D01*
X205107000Y-10920600D02*
X205107000Y-12190600D01*
X205107000Y-7570600D02*
X205107000Y-8840600D01*
X205067000Y-10920600D02*
X205067000Y-12209600D01*
X205067000Y-7551600D02*
X205067000Y-8840600D01*
X205027000Y-10920600D02*
X205027000Y-12228600D01*
X205027000Y-7532600D02*
X205027000Y-8840600D01*
X204987000Y-10920600D02*
X204987000Y-12245600D01*
X204987000Y-7515600D02*
X204987000Y-8840600D01*
X204947000Y-10920600D02*
X204947000Y-12262600D01*
X204947000Y-7498600D02*
X204947000Y-8840600D01*
X204907000Y-10920600D02*
X204907000Y-12278600D01*
X204907000Y-7482600D02*
X204907000Y-8840600D01*
X204867000Y-10920600D02*
X204867000Y-12294600D01*
X204867000Y-7466600D02*
X204867000Y-8840600D01*
X204827000Y-10920600D02*
X204827000Y-12308600D01*
X204827000Y-7452600D02*
X204827000Y-8840600D01*
X204787000Y-10920600D02*
X204787000Y-12322600D01*
X204787000Y-7438600D02*
X204787000Y-8840600D01*
X204747000Y-10920600D02*
X204747000Y-12335600D01*
X204747000Y-7425600D02*
X204747000Y-8840600D01*
X204707000Y-10920600D02*
X204707000Y-12348600D01*
X204707000Y-7412600D02*
X204707000Y-8840600D01*
X204667000Y-10920600D02*
X204667000Y-12360600D01*
X204667000Y-7400600D02*
X204667000Y-8840600D01*
X204626000Y-10920600D02*
X204626000Y-12371600D01*
X204626000Y-7389600D02*
X204626000Y-8840600D01*
X204586000Y-10920600D02*
X204586000Y-12381600D01*
X204586000Y-7379600D02*
X204586000Y-8840600D01*
X204546000Y-10920600D02*
X204546000Y-12391600D01*
X204546000Y-7369600D02*
X204546000Y-8840600D01*
X204506000Y-10920600D02*
X204506000Y-12400600D01*
X204506000Y-7360600D02*
X204506000Y-8840600D01*
X204466000Y-10920600D02*
X204466000Y-12408600D01*
X204466000Y-7352600D02*
X204466000Y-8840600D01*
X204426000Y-10920600D02*
X204426000Y-12416600D01*
X204426000Y-7344600D02*
X204426000Y-8840600D01*
X204386000Y-10920600D02*
X204386000Y-12423600D01*
X204386000Y-7337600D02*
X204386000Y-8840600D01*
X204346000Y-10920600D02*
X204346000Y-12430600D01*
X204346000Y-7330600D02*
X204346000Y-8840600D01*
X204306000Y-10920600D02*
X204306000Y-12436600D01*
X204306000Y-7324600D02*
X204306000Y-8840600D01*
X204266000Y-10920600D02*
X204266000Y-12441600D01*
X204266000Y-7319600D02*
X204266000Y-8840600D01*
X204226000Y-10920600D02*
X204226000Y-12445600D01*
X204226000Y-7315600D02*
X204226000Y-8840600D01*
X204186000Y-10920600D02*
X204186000Y-12449600D01*
X204186000Y-7311600D02*
X204186000Y-8840600D01*
X204146000Y-10920600D02*
X204146000Y-12453600D01*
X204146000Y-7307600D02*
X204146000Y-8840600D01*
X204106000Y-10920600D02*
X204106000Y-12456600D01*
X204106000Y-7304600D02*
X204106000Y-8840600D01*
X204066000Y-10920600D02*
X204066000Y-12458600D01*
X204066000Y-7302600D02*
X204066000Y-8840600D01*
X204026000Y-10920600D02*
X204026000Y-12459600D01*
X204026000Y-7301600D02*
X204026000Y-8840600D01*
X203986000Y-7300600D02*
X203986000Y-8840600D01*
X203986000Y-10920600D02*
X203986000Y-12460600D01*
X203946000Y-7300600D02*
X203946000Y-8840600D01*
X203946000Y-10920600D02*
X203946000Y-12460600D01*
X206566000Y-9880600D02*
G75*
G03*
X206566000Y-9880600I-2620000J0D01*
G01*
%TO.C,CNT1*%
X205454400Y-123771200D02*
X198854400Y-123771200D01*
X214454400Y-123771200D02*
X207854400Y-123771200D01*
X214454400Y-123771200D02*
X214454400Y-143571200D01*
X214454400Y-143571200D02*
X198854400Y-143571200D01*
X198854400Y-143571200D02*
X198854400Y-123771200D01*
X202454400Y-139321200D02*
X204904400Y-139321200D01*
X210854400Y-139321200D02*
X208354400Y-139321200D01*
X200604400Y-128721200D02*
X200604400Y-131221200D01*
X206604400Y-127821200D02*
X206604400Y-127021200D01*
X212604400Y-131221200D02*
X212604400Y-128721200D01*
X206604400Y-134621200D02*
X206604400Y-136121200D01*
X206604400Y-136121200D02*
X209104400Y-140721200D01*
X203004400Y-134621200D02*
X203004400Y-127821200D01*
X206604400Y-134621200D02*
X203004400Y-134621200D01*
X206604400Y-127821200D02*
X203004400Y-127821200D01*
X212604400Y-131221200D02*
X208404400Y-131221200D01*
X204804400Y-131221200D02*
X200604400Y-131221200D01*
X204804400Y-133221200D02*
X208404400Y-129221200D01*
X204804400Y-129221200D02*
X208404400Y-129221200D01*
X208404400Y-129221200D02*
X208404400Y-133221200D01*
X208404400Y-133221200D02*
X204804400Y-133221200D01*
X204804400Y-133221200D02*
X204804400Y-129221200D01*
D12*
%TO.C,D1*%
X166954400Y-115439200D02*
X166954400Y-115689200D01*
X166954400Y-118139200D02*
X166954400Y-117889200D01*
X167558933Y-118630815D02*
G75*
G02*
X166954400Y-118139200I995467J1841615D01*
G01*
X166947115Y-115433053D02*
G75*
G02*
X167554400Y-114939200I1607285J-1356147D01*
G01*
X170404400Y-117789200D02*
G75*
G02*
X169554400Y-118639200I-1850000J1000000D01*
G01*
X169554400Y-114939200D02*
G75*
G02*
X170404400Y-115789200I-1000000J-1850000D01*
G01*
%TO.C,D2*%
X189306400Y-117885200D02*
X189306400Y-117635200D01*
X189306400Y-115185200D02*
X189306400Y-115435200D01*
X191906400Y-114685200D02*
G75*
G02*
X192756400Y-115535200I-1000000J-1850000D01*
G01*
X192756400Y-117535200D02*
G75*
G02*
X191906400Y-118385200I-1850000J1000000D01*
G01*
X189299115Y-115179053D02*
G75*
G02*
X189906400Y-114685200I1607285J-1356147D01*
G01*
X189910933Y-118376815D02*
G75*
G02*
X189306400Y-117885200I995467J1841615D01*
G01*
%TO.C,D3*%
X184480000Y-12340600D02*
X184480000Y-12590600D01*
X184480000Y-15040600D02*
X184480000Y-14790600D01*
X181880000Y-15540600D02*
G75*
G02*
X181030000Y-14690600I1000000J1850000D01*
G01*
X181030000Y-12690600D02*
G75*
G02*
X181880000Y-11840600I1850000J-1000000D01*
G01*
X184487285Y-15046747D02*
G75*
G02*
X183880000Y-15540600I-1607285J1356147D01*
G01*
X183875467Y-11848985D02*
G75*
G02*
X184480000Y-12340600I-995467J-1841615D01*
G01*
%TO.C,D4*%
X144856400Y-115185200D02*
X144856400Y-115435200D01*
X144856400Y-117885200D02*
X144856400Y-117635200D01*
X145460933Y-118376815D02*
G75*
G02*
X144856400Y-117885200I995467J1841615D01*
G01*
X144849115Y-115179053D02*
G75*
G02*
X145456400Y-114685200I1607285J-1356147D01*
G01*
X148306400Y-117535200D02*
G75*
G02*
X147456400Y-118385200I-1850000J1000000D01*
G01*
X147456400Y-114685200D02*
G75*
G02*
X148306400Y-115535200I-1000000J-1850000D01*
G01*
%TO.C,D5*%
X212928400Y-117885200D02*
X212928400Y-117635200D01*
X212928400Y-115185200D02*
X212928400Y-115435200D01*
X215528400Y-114685200D02*
G75*
G02*
X216378400Y-115535200I-1000000J-1850000D01*
G01*
X216378400Y-117535200D02*
G75*
G02*
X215528400Y-118385200I-1850000J1000000D01*
G01*
X212921115Y-115179053D02*
G75*
G02*
X213528400Y-114685200I1607285J-1356147D01*
G01*
X213532933Y-118376815D02*
G75*
G02*
X212928400Y-117885200I995467J1841615D01*
G01*
%TO.C,D6*%
X121742400Y-115439200D02*
X121742400Y-115689200D01*
X121742400Y-118139200D02*
X121742400Y-117889200D01*
X122346933Y-118630815D02*
G75*
G02*
X121742400Y-118139200I995467J1841615D01*
G01*
X121735115Y-115433053D02*
G75*
G02*
X122342400Y-114939200I1607285J-1356147D01*
G01*
X125192400Y-117789200D02*
G75*
G02*
X124342400Y-118639200I-1850000J1000000D01*
G01*
X124342400Y-114939200D02*
G75*
G02*
X125192400Y-115789200I-1000000J-1850000D01*
G01*
%TO.C,D7*%
X236042400Y-117377200D02*
X236042400Y-117127200D01*
X236042400Y-114677200D02*
X236042400Y-114927200D01*
X238642400Y-114177200D02*
G75*
G02*
X239492400Y-115027200I-1000000J-1850000D01*
G01*
X239492400Y-117027200D02*
G75*
G02*
X238642400Y-117877200I-1850000J1000000D01*
G01*
X236035115Y-114671053D02*
G75*
G02*
X236642400Y-114177200I1607285J-1356147D01*
G01*
X236646933Y-117868815D02*
G75*
G02*
X236042400Y-117377200I995467J1841615D01*
G01*
%TO.C,D8*%
X99136400Y-115185200D02*
X99136400Y-115435200D01*
X99136400Y-117885200D02*
X99136400Y-117635200D01*
X99740933Y-118376815D02*
G75*
G02*
X99136400Y-117885200I995467J1841615D01*
G01*
X99129115Y-115179053D02*
G75*
G02*
X99736400Y-114685200I1607285J-1356147D01*
G01*
X102586400Y-117535200D02*
G75*
G02*
X101736400Y-118385200I-1850000J1000000D01*
G01*
X101736400Y-114685200D02*
G75*
G02*
X102586400Y-115535200I-1000000J-1850000D01*
G01*
%TO.C,D9*%
X259918400Y-117123200D02*
X259918400Y-116873200D01*
X259918400Y-114423200D02*
X259918400Y-114673200D01*
X262518400Y-113923200D02*
G75*
G02*
X263368400Y-114773200I-1000000J-1850000D01*
G01*
X263368400Y-116773200D02*
G75*
G02*
X262518400Y-117623200I-1850000J1000000D01*
G01*
X259911115Y-114417053D02*
G75*
G02*
X260518400Y-113923200I1607285J-1356147D01*
G01*
X260522933Y-117614815D02*
G75*
G02*
X259918400Y-117123200I995467J1841615D01*
G01*
%TO.C,D10*%
X75006400Y-115185200D02*
X75006400Y-115435200D01*
X75006400Y-117885200D02*
X75006400Y-117635200D01*
X75610933Y-118376815D02*
G75*
G02*
X75006400Y-117885200I995467J1841615D01*
G01*
X74999115Y-115179053D02*
G75*
G02*
X75606400Y-114685200I1607285J-1356147D01*
G01*
X78456400Y-117535200D02*
G75*
G02*
X77606400Y-118385200I-1850000J1000000D01*
G01*
X77606400Y-114685200D02*
G75*
G02*
X78456400Y-115535200I-1000000J-1850000D01*
G01*
%TO.C,D11*%
X52146400Y-117885200D02*
X52146400Y-117635200D01*
X52146400Y-115185200D02*
X52146400Y-115435200D01*
X54746400Y-114685200D02*
G75*
G02*
X55596400Y-115535200I-1000000J-1850000D01*
G01*
X55596400Y-117535200D02*
G75*
G02*
X54746400Y-118385200I-1850000J1000000D01*
G01*
X52139115Y-115179053D02*
G75*
G02*
X52746400Y-114685200I1607285J-1356147D01*
G01*
X52750933Y-118376815D02*
G75*
G02*
X52146400Y-117885200I995467J1841615D01*
G01*
%TO.C,D12*%
X167262800Y-57150200D02*
X167012800Y-57150200D01*
X164562800Y-57150200D02*
X164812800Y-57150200D01*
X164071185Y-57754733D02*
G75*
G02*
X164562800Y-57150200I1841615J-995467D01*
G01*
X167268947Y-57142915D02*
G75*
G02*
X167762800Y-57750200I-1356147J-1607285D01*
G01*
X164912800Y-60600200D02*
G75*
G02*
X164062800Y-59750200I1000000J1850000D01*
G01*
X167762800Y-59750200D02*
G75*
G02*
X166912800Y-60600200I-1850000J1000000D01*
G01*
D11*
%TO.C,EM1*%
X228426400Y-133221200D02*
X228426400Y-129221200D01*
X232026400Y-133221200D02*
X228426400Y-133221200D01*
X232026400Y-129221200D02*
X232026400Y-133221200D01*
X228426400Y-129221200D02*
X232026400Y-129221200D01*
X228426400Y-133221200D02*
X232026400Y-129221200D01*
X228426400Y-131221200D02*
X224226400Y-131221200D01*
X236226400Y-131221200D02*
X232026400Y-131221200D01*
X230226400Y-127821200D02*
X226626400Y-127821200D01*
X230226400Y-134621200D02*
X226626400Y-134621200D01*
X226626400Y-134621200D02*
X226626400Y-127821200D01*
X230226400Y-136121200D02*
X232726400Y-140721200D01*
X230226400Y-134621200D02*
X230226400Y-136121200D01*
X236226400Y-131221200D02*
X236226400Y-128721200D01*
X230226400Y-127821200D02*
X230226400Y-127021200D01*
X224226400Y-128721200D02*
X224226400Y-131221200D01*
X234476400Y-139321200D02*
X231976400Y-139321200D01*
X226076400Y-139321200D02*
X228526400Y-139321200D01*
X222476400Y-143571200D02*
X222476400Y-123771200D01*
X238076400Y-143571200D02*
X222476400Y-143571200D01*
X238076400Y-123771200D02*
X238076400Y-143571200D01*
X238076400Y-123771200D02*
X231476400Y-123771200D01*
X229076400Y-123771200D02*
X222476400Y-123771200D01*
%TO.C,ENA1*%
X46054400Y-133729200D02*
X46054400Y-129729200D01*
X49654400Y-133729200D02*
X46054400Y-133729200D01*
X49654400Y-129729200D02*
X49654400Y-133729200D01*
X46054400Y-129729200D02*
X49654400Y-129729200D01*
X46054400Y-133729200D02*
X49654400Y-129729200D01*
X46054400Y-131729200D02*
X41854400Y-131729200D01*
X53854400Y-131729200D02*
X49654400Y-131729200D01*
X47854400Y-128329200D02*
X44254400Y-128329200D01*
X47854400Y-135129200D02*
X44254400Y-135129200D01*
X44254400Y-135129200D02*
X44254400Y-128329200D01*
X47854400Y-136629200D02*
X50354400Y-141229200D01*
X47854400Y-135129200D02*
X47854400Y-136629200D01*
X53854400Y-131729200D02*
X53854400Y-129229200D01*
X47854400Y-128329200D02*
X47854400Y-127529200D01*
X41854400Y-129229200D02*
X41854400Y-131729200D01*
X52104400Y-139829200D02*
X49604400Y-139829200D01*
X43704400Y-139829200D02*
X46154400Y-139829200D01*
X40104400Y-144079200D02*
X40104400Y-124279200D01*
X55704400Y-144079200D02*
X40104400Y-144079200D01*
X55704400Y-124279200D02*
X55704400Y-144079200D01*
X55704400Y-124279200D02*
X49104400Y-124279200D01*
X46704400Y-124279200D02*
X40104400Y-124279200D01*
%TO.C,ESL1*%
X251794400Y-133221200D02*
X251794400Y-129221200D01*
X255394400Y-133221200D02*
X251794400Y-133221200D01*
X255394400Y-129221200D02*
X255394400Y-133221200D01*
X251794400Y-129221200D02*
X255394400Y-129221200D01*
X251794400Y-133221200D02*
X255394400Y-129221200D01*
X251794400Y-131221200D02*
X247594400Y-131221200D01*
X259594400Y-131221200D02*
X255394400Y-131221200D01*
X253594400Y-127821200D02*
X249994400Y-127821200D01*
X253594400Y-134621200D02*
X249994400Y-134621200D01*
X249994400Y-134621200D02*
X249994400Y-127821200D01*
X253594400Y-136121200D02*
X256094400Y-140721200D01*
X253594400Y-134621200D02*
X253594400Y-136121200D01*
X259594400Y-131221200D02*
X259594400Y-128721200D01*
X253594400Y-127821200D02*
X253594400Y-127021200D01*
X247594400Y-128721200D02*
X247594400Y-131221200D01*
X257844400Y-139321200D02*
X255344400Y-139321200D01*
X249444400Y-139321200D02*
X251894400Y-139321200D01*
X245844400Y-143571200D02*
X245844400Y-123771200D01*
X261444400Y-143571200D02*
X245844400Y-143571200D01*
X261444400Y-123771200D02*
X261444400Y-143571200D01*
X261444400Y-123771200D02*
X254844400Y-123771200D01*
X252444400Y-123771200D02*
X245844400Y-123771200D01*
%TO.C,ESR1*%
X91916400Y-123517200D02*
X85316400Y-123517200D01*
X100916400Y-123517200D02*
X94316400Y-123517200D01*
X100916400Y-123517200D02*
X100916400Y-143317200D01*
X100916400Y-143317200D02*
X85316400Y-143317200D01*
X85316400Y-143317200D02*
X85316400Y-123517200D01*
X88916400Y-139067200D02*
X91366400Y-139067200D01*
X97316400Y-139067200D02*
X94816400Y-139067200D01*
X87066400Y-128467200D02*
X87066400Y-130967200D01*
X93066400Y-127567200D02*
X93066400Y-126767200D01*
X99066400Y-130967200D02*
X99066400Y-128467200D01*
X93066400Y-134367200D02*
X93066400Y-135867200D01*
X93066400Y-135867200D02*
X95566400Y-140467200D01*
X89466400Y-134367200D02*
X89466400Y-127567200D01*
X93066400Y-134367200D02*
X89466400Y-134367200D01*
X93066400Y-127567200D02*
X89466400Y-127567200D01*
X99066400Y-130967200D02*
X94866400Y-130967200D01*
X91266400Y-130967200D02*
X87066400Y-130967200D01*
X91266400Y-132967200D02*
X94866400Y-128967200D01*
X91266400Y-128967200D02*
X94866400Y-128967200D01*
X94866400Y-128967200D02*
X94866400Y-132967200D01*
X94866400Y-132967200D02*
X91266400Y-132967200D01*
X91266400Y-132967200D02*
X91266400Y-128967200D01*
%TO.C,EST1*%
X114126400Y-132967200D02*
X114126400Y-128967200D01*
X117726400Y-132967200D02*
X114126400Y-132967200D01*
X117726400Y-128967200D02*
X117726400Y-132967200D01*
X114126400Y-128967200D02*
X117726400Y-128967200D01*
X114126400Y-132967200D02*
X117726400Y-128967200D01*
X114126400Y-130967200D02*
X109926400Y-130967200D01*
X121926400Y-130967200D02*
X117726400Y-130967200D01*
X115926400Y-127567200D02*
X112326400Y-127567200D01*
X115926400Y-134367200D02*
X112326400Y-134367200D01*
X112326400Y-134367200D02*
X112326400Y-127567200D01*
X115926400Y-135867200D02*
X118426400Y-140467200D01*
X115926400Y-134367200D02*
X115926400Y-135867200D01*
X121926400Y-130967200D02*
X121926400Y-128467200D01*
X115926400Y-127567200D02*
X115926400Y-126767200D01*
X109926400Y-128467200D02*
X109926400Y-130967200D01*
X120176400Y-139067200D02*
X117676400Y-139067200D01*
X111776400Y-139067200D02*
X114226400Y-139067200D01*
X108176400Y-143317200D02*
X108176400Y-123517200D01*
X123776400Y-143317200D02*
X108176400Y-143317200D01*
X123776400Y-123517200D02*
X123776400Y-143317200D01*
X123776400Y-123517200D02*
X117176400Y-123517200D01*
X114776400Y-123517200D02*
X108176400Y-123517200D01*
%TO.C,F1*%
X93035000Y-58134200D02*
X86035000Y-58134200D01*
X86035000Y-58134200D02*
X86035000Y-48384200D01*
X93035000Y-48384200D02*
X86035000Y-48384200D01*
X93035000Y-58134200D02*
X93035000Y-48384200D01*
X92035000Y-49384200D02*
X87035000Y-49384200D01*
X86035000Y-74384200D02*
X86035000Y-73384200D01*
X93035000Y-74384200D02*
X86035000Y-74384200D01*
X93035000Y-74384200D02*
X93035000Y-73384200D01*
X92035000Y-73384200D02*
X87035000Y-73384200D01*
X92035000Y-73384200D02*
X92035000Y-62634200D01*
X87035000Y-73384200D02*
X87035000Y-62884200D01*
X92035000Y-62634200D02*
X92035000Y-50884200D01*
X87035000Y-62884200D02*
X87035000Y-50634200D01*
X92035000Y-50884200D02*
X92035000Y-49384200D01*
X87035000Y-50634200D02*
X87035000Y-49384200D01*
X93035000Y-73384200D02*
X93035000Y-64634200D01*
X86035000Y-73384200D02*
X86035000Y-64634200D01*
X93035000Y-64634200D02*
X86035000Y-64634200D01*
X89535000Y-64634200D02*
X89535000Y-58134200D01*
%TO.C,J13*%
X97646200Y-13698600D02*
X97146200Y-14198600D01*
X97646200Y-14698600D02*
X97646200Y-13698600D01*
X97146200Y-14198600D02*
X97646200Y-14698600D01*
X80206200Y-6788600D02*
X88566200Y-6788600D01*
X80206200Y-19108600D02*
X80206200Y-6788600D01*
X88566200Y-19108600D02*
X80206200Y-19108600D01*
X96926200Y-6788600D02*
X92666200Y-6788600D01*
X96926200Y-19108600D02*
X96926200Y-6788600D01*
X92666200Y-19108600D02*
X96926200Y-19108600D01*
%TO.C,MP1*%
X181944400Y-132967200D02*
X181944400Y-128967200D01*
X185544400Y-132967200D02*
X181944400Y-132967200D01*
X185544400Y-128967200D02*
X185544400Y-132967200D01*
X181944400Y-128967200D02*
X185544400Y-128967200D01*
X181944400Y-132967200D02*
X185544400Y-128967200D01*
X181944400Y-130967200D02*
X177744400Y-130967200D01*
X189744400Y-130967200D02*
X185544400Y-130967200D01*
X183744400Y-127567200D02*
X180144400Y-127567200D01*
X183744400Y-134367200D02*
X180144400Y-134367200D01*
X180144400Y-134367200D02*
X180144400Y-127567200D01*
X183744400Y-135867200D02*
X186244400Y-140467200D01*
X183744400Y-134367200D02*
X183744400Y-135867200D01*
X189744400Y-130967200D02*
X189744400Y-128467200D01*
X183744400Y-127567200D02*
X183744400Y-126767200D01*
X177744400Y-128467200D02*
X177744400Y-130967200D01*
X187994400Y-139067200D02*
X185494400Y-139067200D01*
X179594400Y-139067200D02*
X182044400Y-139067200D01*
X175994400Y-143317200D02*
X175994400Y-123517200D01*
X191594400Y-143317200D02*
X175994400Y-143317200D01*
X191594400Y-123517200D02*
X191594400Y-143317200D01*
X191594400Y-123517200D02*
X184994400Y-123517200D01*
X182594400Y-123517200D02*
X175994400Y-123517200D01*
%TO.C,Q1*%
X193354000Y-87239600D02*
X193354000Y-85589600D01*
X193354000Y-85589600D02*
X170374000Y-85589600D01*
X170374000Y-85589600D02*
X170374000Y-90889600D01*
X170374000Y-90889600D02*
X193354000Y-90889600D01*
X193354000Y-90889600D02*
X193354000Y-89239600D01*
X193354000Y-89239600D02*
G75*
G02*
X193354000Y-87239600I0J1000000D01*
G01*
%TO.C,Q2*%
X123504000Y-90635600D02*
X123504000Y-88985600D01*
X100524000Y-90635600D02*
X123504000Y-90635600D01*
X100524000Y-85335600D02*
X100524000Y-90635600D01*
X123504000Y-85335600D02*
X100524000Y-85335600D01*
X123504000Y-86985600D02*
X123504000Y-85335600D01*
X123504000Y-88985600D02*
G75*
G02*
X123504000Y-86985600I0J1000000D01*
G01*
%TO.C,R1*%
X151338400Y-118909200D02*
X151338400Y-114669200D01*
X164578400Y-118909200D02*
X164578400Y-114669200D01*
X164578400Y-114669200D02*
X151338400Y-114669200D01*
X164578400Y-118909200D02*
X151338400Y-118909200D01*
%TO.C,R1.1*%
X186856000Y-45352600D02*
X200096000Y-45352600D01*
X186856000Y-49592600D02*
X200096000Y-49592600D01*
X186856000Y-45352600D02*
X186856000Y-49592600D01*
X200096000Y-45352600D02*
X200096000Y-49592600D01*
%TO.C,R1.2*%
X186856000Y-37478600D02*
X200096000Y-37478600D01*
X186856000Y-41718600D02*
X200096000Y-41718600D01*
X186856000Y-37478600D02*
X186856000Y-41718600D01*
X200096000Y-37478600D02*
X200096000Y-41718600D01*
%TO.C,R2*%
X186930400Y-118655200D02*
X173690400Y-118655200D01*
X186930400Y-114415200D02*
X173690400Y-114415200D01*
X186930400Y-118655200D02*
X186930400Y-114415200D01*
X173690400Y-118655200D02*
X173690400Y-114415200D01*
%TO.C,R3*%
X179158000Y-15810600D02*
X165918000Y-15810600D01*
X179158000Y-11570600D02*
X165918000Y-11570600D01*
X179158000Y-15810600D02*
X179158000Y-11570600D01*
X165918000Y-15810600D02*
X165918000Y-11570600D01*
%TO.C,R4*%
X142480400Y-118655200D02*
X129240400Y-118655200D01*
X142480400Y-114415200D02*
X129240400Y-114415200D01*
X142480400Y-118655200D02*
X142480400Y-114415200D01*
X129240400Y-118655200D02*
X129240400Y-114415200D01*
%TO.C,R5*%
X196042400Y-118655200D02*
X196042400Y-114415200D01*
X209282400Y-118655200D02*
X209282400Y-114415200D01*
X209282400Y-114415200D02*
X196042400Y-114415200D01*
X209282400Y-118655200D02*
X196042400Y-118655200D01*
%TO.C,R6*%
X118858400Y-118909200D02*
X105618400Y-118909200D01*
X118858400Y-114669200D02*
X105618400Y-114669200D01*
X118858400Y-118909200D02*
X118858400Y-114669200D01*
X105618400Y-118909200D02*
X105618400Y-114669200D01*
%TO.C,R7*%
X220172400Y-118147200D02*
X220172400Y-113907200D01*
X233412400Y-118147200D02*
X233412400Y-113907200D01*
X233412400Y-113907200D02*
X220172400Y-113907200D01*
X233412400Y-118147200D02*
X220172400Y-118147200D01*
%TO.C,R8*%
X82504400Y-118655200D02*
X82504400Y-114415200D01*
X95744400Y-118655200D02*
X95744400Y-114415200D01*
X95744400Y-114415200D02*
X82504400Y-114415200D01*
X95744400Y-118655200D02*
X82504400Y-118655200D01*
%TO.C,R9*%
X256780400Y-117893200D02*
X243540400Y-117893200D01*
X256780400Y-113653200D02*
X243540400Y-113653200D01*
X256780400Y-117893200D02*
X256780400Y-113653200D01*
X243540400Y-117893200D02*
X243540400Y-113653200D01*
%TO.C,R10*%
X59390400Y-118655200D02*
X59390400Y-114415200D01*
X72630400Y-118655200D02*
X72630400Y-114415200D01*
X72630400Y-114415200D02*
X59390400Y-114415200D01*
X72630400Y-118655200D02*
X59390400Y-118655200D01*
%TO.C,R11*%
X36784400Y-118655200D02*
X36784400Y-114415200D01*
X50024400Y-118655200D02*
X50024400Y-114415200D01*
X50024400Y-114415200D02*
X36784400Y-114415200D01*
X50024400Y-118655200D02*
X36784400Y-118655200D01*
%TO.C,R12*%
X163792800Y-42042200D02*
X168032800Y-42042200D01*
X163792800Y-55282200D02*
X168032800Y-55282200D01*
X168032800Y-55282200D02*
X168032800Y-42042200D01*
X163792800Y-55282200D02*
X163792800Y-42042200D01*
%TO.C,Rb1*%
X201842000Y-36352600D02*
X206082000Y-36352600D01*
X201842000Y-49592600D02*
X206082000Y-49592600D01*
X206082000Y-49592600D02*
X206082000Y-36352600D01*
X201842000Y-49592600D02*
X201842000Y-36352600D01*
%TO.C,Rf1*%
X200240000Y-12000600D02*
X187000000Y-12000600D01*
X200240000Y-7760600D02*
X187000000Y-7760600D01*
X200240000Y-12000600D02*
X200240000Y-7760600D01*
X187000000Y-12000600D02*
X187000000Y-7760600D01*
%TO.C,Rg1*%
X186746000Y-33590600D02*
X186746000Y-29350600D01*
X199986000Y-33590600D02*
X199986000Y-29350600D01*
X199986000Y-29350600D02*
X186746000Y-29350600D01*
X199986000Y-33590600D02*
X186746000Y-33590600D01*
%TO.C,SEC1*%
X68294400Y-124025200D02*
X61694400Y-124025200D01*
X77294400Y-124025200D02*
X70694400Y-124025200D01*
X77294400Y-124025200D02*
X77294400Y-143825200D01*
X77294400Y-143825200D02*
X61694400Y-143825200D01*
X61694400Y-143825200D02*
X61694400Y-124025200D01*
X65294400Y-139575200D02*
X67744400Y-139575200D01*
X73694400Y-139575200D02*
X71194400Y-139575200D01*
X63444400Y-128975200D02*
X63444400Y-131475200D01*
X69444400Y-128075200D02*
X69444400Y-127275200D01*
X75444400Y-131475200D02*
X75444400Y-128975200D01*
X69444400Y-134875200D02*
X69444400Y-136375200D01*
X69444400Y-136375200D02*
X71944400Y-140975200D01*
X65844400Y-134875200D02*
X65844400Y-128075200D01*
X69444400Y-134875200D02*
X65844400Y-134875200D01*
X69444400Y-128075200D02*
X65844400Y-128075200D01*
X75444400Y-131475200D02*
X71244400Y-131475200D01*
X67644400Y-131475200D02*
X63444400Y-131475200D01*
X67644400Y-133475200D02*
X71244400Y-129475200D01*
X67644400Y-129475200D02*
X71244400Y-129475200D01*
X71244400Y-129475200D02*
X71244400Y-133475200D01*
X71244400Y-133475200D02*
X67644400Y-133475200D01*
X67644400Y-133475200D02*
X67644400Y-129475200D01*
%TO.C,SP1*%
X159226400Y-123517200D02*
X152626400Y-123517200D01*
X168226400Y-123517200D02*
X161626400Y-123517200D01*
X168226400Y-123517200D02*
X168226400Y-143317200D01*
X168226400Y-143317200D02*
X152626400Y-143317200D01*
X152626400Y-143317200D02*
X152626400Y-123517200D01*
X156226400Y-139067200D02*
X158676400Y-139067200D01*
X164626400Y-139067200D02*
X162126400Y-139067200D01*
X154376400Y-128467200D02*
X154376400Y-130967200D01*
X160376400Y-127567200D02*
X160376400Y-126767200D01*
X166376400Y-130967200D02*
X166376400Y-128467200D01*
X160376400Y-134367200D02*
X160376400Y-135867200D01*
X160376400Y-135867200D02*
X162876400Y-140467200D01*
X156776400Y-134367200D02*
X156776400Y-127567200D01*
X160376400Y-134367200D02*
X156776400Y-134367200D01*
X160376400Y-127567200D02*
X156776400Y-127567200D01*
X166376400Y-130967200D02*
X162176400Y-130967200D01*
X158576400Y-130967200D02*
X154376400Y-130967200D01*
X158576400Y-132967200D02*
X162176400Y-128967200D01*
X158576400Y-128967200D02*
X162176400Y-128967200D01*
X162176400Y-128967200D02*
X162176400Y-132967200D01*
X162176400Y-132967200D02*
X158576400Y-132967200D01*
X158576400Y-132967200D02*
X158576400Y-128967200D01*
%TO.C,U1*%
X194294000Y-25688600D02*
X195944000Y-25688600D01*
X195944000Y-25688600D02*
X195944000Y-15408600D01*
X195944000Y-15408600D02*
X190644000Y-15408600D01*
X190644000Y-15408600D02*
X190644000Y-25688600D01*
X190644000Y-25688600D02*
X192294000Y-25688600D01*
X192294000Y-25688600D02*
G75*
G02*
X194294000Y-25688600I1000000J0D01*
G01*
%TO.C,U2*%
X190644000Y-4352600D02*
X192294000Y-4352600D01*
X190644000Y5927400D02*
X190644000Y-4352600D01*
X195944000Y5927400D02*
X190644000Y5927400D01*
X195944000Y-4352600D02*
X195944000Y5927400D01*
X194294000Y-4352600D02*
X195944000Y-4352600D01*
X192294000Y-4352600D02*
G75*
G02*
X194294000Y-4352600I1000000J0D01*
G01*
%TO.C,U3*%
X95690200Y18627400D02*
X94040200Y18627400D01*
X95690200Y-1812600D02*
X95690200Y18627400D01*
X90390200Y-1812600D02*
X95690200Y-1812600D01*
X90390200Y18627400D02*
X90390200Y-1812600D01*
X92040200Y18627400D02*
X90390200Y18627400D01*
X94040200Y18627400D02*
G75*
G02*
X92040200Y18627400I-1000000J0D01*
G01*
%TO.C,REF\u002A\u002A*%
D10*
X271462666Y-86436580D02*
X271129333Y-85960390D01*
X270891238Y-86436580D02*
X270891238Y-85436580D01*
X271272190Y-85436580D01*
X271367428Y-85484200D01*
X271415047Y-85531819D01*
X271462666Y-85627057D01*
X271462666Y-85769914D01*
X271415047Y-85865152D01*
X271367428Y-85912771D01*
X271272190Y-85960390D01*
X270891238Y-85960390D01*
X271891238Y-85912771D02*
X272224571Y-85912771D01*
X272367428Y-86436580D02*
X271891238Y-86436580D01*
X271891238Y-85436580D01*
X272367428Y-85436580D01*
X273129333Y-85912771D02*
X272796000Y-85912771D01*
X272796000Y-86436580D02*
X272796000Y-85436580D01*
X273272190Y-85436580D01*
X273796000Y-85436580D02*
X273796000Y-85674676D01*
X273557904Y-85579438D02*
X273796000Y-85674676D01*
X274034095Y-85579438D01*
X273653142Y-85865152D02*
X273796000Y-85674676D01*
X273938857Y-85865152D01*
X274557904Y-85436580D02*
X274557904Y-85674676D01*
X274319809Y-85579438D02*
X274557904Y-85674676D01*
X274796000Y-85579438D01*
X274415047Y-85865152D02*
X274557904Y-85674676D01*
X274700761Y-85865152D01*
X271462666Y-162611180D02*
X271129333Y-162134990D01*
X270891238Y-162611180D02*
X270891238Y-161611180D01*
X271272190Y-161611180D01*
X271367428Y-161658800D01*
X271415047Y-161706419D01*
X271462666Y-161801657D01*
X271462666Y-161944514D01*
X271415047Y-162039752D01*
X271367428Y-162087371D01*
X271272190Y-162134990D01*
X270891238Y-162134990D01*
X271891238Y-162087371D02*
X272224571Y-162087371D01*
X272367428Y-162611180D02*
X271891238Y-162611180D01*
X271891238Y-161611180D01*
X272367428Y-161611180D01*
X273129333Y-162087371D02*
X272796000Y-162087371D01*
X272796000Y-162611180D02*
X272796000Y-161611180D01*
X273272190Y-161611180D01*
X273796000Y-161611180D02*
X273796000Y-161849276D01*
X273557904Y-161754038D02*
X273796000Y-161849276D01*
X274034095Y-161754038D01*
X273653142Y-162039752D02*
X273796000Y-161849276D01*
X273938857Y-162039752D01*
X274557904Y-161611180D02*
X274557904Y-161849276D01*
X274319809Y-161754038D02*
X274557904Y-161849276D01*
X274796000Y-161754038D01*
X274415047Y-162039752D02*
X274557904Y-161849276D01*
X274700761Y-162039752D01*
%TO.C,XA1*%
X104735380Y24593704D02*
X105735380Y25260371D01*
X104735380Y25260371D02*
X105735380Y24593704D01*
X105449666Y25593704D02*
X105449666Y26069895D01*
X105735380Y25498466D02*
X104735380Y25831800D01*
X105735380Y26165133D01*
X105735380Y27022276D02*
X105735380Y26450847D01*
X105735380Y26736561D02*
X104735380Y26736561D01*
X104878238Y26641323D01*
X104973476Y26546085D01*
X105021095Y26450847D01*
X105449666Y3401609D02*
X105449666Y3877800D01*
X105735380Y3306371D02*
X104735380Y3639704D01*
X105735380Y3973038D01*
X105735380Y4306371D02*
X105068714Y4306371D01*
X105259190Y4306371D02*
X105163952Y4353990D01*
X105116333Y4401609D01*
X105068714Y4496847D01*
X105068714Y4592085D01*
X105735380Y5353990D02*
X104735380Y5353990D01*
X105687761Y5353990D02*
X105735380Y5258752D01*
X105735380Y5068276D01*
X105687761Y4973038D01*
X105640142Y4925419D01*
X105544904Y4877800D01*
X105259190Y4877800D01*
X105163952Y4925419D01*
X105116333Y4973038D01*
X105068714Y5068276D01*
X105068714Y5258752D01*
X105116333Y5353990D01*
X105068714Y6258752D02*
X105735380Y6258752D01*
X105068714Y5830180D02*
X105592523Y5830180D01*
X105687761Y5877800D01*
X105735380Y5973038D01*
X105735380Y6115895D01*
X105687761Y6211133D01*
X105640142Y6258752D01*
X105735380Y6734942D02*
X105068714Y6734942D01*
X104735380Y6734942D02*
X104783000Y6687323D01*
X104830619Y6734942D01*
X104783000Y6782561D01*
X104735380Y6734942D01*
X104830619Y6734942D01*
X105068714Y7211133D02*
X105735380Y7211133D01*
X105163952Y7211133D02*
X105116333Y7258752D01*
X105068714Y7353990D01*
X105068714Y7496847D01*
X105116333Y7592085D01*
X105211571Y7639704D01*
X105735380Y7639704D01*
X105735380Y8258752D02*
X105687761Y8163514D01*
X105640142Y8115895D01*
X105544904Y8068276D01*
X105259190Y8068276D01*
X105163952Y8115895D01*
X105116333Y8163514D01*
X105068714Y8258752D01*
X105068714Y8401609D01*
X105116333Y8496847D01*
X105163952Y8544466D01*
X105259190Y8592085D01*
X105544904Y8592085D01*
X105640142Y8544466D01*
X105687761Y8496847D01*
X105735380Y8401609D01*
X105735380Y8258752D01*
X105830619Y8782561D02*
X105830619Y9544466D01*
X105735380Y9782561D02*
X104735380Y9782561D01*
X105449666Y10115895D01*
X104735380Y10449228D01*
X105735380Y10449228D01*
X105687761Y11306371D02*
X105735380Y11211133D01*
X105735380Y11020657D01*
X105687761Y10925419D01*
X105592523Y10877800D01*
X105211571Y10877800D01*
X105116333Y10925419D01*
X105068714Y11020657D01*
X105068714Y11211133D01*
X105116333Y11306371D01*
X105211571Y11353990D01*
X105306809Y11353990D01*
X105402047Y10877800D01*
X105068714Y12211133D02*
X105878238Y12211133D01*
X105973476Y12163514D01*
X106021095Y12115895D01*
X106068714Y12020657D01*
X106068714Y11877800D01*
X106021095Y11782561D01*
X105687761Y12211133D02*
X105735380Y12115895D01*
X105735380Y11925419D01*
X105687761Y11830180D01*
X105640142Y11782561D01*
X105544904Y11734942D01*
X105259190Y11734942D01*
X105163952Y11782561D01*
X105116333Y11830180D01*
X105068714Y11925419D01*
X105068714Y12115895D01*
X105116333Y12211133D01*
X105735380Y13115895D02*
X105211571Y13115895D01*
X105116333Y13068276D01*
X105068714Y12973038D01*
X105068714Y12782561D01*
X105116333Y12687323D01*
X105687761Y13115895D02*
X105735380Y13020657D01*
X105735380Y12782561D01*
X105687761Y12687323D01*
X105592523Y12639704D01*
X105497285Y12639704D01*
X105402047Y12687323D01*
X105354428Y12782561D01*
X105354428Y13020657D01*
X105306809Y13115895D01*
X104830619Y13544466D02*
X104783000Y13592085D01*
X104735380Y13687323D01*
X104735380Y13925419D01*
X104783000Y14020657D01*
X104830619Y14068276D01*
X104925857Y14115895D01*
X105021095Y14115895D01*
X105163952Y14068276D01*
X105735380Y13496847D01*
X105735380Y14115895D01*
X104735380Y15020657D02*
X104735380Y14544466D01*
X105211571Y14496847D01*
X105163952Y14544466D01*
X105116333Y14639704D01*
X105116333Y14877800D01*
X105163952Y14973038D01*
X105211571Y15020657D01*
X105306809Y15068276D01*
X105544904Y15068276D01*
X105640142Y15020657D01*
X105687761Y14973038D01*
X105735380Y14877800D01*
X105735380Y14639704D01*
X105687761Y14544466D01*
X105640142Y14496847D01*
X104735380Y15925419D02*
X104735380Y15734942D01*
X104783000Y15639704D01*
X104830619Y15592085D01*
X104973476Y15496847D01*
X105163952Y15449228D01*
X105544904Y15449228D01*
X105640142Y15496847D01*
X105687761Y15544466D01*
X105735380Y15639704D01*
X105735380Y15830180D01*
X105687761Y15925419D01*
X105640142Y15973038D01*
X105544904Y16020657D01*
X105306809Y16020657D01*
X105211571Y15973038D01*
X105163952Y15925419D01*
X105116333Y15830180D01*
X105116333Y15639704D01*
X105163952Y15544466D01*
X105211571Y15496847D01*
X105306809Y15449228D01*
X104735380Y16639704D02*
X104735380Y16734942D01*
X104783000Y16830180D01*
X104830619Y16877799D01*
X104925857Y16925419D01*
X105116333Y16973038D01*
X105354428Y16973038D01*
X105544904Y16925419D01*
X105640142Y16877799D01*
X105687761Y16830180D01*
X105735380Y16734942D01*
X105735380Y16639704D01*
X105687761Y16544466D01*
X105640142Y16496847D01*
X105544904Y16449228D01*
X105354428Y16401609D01*
X105116333Y16401609D01*
X104925857Y16449228D01*
X104830619Y16496847D01*
X104783000Y16544466D01*
X104735380Y16639704D01*
X105830619Y17163514D02*
X105830619Y17925419D01*
X105687761Y18115895D02*
X105735380Y18258752D01*
X105735380Y18496847D01*
X105687761Y18592085D01*
X105640142Y18639704D01*
X105544904Y18687323D01*
X105449666Y18687323D01*
X105354428Y18639704D01*
X105306809Y18592085D01*
X105259190Y18496847D01*
X105211571Y18306371D01*
X105163952Y18211133D01*
X105116333Y18163514D01*
X105021095Y18115895D01*
X104925857Y18115895D01*
X104830619Y18163514D01*
X104783000Y18211133D01*
X104735380Y18306371D01*
X104735380Y18544466D01*
X104783000Y18687323D01*
X105735380Y19115895D02*
X104735380Y19115895D01*
X105735380Y19544466D02*
X105211571Y19544466D01*
X105116333Y19496847D01*
X105068714Y19401609D01*
X105068714Y19258752D01*
X105116333Y19163514D01*
X105163952Y19115895D01*
X105735380Y20020657D02*
X105068714Y20020657D01*
X104735380Y20020657D02*
X104783000Y19973038D01*
X104830619Y20020657D01*
X104783000Y20068276D01*
X104735380Y20020657D01*
X104830619Y20020657D01*
X105687761Y20877799D02*
X105735380Y20782561D01*
X105735380Y20592085D01*
X105687761Y20496847D01*
X105592523Y20449228D01*
X105211571Y20449228D01*
X105116333Y20496847D01*
X105068714Y20592085D01*
X105068714Y20782561D01*
X105116333Y20877799D01*
X105211571Y20925419D01*
X105306809Y20925419D01*
X105402047Y20449228D01*
X105735380Y21496847D02*
X105687761Y21401609D01*
X105592523Y21353990D01*
X104735380Y21353990D01*
X105735380Y22306371D02*
X104735380Y22306371D01*
X105687761Y22306371D02*
X105735380Y22211133D01*
X105735380Y22020657D01*
X105687761Y21925419D01*
X105640142Y21877799D01*
X105544904Y21830180D01*
X105259190Y21830180D01*
X105163952Y21877799D01*
X105116333Y21925419D01*
X105068714Y22020657D01*
X105068714Y22211133D01*
X105116333Y22306371D01*
X127992142Y-34112200D02*
X128039761Y-34064580D01*
X128087380Y-34112200D01*
X128039761Y-34159819D01*
X127992142Y-34112200D01*
X128087380Y-34112200D01*
%TO.C,REF\u002A\u002A*%
X27267066Y-86436580D02*
X26933733Y-85960390D01*
X26695638Y-86436580D02*
X26695638Y-85436580D01*
X27076590Y-85436580D01*
X27171828Y-85484200D01*
X27219447Y-85531819D01*
X27267066Y-85627057D01*
X27267066Y-85769914D01*
X27219447Y-85865152D01*
X27171828Y-85912771D01*
X27076590Y-85960390D01*
X26695638Y-85960390D01*
X27695638Y-85912771D02*
X28028971Y-85912771D01*
X28171828Y-86436580D02*
X27695638Y-86436580D01*
X27695638Y-85436580D01*
X28171828Y-85436580D01*
X28933733Y-85912771D02*
X28600400Y-85912771D01*
X28600400Y-86436580D02*
X28600400Y-85436580D01*
X29076590Y-85436580D01*
X29600400Y-85436580D02*
X29600400Y-85674676D01*
X29362304Y-85579438D02*
X29600400Y-85674676D01*
X29838495Y-85579438D01*
X29457542Y-85865152D02*
X29600400Y-85674676D01*
X29743257Y-85865152D01*
X30362304Y-85436580D02*
X30362304Y-85674676D01*
X30124209Y-85579438D02*
X30362304Y-85674676D01*
X30600400Y-85579438D01*
X30219447Y-85865152D02*
X30362304Y-85674676D01*
X30505161Y-85865152D01*
X27267066Y-162611180D02*
X26933733Y-162134990D01*
X26695638Y-162611180D02*
X26695638Y-161611180D01*
X27076590Y-161611180D01*
X27171828Y-161658800D01*
X27219447Y-161706419D01*
X27267066Y-161801657D01*
X27267066Y-161944514D01*
X27219447Y-162039752D01*
X27171828Y-162087371D01*
X27076590Y-162134990D01*
X26695638Y-162134990D01*
X27695638Y-162087371D02*
X28028971Y-162087371D01*
X28171828Y-162611180D02*
X27695638Y-162611180D01*
X27695638Y-161611180D01*
X28171828Y-161611180D01*
X28933733Y-162087371D02*
X28600400Y-162087371D01*
X28600400Y-162611180D02*
X28600400Y-161611180D01*
X29076590Y-161611180D01*
X29600400Y-161611180D02*
X29600400Y-161849276D01*
X29362304Y-161754038D02*
X29600400Y-161849276D01*
X29838495Y-161754038D01*
X29457542Y-162039752D02*
X29600400Y-161849276D01*
X29743257Y-162039752D01*
X30362304Y-161611180D02*
X30362304Y-161849276D01*
X30124209Y-161754038D02*
X30362304Y-161849276D01*
X30600400Y-161754038D01*
X30219447Y-162039752D02*
X30362304Y-161849276D01*
X30505161Y-162039752D01*
X72987066Y22885019D02*
X72653733Y23361209D01*
X72415638Y22885019D02*
X72415638Y23885019D01*
X72796590Y23885019D01*
X72891828Y23837400D01*
X72939447Y23789780D01*
X72987066Y23694542D01*
X72987066Y23551685D01*
X72939447Y23456447D01*
X72891828Y23408828D01*
X72796590Y23361209D01*
X72415638Y23361209D01*
X73415638Y23408828D02*
X73748971Y23408828D01*
X73891828Y22885019D02*
X73415638Y22885019D01*
X73415638Y23885019D01*
X73891828Y23885019D01*
X74653733Y23408828D02*
X74320400Y23408828D01*
X74320400Y22885019D02*
X74320400Y23885019D01*
X74796590Y23885019D01*
X75320400Y23885019D02*
X75320400Y23646923D01*
X75082304Y23742161D02*
X75320400Y23646923D01*
X75558495Y23742161D01*
X75177542Y23456447D02*
X75320400Y23646923D01*
X75463257Y23456447D01*
X76082304Y23885019D02*
X76082304Y23646923D01*
X75844209Y23742161D02*
X76082304Y23646923D01*
X76320400Y23742161D01*
X75939447Y23456447D02*
X76082304Y23646923D01*
X76225161Y23456447D01*
X225895066Y22935819D02*
X225561733Y23412009D01*
X225323638Y22935819D02*
X225323638Y23935819D01*
X225704590Y23935819D01*
X225799828Y23888200D01*
X225847447Y23840580D01*
X225895066Y23745342D01*
X225895066Y23602485D01*
X225847447Y23507247D01*
X225799828Y23459628D01*
X225704590Y23412009D01*
X225323638Y23412009D01*
X226323638Y23459628D02*
X226656971Y23459628D01*
X226799828Y22935819D02*
X226323638Y22935819D01*
X226323638Y23935819D01*
X226799828Y23935819D01*
X227561733Y23459628D02*
X227228400Y23459628D01*
X227228400Y22935819D02*
X227228400Y23935819D01*
X227704590Y23935819D01*
X228228400Y23935819D02*
X228228400Y23697723D01*
X227990304Y23792961D02*
X228228400Y23697723D01*
X228466495Y23792961D01*
X228085542Y23507247D02*
X228228400Y23697723D01*
X228371257Y23507247D01*
X228990304Y23935819D02*
X228990304Y23697723D01*
X228752209Y23792961D02*
X228990304Y23697723D01*
X229228400Y23792961D01*
X228847447Y23507247D02*
X228990304Y23697723D01*
X229133161Y23507247D01*
%TO.C,J4*%
X169140180Y3773266D02*
X169854466Y3773266D01*
X169997323Y3725647D01*
X170092561Y3630409D01*
X170140180Y3487552D01*
X170140180Y3392314D01*
X169473514Y4678028D02*
X170140180Y4678028D01*
X169092561Y4439933D02*
X169806847Y4201838D01*
X169806847Y4820885D01*
%TO.C,Blanca1*%
X210158971Y-67389380D02*
X210206590Y-67246523D01*
X210254209Y-67198904D01*
X210349447Y-67151285D01*
X210492304Y-67151285D01*
X210587542Y-67198904D01*
X210635161Y-67246523D01*
X210682780Y-67341761D01*
X210682780Y-67722714D01*
X209682780Y-67722714D01*
X209682780Y-67389380D01*
X209730400Y-67294142D01*
X209778019Y-67246523D01*
X209873257Y-67198904D01*
X209968495Y-67198904D01*
X210063733Y-67246523D01*
X210111352Y-67294142D01*
X210158971Y-67389380D01*
X210158971Y-67722714D01*
X210682780Y-66579857D02*
X210635161Y-66675095D01*
X210539923Y-66722714D01*
X209682780Y-66722714D01*
X210682780Y-65770333D02*
X210158971Y-65770333D01*
X210063733Y-65817952D01*
X210016114Y-65913190D01*
X210016114Y-66103666D01*
X210063733Y-66198904D01*
X210635161Y-65770333D02*
X210682780Y-65865571D01*
X210682780Y-66103666D01*
X210635161Y-66198904D01*
X210539923Y-66246523D01*
X210444685Y-66246523D01*
X210349447Y-66198904D01*
X210301828Y-66103666D01*
X210301828Y-65865571D01*
X210254209Y-65770333D01*
X210016114Y-65294142D02*
X210682780Y-65294142D01*
X210111352Y-65294142D02*
X210063733Y-65246523D01*
X210016114Y-65151285D01*
X210016114Y-65008428D01*
X210063733Y-64913190D01*
X210158971Y-64865571D01*
X210682780Y-64865571D01*
X210635161Y-63960809D02*
X210682780Y-64056047D01*
X210682780Y-64246523D01*
X210635161Y-64341761D01*
X210587542Y-64389380D01*
X210492304Y-64437000D01*
X210206590Y-64437000D01*
X210111352Y-64389380D01*
X210063733Y-64341761D01*
X210016114Y-64246523D01*
X210016114Y-64056047D01*
X210063733Y-63960809D01*
X210682780Y-63103666D02*
X210158971Y-63103666D01*
X210063733Y-63151285D01*
X210016114Y-63246523D01*
X210016114Y-63437000D01*
X210063733Y-63532238D01*
X210635161Y-63103666D02*
X210682780Y-63198904D01*
X210682780Y-63437000D01*
X210635161Y-63532238D01*
X210539923Y-63579857D01*
X210444685Y-63579857D01*
X210349447Y-63532238D01*
X210301828Y-63437000D01*
X210301828Y-63198904D01*
X210254209Y-63103666D01*
X210682780Y-62103666D02*
X210682780Y-62675095D01*
X210682780Y-62389380D02*
X209682780Y-62389380D01*
X209825638Y-62484619D01*
X209920876Y-62579857D01*
X209968495Y-62675095D01*
%TO.C,T_EX1*%
X209682780Y-7024428D02*
X209682780Y-6453000D01*
X210682780Y-6738714D02*
X209682780Y-6738714D01*
X210778019Y-6357761D02*
X210778019Y-5595857D01*
X210158971Y-5357761D02*
X210158971Y-5024428D01*
X210682780Y-4881571D02*
X210682780Y-5357761D01*
X209682780Y-5357761D01*
X209682780Y-4881571D01*
X209682780Y-4548238D02*
X210682780Y-3881571D01*
X209682780Y-3881571D02*
X210682780Y-4548238D01*
X210682780Y-2976809D02*
X210682780Y-3548238D01*
X210682780Y-3262523D02*
X209682780Y-3262523D01*
X209825638Y-3357761D01*
X209920876Y-3453000D01*
X209968495Y-3548238D01*
%TO.C,P_IN1*%
X210682780Y-23597952D02*
X209682780Y-23597952D01*
X209682780Y-23217000D01*
X209730400Y-23121761D01*
X209778019Y-23074142D01*
X209873257Y-23026523D01*
X210016114Y-23026523D01*
X210111352Y-23074142D01*
X210158971Y-23121761D01*
X210206590Y-23217000D01*
X210206590Y-23597952D01*
X210778019Y-22836047D02*
X210778019Y-22074142D01*
X210682780Y-21836047D02*
X209682780Y-21836047D01*
X210682780Y-21359857D02*
X209682780Y-21359857D01*
X210682780Y-20788428D01*
X209682780Y-20788428D01*
X210682780Y-19788428D02*
X210682780Y-20359857D01*
X210682780Y-20074142D02*
X209682780Y-20074142D01*
X209825638Y-20169380D01*
X209920876Y-20264619D01*
X209968495Y-20359857D01*
%TO.C,P_EX1*%
X210682780Y-40782619D02*
X209682780Y-40782619D01*
X209682780Y-40401666D01*
X209730400Y-40306428D01*
X209778019Y-40258809D01*
X209873257Y-40211190D01*
X210016114Y-40211190D01*
X210111352Y-40258809D01*
X210158971Y-40306428D01*
X210206590Y-40401666D01*
X210206590Y-40782619D01*
X210778019Y-40020714D02*
X210778019Y-39258809D01*
X210158971Y-39020714D02*
X210158971Y-38687380D01*
X210682780Y-38544523D02*
X210682780Y-39020714D01*
X209682780Y-39020714D01*
X209682780Y-38544523D01*
X209682780Y-38211190D02*
X210682780Y-37544523D01*
X209682780Y-37544523D02*
X210682780Y-38211190D01*
X210682780Y-36639761D02*
X210682780Y-37211190D01*
X210682780Y-36925476D02*
X209682780Y-36925476D01*
X209825638Y-37020714D01*
X209920876Y-37115952D01*
X209968495Y-37211190D01*
%TO.C,Nivel1*%
X210682780Y-81192428D02*
X209682780Y-81192428D01*
X210682780Y-80621000D01*
X209682780Y-80621000D01*
X210682780Y-80144809D02*
X210016114Y-80144809D01*
X209682780Y-80144809D02*
X209730400Y-80192428D01*
X209778019Y-80144809D01*
X209730400Y-80097190D01*
X209682780Y-80144809D01*
X209778019Y-80144809D01*
X210016114Y-79763857D02*
X210682780Y-79525761D01*
X210016114Y-79287666D01*
X210635161Y-78525761D02*
X210682780Y-78621000D01*
X210682780Y-78811476D01*
X210635161Y-78906714D01*
X210539923Y-78954333D01*
X210158971Y-78954333D01*
X210063733Y-78906714D01*
X210016114Y-78811476D01*
X210016114Y-78621000D01*
X210063733Y-78525761D01*
X210158971Y-78478142D01*
X210254209Y-78478142D01*
X210349447Y-78954333D01*
X210682780Y-77906714D02*
X210635161Y-78001952D01*
X210539923Y-78049571D01*
X209682780Y-78049571D01*
X210682780Y-77001952D02*
X210682780Y-77573380D01*
X210682780Y-77287666D02*
X209682780Y-77287666D01*
X209825638Y-77382904D01*
X209920876Y-77478142D01*
X209968495Y-77573380D01*
%TO.C,J12*%
X47308876Y-148011580D02*
X47308876Y-148725866D01*
X47261257Y-148868723D01*
X47166019Y-148963961D01*
X47023161Y-149011580D01*
X46927923Y-149011580D01*
X48308876Y-149011580D02*
X47737447Y-149011580D01*
X48023161Y-149011580D02*
X48023161Y-148011580D01*
X47927923Y-148154438D01*
X47832685Y-148249676D01*
X47737447Y-148297295D01*
X48689828Y-148106819D02*
X48737447Y-148059200D01*
X48832685Y-148011580D01*
X49070780Y-148011580D01*
X49166019Y-148059200D01*
X49213638Y-148106819D01*
X49261257Y-148202057D01*
X49261257Y-148297295D01*
X49213638Y-148440152D01*
X48642209Y-149011580D01*
X49261257Y-149011580D01*
%TO.C,J11*%
X69660876Y-147757580D02*
X69660876Y-148471866D01*
X69613257Y-148614723D01*
X69518019Y-148709961D01*
X69375161Y-148757580D01*
X69279923Y-148757580D01*
X70660876Y-148757580D02*
X70089447Y-148757580D01*
X70375161Y-148757580D02*
X70375161Y-147757580D01*
X70279923Y-147900438D01*
X70184685Y-147995676D01*
X70089447Y-148043295D01*
X71613257Y-148757580D02*
X71041828Y-148757580D01*
X71327542Y-148757580D02*
X71327542Y-147757580D01*
X71232304Y-147900438D01*
X71137066Y-147995676D01*
X71041828Y-148043295D01*
%TO.C,J10*%
X252032876Y-148011580D02*
X252032876Y-148725866D01*
X251985257Y-148868723D01*
X251890019Y-148963961D01*
X251747161Y-149011580D01*
X251651923Y-149011580D01*
X253032876Y-149011580D02*
X252461447Y-149011580D01*
X252747161Y-149011580D02*
X252747161Y-148011580D01*
X252651923Y-148154438D01*
X252556685Y-148249676D01*
X252461447Y-148297295D01*
X253651923Y-148011580D02*
X253747161Y-148011580D01*
X253842400Y-148059200D01*
X253890019Y-148106819D01*
X253937638Y-148202057D01*
X253985257Y-148392533D01*
X253985257Y-148630628D01*
X253937638Y-148821104D01*
X253890019Y-148916342D01*
X253842400Y-148963961D01*
X253747161Y-149011580D01*
X253651923Y-149011580D01*
X253556685Y-148963961D01*
X253509066Y-148916342D01*
X253461447Y-148821104D01*
X253413828Y-148630628D01*
X253413828Y-148392533D01*
X253461447Y-148202057D01*
X253509066Y-148106819D01*
X253556685Y-148059200D01*
X253651923Y-148011580D01*
%TO.C,J9*%
X91981066Y-147757580D02*
X91981066Y-148471866D01*
X91933447Y-148614723D01*
X91838209Y-148709961D01*
X91695352Y-148757580D01*
X91600114Y-148757580D01*
X92504876Y-148757580D02*
X92695352Y-148757580D01*
X92790590Y-148709961D01*
X92838209Y-148662342D01*
X92933447Y-148519485D01*
X92981066Y-148329009D01*
X92981066Y-147948057D01*
X92933447Y-147852819D01*
X92885828Y-147805200D01*
X92790590Y-147757580D01*
X92600114Y-147757580D01*
X92504876Y-147805200D01*
X92457257Y-147852819D01*
X92409638Y-147948057D01*
X92409638Y-148186152D01*
X92457257Y-148281390D01*
X92504876Y-148329009D01*
X92600114Y-148376628D01*
X92790590Y-148376628D01*
X92885828Y-148329009D01*
X92933447Y-148281390D01*
X92981066Y-148186152D01*
%TO.C,J8*%
X229181066Y-148011580D02*
X229181066Y-148725866D01*
X229133447Y-148868723D01*
X229038209Y-148963961D01*
X228895352Y-149011580D01*
X228800114Y-149011580D01*
X229800114Y-148440152D02*
X229704876Y-148392533D01*
X229657257Y-148344914D01*
X229609638Y-148249676D01*
X229609638Y-148202057D01*
X229657257Y-148106819D01*
X229704876Y-148059200D01*
X229800114Y-148011580D01*
X229990590Y-148011580D01*
X230085828Y-148059200D01*
X230133447Y-148106819D01*
X230181066Y-148202057D01*
X230181066Y-148249676D01*
X230133447Y-148344914D01*
X230085828Y-148392533D01*
X229990590Y-148440152D01*
X229800114Y-148440152D01*
X229704876Y-148487771D01*
X229657257Y-148535390D01*
X229609638Y-148630628D01*
X229609638Y-148821104D01*
X229657257Y-148916342D01*
X229704876Y-148963961D01*
X229800114Y-149011580D01*
X229990590Y-149011580D01*
X230085828Y-148963961D01*
X230133447Y-148916342D01*
X230181066Y-148821104D01*
X230181066Y-148630628D01*
X230133447Y-148535390D01*
X230085828Y-148487771D01*
X229990590Y-148440152D01*
%TO.C,J7*%
X115095066Y-147757580D02*
X115095066Y-148471866D01*
X115047447Y-148614723D01*
X114952209Y-148709961D01*
X114809352Y-148757580D01*
X114714114Y-148757580D01*
X115476019Y-147757580D02*
X116142685Y-147757580D01*
X115714114Y-148757580D01*
%TO.C,J6*%
X207297066Y-148011580D02*
X207297066Y-148725866D01*
X207249447Y-148868723D01*
X207154209Y-148963961D01*
X207011352Y-149011580D01*
X206916114Y-149011580D01*
X208201828Y-148011580D02*
X208011352Y-148011580D01*
X207916114Y-148059200D01*
X207868495Y-148106819D01*
X207773257Y-148249676D01*
X207725638Y-148440152D01*
X207725638Y-148821104D01*
X207773257Y-148916342D01*
X207820876Y-148963961D01*
X207916114Y-149011580D01*
X208106590Y-149011580D01*
X208201828Y-148963961D01*
X208249447Y-148916342D01*
X208297066Y-148821104D01*
X208297066Y-148583009D01*
X208249447Y-148487771D01*
X208201828Y-148440152D01*
X208106590Y-148392533D01*
X207916114Y-148392533D01*
X207820876Y-148440152D01*
X207773257Y-148487771D01*
X207725638Y-148583009D01*
%TO.C,J5*%
X138463066Y-147757580D02*
X138463066Y-148471866D01*
X138415447Y-148614723D01*
X138320209Y-148709961D01*
X138177352Y-148757580D01*
X138082114Y-148757580D01*
X139415447Y-147757580D02*
X138939257Y-147757580D01*
X138891638Y-148233771D01*
X138939257Y-148186152D01*
X139034495Y-148138533D01*
X139272590Y-148138533D01*
X139367828Y-148186152D01*
X139415447Y-148233771D01*
X139463066Y-148329009D01*
X139463066Y-148567104D01*
X139415447Y-148662342D01*
X139367828Y-148709961D01*
X139272590Y-148757580D01*
X139034495Y-148757580D01*
X138939257Y-148709961D01*
X138891638Y-148662342D01*
%TO.C,J3*%
X183675066Y-147757580D02*
X183675066Y-148471866D01*
X183627447Y-148614723D01*
X183532209Y-148709961D01*
X183389352Y-148757580D01*
X183294114Y-148757580D01*
X184056019Y-147757580D02*
X184675066Y-147757580D01*
X184341733Y-148138533D01*
X184484590Y-148138533D01*
X184579828Y-148186152D01*
X184627447Y-148233771D01*
X184675066Y-148329009D01*
X184675066Y-148567104D01*
X184627447Y-148662342D01*
X184579828Y-148709961D01*
X184484590Y-148757580D01*
X184198876Y-148757580D01*
X184103638Y-148709961D01*
X184056019Y-148662342D01*
%TO.C,J2*%
X160815066Y-147757580D02*
X160815066Y-148471866D01*
X160767447Y-148614723D01*
X160672209Y-148709961D01*
X160529352Y-148757580D01*
X160434114Y-148757580D01*
X161243638Y-147852819D02*
X161291257Y-147805200D01*
X161386495Y-147757580D01*
X161624590Y-147757580D01*
X161719828Y-147805200D01*
X161767447Y-147852819D01*
X161815066Y-147948057D01*
X161815066Y-148043295D01*
X161767447Y-148186152D01*
X161196019Y-148757580D01*
X161815066Y-148757580D01*
%TO.C,J1*%
X94047380Y-37707533D02*
X94761666Y-37707533D01*
X94904523Y-37755152D01*
X94999761Y-37850390D01*
X95047380Y-37993247D01*
X95047380Y-38088485D01*
X95047380Y-36707533D02*
X95047380Y-37278961D01*
X95047380Y-36993247D02*
X94047380Y-36993247D01*
X94190238Y-37088485D01*
X94285476Y-37183723D01*
X94333095Y-37278961D01*
%TO.C,Gris1*%
X209730400Y-54419666D02*
X209682780Y-54514904D01*
X209682780Y-54657761D01*
X209730400Y-54800619D01*
X209825638Y-54895857D01*
X209920876Y-54943476D01*
X210111352Y-54991095D01*
X210254209Y-54991095D01*
X210444685Y-54943476D01*
X210539923Y-54895857D01*
X210635161Y-54800619D01*
X210682780Y-54657761D01*
X210682780Y-54562523D01*
X210635161Y-54419666D01*
X210587542Y-54372047D01*
X210254209Y-54372047D01*
X210254209Y-54562523D01*
X210682780Y-53943476D02*
X210016114Y-53943476D01*
X210206590Y-53943476D02*
X210111352Y-53895857D01*
X210063733Y-53848238D01*
X210016114Y-53753000D01*
X210016114Y-53657761D01*
X210682780Y-53324428D02*
X210016114Y-53324428D01*
X209682780Y-53324428D02*
X209730400Y-53372047D01*
X209778019Y-53324428D01*
X209730400Y-53276809D01*
X209682780Y-53324428D01*
X209778019Y-53324428D01*
X210635161Y-52895857D02*
X210682780Y-52800619D01*
X210682780Y-52610142D01*
X210635161Y-52514904D01*
X210539923Y-52467285D01*
X210492304Y-52467285D01*
X210397066Y-52514904D01*
X210349447Y-52610142D01*
X210349447Y-52753000D01*
X210301828Y-52848238D01*
X210206590Y-52895857D01*
X210158971Y-52895857D01*
X210063733Y-52848238D01*
X210016114Y-52753000D01*
X210016114Y-52610142D01*
X210063733Y-52514904D01*
X210682780Y-51514904D02*
X210682780Y-52086333D01*
X210682780Y-51800619D02*
X209682780Y-51800619D01*
X209825638Y-51895857D01*
X209920876Y-51991095D01*
X209968495Y-52086333D01*
%TO.C,BMB1*%
X129564971Y-134493390D02*
X129612590Y-134350533D01*
X129660209Y-134302914D01*
X129755447Y-134255295D01*
X129898304Y-134255295D01*
X129993542Y-134302914D01*
X130041161Y-134350533D01*
X130088780Y-134445771D01*
X130088780Y-134826723D01*
X129088780Y-134826723D01*
X129088780Y-134493390D01*
X129136400Y-134398152D01*
X129184019Y-134350533D01*
X129279257Y-134302914D01*
X129374495Y-134302914D01*
X129469733Y-134350533D01*
X129517352Y-134398152D01*
X129564971Y-134493390D01*
X129564971Y-134826723D01*
X130088780Y-133826723D02*
X129088780Y-133826723D01*
X129803066Y-133493390D01*
X129088780Y-133160057D01*
X130088780Y-133160057D01*
X129564971Y-132350533D02*
X129612590Y-132207676D01*
X129660209Y-132160057D01*
X129755447Y-132112438D01*
X129898304Y-132112438D01*
X129993542Y-132160057D01*
X130041161Y-132207676D01*
X130088780Y-132302914D01*
X130088780Y-132683866D01*
X129088780Y-132683866D01*
X129088780Y-132350533D01*
X129136400Y-132255295D01*
X129184019Y-132207676D01*
X129279257Y-132160057D01*
X129374495Y-132160057D01*
X129469733Y-132207676D01*
X129517352Y-132255295D01*
X129564971Y-132350533D01*
X129564971Y-132683866D01*
X130088780Y-131160057D02*
X130088780Y-131731485D01*
X130088780Y-131445771D02*
X129088780Y-131445771D01*
X129231638Y-131541009D01*
X129326876Y-131636247D01*
X129374495Y-131731485D01*
%TO.C,Buzzer1*%
X135222571Y-90400361D02*
X135270190Y-90257504D01*
X135317809Y-90209885D01*
X135413047Y-90162266D01*
X135555904Y-90162266D01*
X135651142Y-90209885D01*
X135698761Y-90257504D01*
X135746380Y-90352742D01*
X135746380Y-90733695D01*
X134746380Y-90733695D01*
X134746380Y-90400361D01*
X134794000Y-90305123D01*
X134841619Y-90257504D01*
X134936857Y-90209885D01*
X135032095Y-90209885D01*
X135127333Y-90257504D01*
X135174952Y-90305123D01*
X135222571Y-90400361D01*
X135222571Y-90733695D01*
X135079714Y-89305123D02*
X135746380Y-89305123D01*
X135079714Y-89733695D02*
X135603523Y-89733695D01*
X135698761Y-89686076D01*
X135746380Y-89590838D01*
X135746380Y-89447980D01*
X135698761Y-89352742D01*
X135651142Y-89305123D01*
X135079714Y-88924171D02*
X135079714Y-88400361D01*
X135746380Y-88924171D01*
X135746380Y-88400361D01*
X135079714Y-88114647D02*
X135079714Y-87590838D01*
X135746380Y-88114647D01*
X135746380Y-87590838D01*
X135698761Y-86828933D02*
X135746380Y-86924171D01*
X135746380Y-87114647D01*
X135698761Y-87209885D01*
X135603523Y-87257504D01*
X135222571Y-87257504D01*
X135127333Y-87209885D01*
X135079714Y-87114647D01*
X135079714Y-86924171D01*
X135127333Y-86828933D01*
X135222571Y-86781314D01*
X135317809Y-86781314D01*
X135413047Y-87257504D01*
X135746380Y-86352742D02*
X135079714Y-86352742D01*
X135270190Y-86352742D02*
X135174952Y-86305123D01*
X135127333Y-86257504D01*
X135079714Y-86162266D01*
X135079714Y-86067028D01*
X135746380Y-85209885D02*
X135746380Y-85781314D01*
X135746380Y-85495600D02*
X134746380Y-85495600D01*
X134889238Y-85590838D01*
X134984476Y-85686076D01*
X135032095Y-85781314D01*
X144851428Y-84556552D02*
X144851428Y-83794647D01*
X145232380Y-84175600D02*
X144470476Y-84175600D01*
%TO.C,C1*%
X86741342Y5970733D02*
X86788961Y5923114D01*
X86836580Y5780257D01*
X86836580Y5685019D01*
X86788961Y5542161D01*
X86693723Y5446923D01*
X86598485Y5399304D01*
X86408009Y5351685D01*
X86265152Y5351685D01*
X86074676Y5399304D01*
X85979438Y5446923D01*
X85884200Y5542161D01*
X85836580Y5685019D01*
X85836580Y5780257D01*
X85884200Y5923114D01*
X85931819Y5970733D01*
X86836580Y6923114D02*
X86836580Y6351685D01*
X86836580Y6637400D02*
X85836580Y6637400D01*
X85979438Y6542161D01*
X86074676Y6446923D01*
X86122295Y6351685D01*
%TO.C,C2*%
X86741342Y128733D02*
X86788961Y81114D01*
X86836580Y-61742D01*
X86836580Y-156980D01*
X86788961Y-299838D01*
X86693723Y-395076D01*
X86598485Y-442695D01*
X86408009Y-490314D01*
X86265152Y-490314D01*
X86074676Y-442695D01*
X85979438Y-395076D01*
X85884200Y-299838D01*
X85836580Y-156980D01*
X85836580Y-61742D01*
X85884200Y81114D01*
X85931819Y128733D01*
X85931819Y509685D02*
X85884200Y557304D01*
X85836580Y652542D01*
X85836580Y890638D01*
X85884200Y985876D01*
X85931819Y1033495D01*
X86027057Y1081114D01*
X86122295Y1081114D01*
X86265152Y1033495D01*
X86836580Y462066D01*
X86836580Y1081114D01*
%TO.C,C3*%
X86741342Y11526733D02*
X86788961Y11479114D01*
X86836580Y11336257D01*
X86836580Y11241019D01*
X86788961Y11098161D01*
X86693723Y11002923D01*
X86598485Y10955304D01*
X86408009Y10907685D01*
X86265152Y10907685D01*
X86074676Y10955304D01*
X85979438Y11002923D01*
X85884200Y11098161D01*
X85836580Y11241019D01*
X85836580Y11336257D01*
X85884200Y11479114D01*
X85931819Y11526733D01*
X85836580Y11860066D02*
X85836580Y12479114D01*
X86217533Y12145780D01*
X86217533Y12288638D01*
X86265152Y12383876D01*
X86312771Y12431495D01*
X86408009Y12479114D01*
X86646104Y12479114D01*
X86741342Y12431495D01*
X86788961Y12383876D01*
X86836580Y12288638D01*
X86836580Y12002923D01*
X86788961Y11907685D01*
X86741342Y11860066D01*
%TO.C,C4*%
X86741342Y17400733D02*
X86788961Y17353114D01*
X86836580Y17210257D01*
X86836580Y17115019D01*
X86788961Y16972161D01*
X86693723Y16876923D01*
X86598485Y16829304D01*
X86408009Y16781685D01*
X86265152Y16781685D01*
X86074676Y16829304D01*
X85979438Y16876923D01*
X85884200Y16972161D01*
X85836580Y17115019D01*
X85836580Y17210257D01*
X85884200Y17353114D01*
X85931819Y17400733D01*
X86169914Y18257876D02*
X86836580Y18257876D01*
X85788961Y18019780D02*
X86503247Y17781685D01*
X86503247Y18400733D01*
%TO.C,Cf1*%
X203493619Y-6487742D02*
X203446000Y-6535361D01*
X203303142Y-6582980D01*
X203207904Y-6582980D01*
X203065047Y-6535361D01*
X202969809Y-6440123D01*
X202922190Y-6344885D01*
X202874571Y-6154409D01*
X202874571Y-6011552D01*
X202922190Y-5821076D01*
X202969809Y-5725838D01*
X203065047Y-5630600D01*
X203207904Y-5582980D01*
X203303142Y-5582980D01*
X203446000Y-5630600D01*
X203493619Y-5678219D01*
X203779333Y-5916314D02*
X204160285Y-5916314D01*
X203922190Y-6582980D02*
X203922190Y-5725838D01*
X203969809Y-5630600D01*
X204065047Y-5582980D01*
X204160285Y-5582980D01*
X205017428Y-6582980D02*
X204446000Y-6582980D01*
X204731714Y-6582980D02*
X204731714Y-5582980D01*
X204636476Y-5725838D01*
X204541238Y-5821076D01*
X204446000Y-5868695D01*
%TO.C,CNT1*%
X197811542Y-134342628D02*
X197859161Y-134390247D01*
X197906780Y-134533104D01*
X197906780Y-134628342D01*
X197859161Y-134771200D01*
X197763923Y-134866438D01*
X197668685Y-134914057D01*
X197478209Y-134961676D01*
X197335352Y-134961676D01*
X197144876Y-134914057D01*
X197049638Y-134866438D01*
X196954400Y-134771200D01*
X196906780Y-134628342D01*
X196906780Y-134533104D01*
X196954400Y-134390247D01*
X197002019Y-134342628D01*
X197906780Y-133914057D02*
X196906780Y-133914057D01*
X197906780Y-133342628D01*
X196906780Y-133342628D01*
X196906780Y-133009295D02*
X196906780Y-132437866D01*
X197906780Y-132723580D02*
X196906780Y-132723580D01*
X197906780Y-131580723D02*
X197906780Y-132152152D01*
X197906780Y-131866438D02*
X196906780Y-131866438D01*
X197049638Y-131961676D01*
X197144876Y-132056914D01*
X197192495Y-132152152D01*
%TO.C,D1*%
X166546304Y-122321580D02*
X166546304Y-121321580D01*
X166784400Y-121321580D01*
X166927257Y-121369200D01*
X167022495Y-121464438D01*
X167070114Y-121559676D01*
X167117733Y-121750152D01*
X167117733Y-121893009D01*
X167070114Y-122083485D01*
X167022495Y-122178723D01*
X166927257Y-122273961D01*
X166784400Y-122321580D01*
X166546304Y-122321580D01*
X168070114Y-122321580D02*
X167498685Y-122321580D01*
X167784400Y-122321580D02*
X167784400Y-121321580D01*
X167689161Y-121464438D01*
X167593923Y-121559676D01*
X167498685Y-121607295D01*
%TO.C,D2*%
X188898304Y-122067580D02*
X188898304Y-121067580D01*
X189136400Y-121067580D01*
X189279257Y-121115200D01*
X189374495Y-121210438D01*
X189422114Y-121305676D01*
X189469733Y-121496152D01*
X189469733Y-121639009D01*
X189422114Y-121829485D01*
X189374495Y-121924723D01*
X189279257Y-122019961D01*
X189136400Y-122067580D01*
X188898304Y-122067580D01*
X189850685Y-121162819D02*
X189898304Y-121115200D01*
X189993542Y-121067580D01*
X190231638Y-121067580D01*
X190326876Y-121115200D01*
X190374495Y-121162819D01*
X190422114Y-121258057D01*
X190422114Y-121353295D01*
X190374495Y-121496152D01*
X189803066Y-122067580D01*
X190422114Y-122067580D01*
%TO.C,D3*%
X183411904Y-9062980D02*
X183411904Y-8062980D01*
X183650000Y-8062980D01*
X183792857Y-8110600D01*
X183888095Y-8205838D01*
X183935714Y-8301076D01*
X183983333Y-8491552D01*
X183983333Y-8634409D01*
X183935714Y-8824885D01*
X183888095Y-8920123D01*
X183792857Y-9015361D01*
X183650000Y-9062980D01*
X183411904Y-9062980D01*
X184316666Y-8062980D02*
X184935714Y-8062980D01*
X184602380Y-8443933D01*
X184745238Y-8443933D01*
X184840476Y-8491552D01*
X184888095Y-8539171D01*
X184935714Y-8634409D01*
X184935714Y-8872504D01*
X184888095Y-8967742D01*
X184840476Y-9015361D01*
X184745238Y-9062980D01*
X184459523Y-9062980D01*
X184364285Y-9015361D01*
X184316666Y-8967742D01*
%TO.C,D4*%
X144448304Y-122067580D02*
X144448304Y-121067580D01*
X144686400Y-121067580D01*
X144829257Y-121115200D01*
X144924495Y-121210438D01*
X144972114Y-121305676D01*
X145019733Y-121496152D01*
X145019733Y-121639009D01*
X144972114Y-121829485D01*
X144924495Y-121924723D01*
X144829257Y-122019961D01*
X144686400Y-122067580D01*
X144448304Y-122067580D01*
X145876876Y-121400914D02*
X145876876Y-122067580D01*
X145638780Y-121019961D02*
X145400685Y-121734247D01*
X146019733Y-121734247D01*
%TO.C,D5*%
X212520304Y-122067580D02*
X212520304Y-121067580D01*
X212758400Y-121067580D01*
X212901257Y-121115200D01*
X212996495Y-121210438D01*
X213044114Y-121305676D01*
X213091733Y-121496152D01*
X213091733Y-121639009D01*
X213044114Y-121829485D01*
X212996495Y-121924723D01*
X212901257Y-122019961D01*
X212758400Y-122067580D01*
X212520304Y-122067580D01*
X213996495Y-121067580D02*
X213520304Y-121067580D01*
X213472685Y-121543771D01*
X213520304Y-121496152D01*
X213615542Y-121448533D01*
X213853638Y-121448533D01*
X213948876Y-121496152D01*
X213996495Y-121543771D01*
X214044114Y-121639009D01*
X214044114Y-121877104D01*
X213996495Y-121972342D01*
X213948876Y-122019961D01*
X213853638Y-122067580D01*
X213615542Y-122067580D01*
X213520304Y-122019961D01*
X213472685Y-121972342D01*
%TO.C,D6*%
X121334304Y-122321580D02*
X121334304Y-121321580D01*
X121572400Y-121321580D01*
X121715257Y-121369200D01*
X121810495Y-121464438D01*
X121858114Y-121559676D01*
X121905733Y-121750152D01*
X121905733Y-121893009D01*
X121858114Y-122083485D01*
X121810495Y-122178723D01*
X121715257Y-122273961D01*
X121572400Y-122321580D01*
X121334304Y-122321580D01*
X122762876Y-121321580D02*
X122572400Y-121321580D01*
X122477161Y-121369200D01*
X122429542Y-121416819D01*
X122334304Y-121559676D01*
X122286685Y-121750152D01*
X122286685Y-122131104D01*
X122334304Y-122226342D01*
X122381923Y-122273961D01*
X122477161Y-122321580D01*
X122667638Y-122321580D01*
X122762876Y-122273961D01*
X122810495Y-122226342D01*
X122858114Y-122131104D01*
X122858114Y-121893009D01*
X122810495Y-121797771D01*
X122762876Y-121750152D01*
X122667638Y-121702533D01*
X122477161Y-121702533D01*
X122381923Y-121750152D01*
X122334304Y-121797771D01*
X122286685Y-121893009D01*
%TO.C,D7*%
X235634304Y-121559580D02*
X235634304Y-120559580D01*
X235872400Y-120559580D01*
X236015257Y-120607200D01*
X236110495Y-120702438D01*
X236158114Y-120797676D01*
X236205733Y-120988152D01*
X236205733Y-121131009D01*
X236158114Y-121321485D01*
X236110495Y-121416723D01*
X236015257Y-121511961D01*
X235872400Y-121559580D01*
X235634304Y-121559580D01*
X236539066Y-120559580D02*
X237205733Y-120559580D01*
X236777161Y-121559580D01*
%TO.C,D8*%
X98728304Y-122067580D02*
X98728304Y-121067580D01*
X98966400Y-121067580D01*
X99109257Y-121115200D01*
X99204495Y-121210438D01*
X99252114Y-121305676D01*
X99299733Y-121496152D01*
X99299733Y-121639009D01*
X99252114Y-121829485D01*
X99204495Y-121924723D01*
X99109257Y-122019961D01*
X98966400Y-122067580D01*
X98728304Y-122067580D01*
X99871161Y-121496152D02*
X99775923Y-121448533D01*
X99728304Y-121400914D01*
X99680685Y-121305676D01*
X99680685Y-121258057D01*
X99728304Y-121162819D01*
X99775923Y-121115200D01*
X99871161Y-121067580D01*
X100061638Y-121067580D01*
X100156876Y-121115200D01*
X100204495Y-121162819D01*
X100252114Y-121258057D01*
X100252114Y-121305676D01*
X100204495Y-121400914D01*
X100156876Y-121448533D01*
X100061638Y-121496152D01*
X99871161Y-121496152D01*
X99775923Y-121543771D01*
X99728304Y-121591390D01*
X99680685Y-121686628D01*
X99680685Y-121877104D01*
X99728304Y-121972342D01*
X99775923Y-122019961D01*
X99871161Y-122067580D01*
X100061638Y-122067580D01*
X100156876Y-122019961D01*
X100204495Y-121972342D01*
X100252114Y-121877104D01*
X100252114Y-121686628D01*
X100204495Y-121591390D01*
X100156876Y-121543771D01*
X100061638Y-121496152D01*
%TO.C,D9*%
X259510304Y-121305580D02*
X259510304Y-120305580D01*
X259748400Y-120305580D01*
X259891257Y-120353200D01*
X259986495Y-120448438D01*
X260034114Y-120543676D01*
X260081733Y-120734152D01*
X260081733Y-120877009D01*
X260034114Y-121067485D01*
X259986495Y-121162723D01*
X259891257Y-121257961D01*
X259748400Y-121305580D01*
X259510304Y-121305580D01*
X260557923Y-121305580D02*
X260748400Y-121305580D01*
X260843638Y-121257961D01*
X260891257Y-121210342D01*
X260986495Y-121067485D01*
X261034114Y-120877009D01*
X261034114Y-120496057D01*
X260986495Y-120400819D01*
X260938876Y-120353200D01*
X260843638Y-120305580D01*
X260653161Y-120305580D01*
X260557923Y-120353200D01*
X260510304Y-120400819D01*
X260462685Y-120496057D01*
X260462685Y-120734152D01*
X260510304Y-120829390D01*
X260557923Y-120877009D01*
X260653161Y-120924628D01*
X260843638Y-120924628D01*
X260938876Y-120877009D01*
X260986495Y-120829390D01*
X261034114Y-120734152D01*
%TO.C,D10*%
X74122114Y-122067580D02*
X74122114Y-121067580D01*
X74360209Y-121067580D01*
X74503066Y-121115200D01*
X74598304Y-121210438D01*
X74645923Y-121305676D01*
X74693542Y-121496152D01*
X74693542Y-121639009D01*
X74645923Y-121829485D01*
X74598304Y-121924723D01*
X74503066Y-122019961D01*
X74360209Y-122067580D01*
X74122114Y-122067580D01*
X75645923Y-122067580D02*
X75074495Y-122067580D01*
X75360209Y-122067580D02*
X75360209Y-121067580D01*
X75264971Y-121210438D01*
X75169733Y-121305676D01*
X75074495Y-121353295D01*
X76264971Y-121067580D02*
X76360209Y-121067580D01*
X76455447Y-121115200D01*
X76503066Y-121162819D01*
X76550685Y-121258057D01*
X76598304Y-121448533D01*
X76598304Y-121686628D01*
X76550685Y-121877104D01*
X76503066Y-121972342D01*
X76455447Y-122019961D01*
X76360209Y-122067580D01*
X76264971Y-122067580D01*
X76169733Y-122019961D01*
X76122114Y-121972342D01*
X76074495Y-121877104D01*
X76026876Y-121686628D01*
X76026876Y-121448533D01*
X76074495Y-121258057D01*
X76122114Y-121162819D01*
X76169733Y-121115200D01*
X76264971Y-121067580D01*
%TO.C,D11*%
X51262114Y-122067580D02*
X51262114Y-121067580D01*
X51500209Y-121067580D01*
X51643066Y-121115200D01*
X51738304Y-121210438D01*
X51785923Y-121305676D01*
X51833542Y-121496152D01*
X51833542Y-121639009D01*
X51785923Y-121829485D01*
X51738304Y-121924723D01*
X51643066Y-122019961D01*
X51500209Y-122067580D01*
X51262114Y-122067580D01*
X52785923Y-122067580D02*
X52214495Y-122067580D01*
X52500209Y-122067580D02*
X52500209Y-121067580D01*
X52404971Y-121210438D01*
X52309733Y-121305676D01*
X52214495Y-121353295D01*
X53738304Y-122067580D02*
X53166876Y-122067580D01*
X53452590Y-122067580D02*
X53452590Y-121067580D01*
X53357352Y-121210438D01*
X53262114Y-121305676D01*
X53166876Y-121353295D01*
%TO.C,D12*%
X161285180Y-58694485D02*
X160285180Y-58694485D01*
X160285180Y-58456390D01*
X160332800Y-58313533D01*
X160428038Y-58218295D01*
X160523276Y-58170676D01*
X160713752Y-58123057D01*
X160856609Y-58123057D01*
X161047085Y-58170676D01*
X161142323Y-58218295D01*
X161237561Y-58313533D01*
X161285180Y-58456390D01*
X161285180Y-58694485D01*
X161285180Y-57170676D02*
X161285180Y-57742104D01*
X161285180Y-57456390D02*
X160285180Y-57456390D01*
X160428038Y-57551628D01*
X160523276Y-57646866D01*
X160570895Y-57742104D01*
X160380419Y-56789723D02*
X160332800Y-56742104D01*
X160285180Y-56646866D01*
X160285180Y-56408771D01*
X160332800Y-56313533D01*
X160380419Y-56265914D01*
X160475657Y-56218295D01*
X160570895Y-56218295D01*
X160713752Y-56265914D01*
X161285180Y-56837342D01*
X161285180Y-56218295D01*
%TO.C,EM1*%
X221004971Y-134533104D02*
X221004971Y-134199771D01*
X221528780Y-134056914D02*
X221528780Y-134533104D01*
X220528780Y-134533104D01*
X220528780Y-134056914D01*
X221528780Y-133628342D02*
X220528780Y-133628342D01*
X221243066Y-133295009D01*
X220528780Y-132961676D01*
X221528780Y-132961676D01*
X221528780Y-131961676D02*
X221528780Y-132533104D01*
X221528780Y-132247390D02*
X220528780Y-132247390D01*
X220671638Y-132342628D01*
X220766876Y-132437866D01*
X220814495Y-132533104D01*
%TO.C,ENA1*%
X38632971Y-135422057D02*
X38632971Y-135088723D01*
X39156780Y-134945866D02*
X39156780Y-135422057D01*
X38156780Y-135422057D01*
X38156780Y-134945866D01*
X39156780Y-134517295D02*
X38156780Y-134517295D01*
X39156780Y-133945866D01*
X38156780Y-133945866D01*
X38871066Y-133517295D02*
X38871066Y-133041104D01*
X39156780Y-133612533D02*
X38156780Y-133279200D01*
X39156780Y-132945866D01*
X39156780Y-132088723D02*
X39156780Y-132660152D01*
X39156780Y-132374438D02*
X38156780Y-132374438D01*
X38299638Y-132469676D01*
X38394876Y-132564914D01*
X38442495Y-132660152D01*
%TO.C,ESL1*%
X244372971Y-134842628D02*
X244372971Y-134509295D01*
X244896780Y-134366438D02*
X244896780Y-134842628D01*
X243896780Y-134842628D01*
X243896780Y-134366438D01*
X244849161Y-133985485D02*
X244896780Y-133842628D01*
X244896780Y-133604533D01*
X244849161Y-133509295D01*
X244801542Y-133461676D01*
X244706304Y-133414057D01*
X244611066Y-133414057D01*
X244515828Y-133461676D01*
X244468209Y-133509295D01*
X244420590Y-133604533D01*
X244372971Y-133795009D01*
X244325352Y-133890247D01*
X244277733Y-133937866D01*
X244182495Y-133985485D01*
X244087257Y-133985485D01*
X243992019Y-133937866D01*
X243944400Y-133890247D01*
X243896780Y-133795009D01*
X243896780Y-133556914D01*
X243944400Y-133414057D01*
X244896780Y-132509295D02*
X244896780Y-132985485D01*
X243896780Y-132985485D01*
X244896780Y-131652152D02*
X244896780Y-132223580D01*
X244896780Y-131937866D02*
X243896780Y-131937866D01*
X244039638Y-132033104D01*
X244134876Y-132128342D01*
X244182495Y-132223580D01*
%TO.C,ESR1*%
X83844971Y-134683866D02*
X83844971Y-134350533D01*
X84368780Y-134207676D02*
X84368780Y-134683866D01*
X83368780Y-134683866D01*
X83368780Y-134207676D01*
X84321161Y-133826723D02*
X84368780Y-133683866D01*
X84368780Y-133445771D01*
X84321161Y-133350533D01*
X84273542Y-133302914D01*
X84178304Y-133255295D01*
X84083066Y-133255295D01*
X83987828Y-133302914D01*
X83940209Y-133350533D01*
X83892590Y-133445771D01*
X83844971Y-133636247D01*
X83797352Y-133731485D01*
X83749733Y-133779104D01*
X83654495Y-133826723D01*
X83559257Y-133826723D01*
X83464019Y-133779104D01*
X83416400Y-133731485D01*
X83368780Y-133636247D01*
X83368780Y-133398152D01*
X83416400Y-133255295D01*
X84368780Y-132255295D02*
X83892590Y-132588628D01*
X84368780Y-132826723D02*
X83368780Y-132826723D01*
X83368780Y-132445771D01*
X83416400Y-132350533D01*
X83464019Y-132302914D01*
X83559257Y-132255295D01*
X83702114Y-132255295D01*
X83797352Y-132302914D01*
X83844971Y-132350533D01*
X83892590Y-132445771D01*
X83892590Y-132826723D01*
X84368780Y-131302914D02*
X84368780Y-131874342D01*
X84368780Y-131588628D02*
X83368780Y-131588628D01*
X83511638Y-131683866D01*
X83606876Y-131779104D01*
X83654495Y-131874342D01*
%TO.C,EST1*%
X106704971Y-134564819D02*
X106704971Y-134231485D01*
X107228780Y-134088628D02*
X107228780Y-134564819D01*
X106228780Y-134564819D01*
X106228780Y-134088628D01*
X107181161Y-133707676D02*
X107228780Y-133564819D01*
X107228780Y-133326723D01*
X107181161Y-133231485D01*
X107133542Y-133183866D01*
X107038304Y-133136247D01*
X106943066Y-133136247D01*
X106847828Y-133183866D01*
X106800209Y-133231485D01*
X106752590Y-133326723D01*
X106704971Y-133517200D01*
X106657352Y-133612438D01*
X106609733Y-133660057D01*
X106514495Y-133707676D01*
X106419257Y-133707676D01*
X106324019Y-133660057D01*
X106276400Y-133612438D01*
X106228780Y-133517200D01*
X106228780Y-133279104D01*
X106276400Y-133136247D01*
X106228780Y-132850533D02*
X106228780Y-132279104D01*
X107228780Y-132564819D02*
X106228780Y-132564819D01*
X107228780Y-131421961D02*
X107228780Y-131993390D01*
X107228780Y-131707676D02*
X106228780Y-131707676D01*
X106371638Y-131802914D01*
X106466876Y-131898152D01*
X106514495Y-131993390D01*
%TO.C,F1*%
X94543571Y-61717533D02*
X94543571Y-62050866D01*
X95067380Y-62050866D02*
X94067380Y-62050866D01*
X94067380Y-61574676D01*
X95067380Y-60669914D02*
X95067380Y-61241342D01*
X95067380Y-60955628D02*
X94067380Y-60955628D01*
X94210238Y-61050866D01*
X94305476Y-61146104D01*
X94353095Y-61241342D01*
%TO.C,J13*%
X87756676Y-21420980D02*
X87756676Y-22135266D01*
X87709057Y-22278123D01*
X87613819Y-22373361D01*
X87470961Y-22420980D01*
X87375723Y-22420980D01*
X88756676Y-22420980D02*
X88185247Y-22420980D01*
X88470961Y-22420980D02*
X88470961Y-21420980D01*
X88375723Y-21563838D01*
X88280485Y-21659076D01*
X88185247Y-21706695D01*
X89090009Y-21420980D02*
X89709057Y-21420980D01*
X89375723Y-21801933D01*
X89518580Y-21801933D01*
X89613819Y-21849552D01*
X89661438Y-21897171D01*
X89709057Y-21992409D01*
X89709057Y-22230504D01*
X89661438Y-22325742D01*
X89613819Y-22373361D01*
X89518580Y-22420980D01*
X89232866Y-22420980D01*
X89137628Y-22373361D01*
X89090009Y-22325742D01*
%TO.C,MP1*%
X175046780Y-134326723D02*
X174046780Y-134326723D01*
X174761066Y-133993390D01*
X174046780Y-133660057D01*
X175046780Y-133660057D01*
X175046780Y-133183866D02*
X174046780Y-133183866D01*
X174046780Y-132802914D01*
X174094400Y-132707676D01*
X174142019Y-132660057D01*
X174237257Y-132612438D01*
X174380114Y-132612438D01*
X174475352Y-132660057D01*
X174522971Y-132707676D01*
X174570590Y-132802914D01*
X174570590Y-133183866D01*
X175046780Y-131660057D02*
X175046780Y-132231485D01*
X175046780Y-131945771D02*
X174046780Y-131945771D01*
X174189638Y-132041009D01*
X174284876Y-132136247D01*
X174332495Y-132231485D01*
%TO.C,Q1*%
X194901619Y-88334838D02*
X194854000Y-88430076D01*
X194758761Y-88525314D01*
X194615904Y-88668171D01*
X194568285Y-88763409D01*
X194568285Y-88858647D01*
X194806380Y-88811028D02*
X194758761Y-88906266D01*
X194663523Y-89001504D01*
X194473047Y-89049123D01*
X194139714Y-89049123D01*
X193949238Y-89001504D01*
X193854000Y-88906266D01*
X193806380Y-88811028D01*
X193806380Y-88620552D01*
X193854000Y-88525314D01*
X193949238Y-88430076D01*
X194139714Y-88382457D01*
X194473047Y-88382457D01*
X194663523Y-88430076D01*
X194758761Y-88525314D01*
X194806380Y-88620552D01*
X194806380Y-88811028D01*
X194806380Y-87430076D02*
X194806380Y-88001504D01*
X194806380Y-87715790D02*
X193806380Y-87715790D01*
X193949238Y-87811028D01*
X194044476Y-87906266D01*
X194092095Y-88001504D01*
%TO.C,Q2*%
X125051619Y-88080838D02*
X125004000Y-88176076D01*
X124908761Y-88271314D01*
X124765904Y-88414171D01*
X124718285Y-88509409D01*
X124718285Y-88604647D01*
X124956380Y-88557028D02*
X124908761Y-88652266D01*
X124813523Y-88747504D01*
X124623047Y-88795123D01*
X124289714Y-88795123D01*
X124099238Y-88747504D01*
X124004000Y-88652266D01*
X123956380Y-88557028D01*
X123956380Y-88366552D01*
X124004000Y-88271314D01*
X124099238Y-88176076D01*
X124289714Y-88128457D01*
X124623047Y-88128457D01*
X124813523Y-88176076D01*
X124908761Y-88271314D01*
X124956380Y-88366552D01*
X124956380Y-88557028D01*
X124051619Y-87747504D02*
X124004000Y-87699885D01*
X123956380Y-87604647D01*
X123956380Y-87366552D01*
X124004000Y-87271314D01*
X124051619Y-87223695D01*
X124146857Y-87176076D01*
X124242095Y-87176076D01*
X124384952Y-87223695D01*
X124956380Y-87795123D01*
X124956380Y-87176076D01*
%TO.C,R1*%
X157791733Y-120491580D02*
X157458400Y-120015390D01*
X157220304Y-120491580D02*
X157220304Y-119491580D01*
X157601257Y-119491580D01*
X157696495Y-119539200D01*
X157744114Y-119586819D01*
X157791733Y-119682057D01*
X157791733Y-119824914D01*
X157744114Y-119920152D01*
X157696495Y-119967771D01*
X157601257Y-120015390D01*
X157220304Y-120015390D01*
X158744114Y-120491580D02*
X158172685Y-120491580D01*
X158458400Y-120491580D02*
X158458400Y-119491580D01*
X158363161Y-119634438D01*
X158267923Y-119729676D01*
X158172685Y-119777295D01*
%TO.C,R1.1*%
X192595047Y-44674980D02*
X192261714Y-44198790D01*
X192023619Y-44674980D02*
X192023619Y-43674980D01*
X192404571Y-43674980D01*
X192499809Y-43722600D01*
X192547428Y-43770219D01*
X192595047Y-43865457D01*
X192595047Y-44008314D01*
X192547428Y-44103552D01*
X192499809Y-44151171D01*
X192404571Y-44198790D01*
X192023619Y-44198790D01*
X193547428Y-44674980D02*
X192976000Y-44674980D01*
X193261714Y-44674980D02*
X193261714Y-43674980D01*
X193166476Y-43817838D01*
X193071238Y-43913076D01*
X192976000Y-43960695D01*
X193976000Y-44579742D02*
X194023619Y-44627361D01*
X193976000Y-44674980D01*
X193928380Y-44627361D01*
X193976000Y-44579742D01*
X193976000Y-44674980D01*
X194976000Y-44674980D02*
X194404571Y-44674980D01*
X194690285Y-44674980D02*
X194690285Y-43674980D01*
X194595047Y-43817838D01*
X194499809Y-43913076D01*
X194404571Y-43960695D01*
%TO.C,R1.2*%
X192595047Y-36800980D02*
X192261714Y-36324790D01*
X192023619Y-36800980D02*
X192023619Y-35800980D01*
X192404571Y-35800980D01*
X192499809Y-35848600D01*
X192547428Y-35896219D01*
X192595047Y-35991457D01*
X192595047Y-36134314D01*
X192547428Y-36229552D01*
X192499809Y-36277171D01*
X192404571Y-36324790D01*
X192023619Y-36324790D01*
X193547428Y-36800980D02*
X192976000Y-36800980D01*
X193261714Y-36800980D02*
X193261714Y-35800980D01*
X193166476Y-35943838D01*
X193071238Y-36039076D01*
X192976000Y-36086695D01*
X193976000Y-36705742D02*
X194023619Y-36753361D01*
X193976000Y-36800980D01*
X193928380Y-36753361D01*
X193976000Y-36705742D01*
X193976000Y-36800980D01*
X194404571Y-35896219D02*
X194452190Y-35848600D01*
X194547428Y-35800980D01*
X194785523Y-35800980D01*
X194880761Y-35848600D01*
X194928380Y-35896219D01*
X194976000Y-35991457D01*
X194976000Y-36086695D01*
X194928380Y-36229552D01*
X194356952Y-36800980D01*
X194976000Y-36800980D01*
%TO.C,R2*%
X180143733Y-120237580D02*
X179810400Y-119761390D01*
X179572304Y-120237580D02*
X179572304Y-119237580D01*
X179953257Y-119237580D01*
X180048495Y-119285200D01*
X180096114Y-119332819D01*
X180143733Y-119428057D01*
X180143733Y-119570914D01*
X180096114Y-119666152D01*
X180048495Y-119713771D01*
X179953257Y-119761390D01*
X179572304Y-119761390D01*
X180524685Y-119332819D02*
X180572304Y-119285200D01*
X180667542Y-119237580D01*
X180905638Y-119237580D01*
X181000876Y-119285200D01*
X181048495Y-119332819D01*
X181096114Y-119428057D01*
X181096114Y-119523295D01*
X181048495Y-119666152D01*
X180477066Y-120237580D01*
X181096114Y-120237580D01*
%TO.C,R3*%
X172371333Y-17392980D02*
X172038000Y-16916790D01*
X171799904Y-17392980D02*
X171799904Y-16392980D01*
X172180857Y-16392980D01*
X172276095Y-16440600D01*
X172323714Y-16488219D01*
X172371333Y-16583457D01*
X172371333Y-16726314D01*
X172323714Y-16821552D01*
X172276095Y-16869171D01*
X172180857Y-16916790D01*
X171799904Y-16916790D01*
X172704666Y-16392980D02*
X173323714Y-16392980D01*
X172990380Y-16773933D01*
X173133238Y-16773933D01*
X173228476Y-16821552D01*
X173276095Y-16869171D01*
X173323714Y-16964409D01*
X173323714Y-17202504D01*
X173276095Y-17297742D01*
X173228476Y-17345361D01*
X173133238Y-17392980D01*
X172847523Y-17392980D01*
X172752285Y-17345361D01*
X172704666Y-17297742D01*
%TO.C,R4*%
X135693733Y-120237580D02*
X135360400Y-119761390D01*
X135122304Y-120237580D02*
X135122304Y-119237580D01*
X135503257Y-119237580D01*
X135598495Y-119285200D01*
X135646114Y-119332819D01*
X135693733Y-119428057D01*
X135693733Y-119570914D01*
X135646114Y-119666152D01*
X135598495Y-119713771D01*
X135503257Y-119761390D01*
X135122304Y-119761390D01*
X136550876Y-119570914D02*
X136550876Y-120237580D01*
X136312780Y-119189961D02*
X136074685Y-119904247D01*
X136693733Y-119904247D01*
%TO.C,R5*%
X202495733Y-120237580D02*
X202162400Y-119761390D01*
X201924304Y-120237580D02*
X201924304Y-119237580D01*
X202305257Y-119237580D01*
X202400495Y-119285200D01*
X202448114Y-119332819D01*
X202495733Y-119428057D01*
X202495733Y-119570914D01*
X202448114Y-119666152D01*
X202400495Y-119713771D01*
X202305257Y-119761390D01*
X201924304Y-119761390D01*
X203400495Y-119237580D02*
X202924304Y-119237580D01*
X202876685Y-119713771D01*
X202924304Y-119666152D01*
X203019542Y-119618533D01*
X203257638Y-119618533D01*
X203352876Y-119666152D01*
X203400495Y-119713771D01*
X203448114Y-119809009D01*
X203448114Y-120047104D01*
X203400495Y-120142342D01*
X203352876Y-120189961D01*
X203257638Y-120237580D01*
X203019542Y-120237580D01*
X202924304Y-120189961D01*
X202876685Y-120142342D01*
%TO.C,R6*%
X112071733Y-120491580D02*
X111738400Y-120015390D01*
X111500304Y-120491580D02*
X111500304Y-119491580D01*
X111881257Y-119491580D01*
X111976495Y-119539200D01*
X112024114Y-119586819D01*
X112071733Y-119682057D01*
X112071733Y-119824914D01*
X112024114Y-119920152D01*
X111976495Y-119967771D01*
X111881257Y-120015390D01*
X111500304Y-120015390D01*
X112928876Y-119491580D02*
X112738400Y-119491580D01*
X112643161Y-119539200D01*
X112595542Y-119586819D01*
X112500304Y-119729676D01*
X112452685Y-119920152D01*
X112452685Y-120301104D01*
X112500304Y-120396342D01*
X112547923Y-120443961D01*
X112643161Y-120491580D01*
X112833638Y-120491580D01*
X112928876Y-120443961D01*
X112976495Y-120396342D01*
X113024114Y-120301104D01*
X113024114Y-120063009D01*
X112976495Y-119967771D01*
X112928876Y-119920152D01*
X112833638Y-119872533D01*
X112643161Y-119872533D01*
X112547923Y-119920152D01*
X112500304Y-119967771D01*
X112452685Y-120063009D01*
%TO.C,R7*%
X226625733Y-119729580D02*
X226292400Y-119253390D01*
X226054304Y-119729580D02*
X226054304Y-118729580D01*
X226435257Y-118729580D01*
X226530495Y-118777200D01*
X226578114Y-118824819D01*
X226625733Y-118920057D01*
X226625733Y-119062914D01*
X226578114Y-119158152D01*
X226530495Y-119205771D01*
X226435257Y-119253390D01*
X226054304Y-119253390D01*
X226959066Y-118729580D02*
X227625733Y-118729580D01*
X227197161Y-119729580D01*
%TO.C,R8*%
X88957733Y-120237580D02*
X88624400Y-119761390D01*
X88386304Y-120237580D02*
X88386304Y-119237580D01*
X88767257Y-119237580D01*
X88862495Y-119285200D01*
X88910114Y-119332819D01*
X88957733Y-119428057D01*
X88957733Y-119570914D01*
X88910114Y-119666152D01*
X88862495Y-119713771D01*
X88767257Y-119761390D01*
X88386304Y-119761390D01*
X89529161Y-119666152D02*
X89433923Y-119618533D01*
X89386304Y-119570914D01*
X89338685Y-119475676D01*
X89338685Y-119428057D01*
X89386304Y-119332819D01*
X89433923Y-119285200D01*
X89529161Y-119237580D01*
X89719638Y-119237580D01*
X89814876Y-119285200D01*
X89862495Y-119332819D01*
X89910114Y-119428057D01*
X89910114Y-119475676D01*
X89862495Y-119570914D01*
X89814876Y-119618533D01*
X89719638Y-119666152D01*
X89529161Y-119666152D01*
X89433923Y-119713771D01*
X89386304Y-119761390D01*
X89338685Y-119856628D01*
X89338685Y-120047104D01*
X89386304Y-120142342D01*
X89433923Y-120189961D01*
X89529161Y-120237580D01*
X89719638Y-120237580D01*
X89814876Y-120189961D01*
X89862495Y-120142342D01*
X89910114Y-120047104D01*
X89910114Y-119856628D01*
X89862495Y-119761390D01*
X89814876Y-119713771D01*
X89719638Y-119666152D01*
%TO.C,R9*%
X249993733Y-119475580D02*
X249660400Y-118999390D01*
X249422304Y-119475580D02*
X249422304Y-118475580D01*
X249803257Y-118475580D01*
X249898495Y-118523200D01*
X249946114Y-118570819D01*
X249993733Y-118666057D01*
X249993733Y-118808914D01*
X249946114Y-118904152D01*
X249898495Y-118951771D01*
X249803257Y-118999390D01*
X249422304Y-118999390D01*
X250469923Y-119475580D02*
X250660400Y-119475580D01*
X250755638Y-119427961D01*
X250803257Y-119380342D01*
X250898495Y-119237485D01*
X250946114Y-119047009D01*
X250946114Y-118666057D01*
X250898495Y-118570819D01*
X250850876Y-118523200D01*
X250755638Y-118475580D01*
X250565161Y-118475580D01*
X250469923Y-118523200D01*
X250422304Y-118570819D01*
X250374685Y-118666057D01*
X250374685Y-118904152D01*
X250422304Y-118999390D01*
X250469923Y-119047009D01*
X250565161Y-119094628D01*
X250755638Y-119094628D01*
X250850876Y-119047009D01*
X250898495Y-118999390D01*
X250946114Y-118904152D01*
%TO.C,R10*%
X65367542Y-120237580D02*
X65034209Y-119761390D01*
X64796114Y-120237580D02*
X64796114Y-119237580D01*
X65177066Y-119237580D01*
X65272304Y-119285200D01*
X65319923Y-119332819D01*
X65367542Y-119428057D01*
X65367542Y-119570914D01*
X65319923Y-119666152D01*
X65272304Y-119713771D01*
X65177066Y-119761390D01*
X64796114Y-119761390D01*
X66319923Y-120237580D02*
X65748495Y-120237580D01*
X66034209Y-120237580D02*
X66034209Y-119237580D01*
X65938971Y-119380438D01*
X65843733Y-119475676D01*
X65748495Y-119523295D01*
X66938971Y-119237580D02*
X67034209Y-119237580D01*
X67129447Y-119285200D01*
X67177066Y-119332819D01*
X67224685Y-119428057D01*
X67272304Y-119618533D01*
X67272304Y-119856628D01*
X67224685Y-120047104D01*
X67177066Y-120142342D01*
X67129447Y-120189961D01*
X67034209Y-120237580D01*
X66938971Y-120237580D01*
X66843733Y-120189961D01*
X66796114Y-120142342D01*
X66748495Y-120047104D01*
X66700876Y-119856628D01*
X66700876Y-119618533D01*
X66748495Y-119428057D01*
X66796114Y-119332819D01*
X66843733Y-119285200D01*
X66938971Y-119237580D01*
%TO.C,R11*%
X42761542Y-120237580D02*
X42428209Y-119761390D01*
X42190114Y-120237580D02*
X42190114Y-119237580D01*
X42571066Y-119237580D01*
X42666304Y-119285200D01*
X42713923Y-119332819D01*
X42761542Y-119428057D01*
X42761542Y-119570914D01*
X42713923Y-119666152D01*
X42666304Y-119713771D01*
X42571066Y-119761390D01*
X42190114Y-119761390D01*
X43713923Y-120237580D02*
X43142495Y-120237580D01*
X43428209Y-120237580D02*
X43428209Y-119237580D01*
X43332971Y-119380438D01*
X43237733Y-119475676D01*
X43142495Y-119523295D01*
X44666304Y-120237580D02*
X44094876Y-120237580D01*
X44380590Y-120237580D02*
X44380590Y-119237580D01*
X44285352Y-119380438D01*
X44190114Y-119475676D01*
X44094876Y-119523295D01*
%TO.C,R12*%
X163115180Y-49305057D02*
X162638990Y-49638390D01*
X163115180Y-49876485D02*
X162115180Y-49876485D01*
X162115180Y-49495533D01*
X162162800Y-49400295D01*
X162210419Y-49352676D01*
X162305657Y-49305057D01*
X162448514Y-49305057D01*
X162543752Y-49352676D01*
X162591371Y-49400295D01*
X162638990Y-49495533D01*
X162638990Y-49876485D01*
X163115180Y-48352676D02*
X163115180Y-48924104D01*
X163115180Y-48638390D02*
X162115180Y-48638390D01*
X162258038Y-48733628D01*
X162353276Y-48828866D01*
X162400895Y-48924104D01*
X162210419Y-47971723D02*
X162162800Y-47924104D01*
X162115180Y-47828866D01*
X162115180Y-47590771D01*
X162162800Y-47495533D01*
X162210419Y-47447914D01*
X162305657Y-47400295D01*
X162400895Y-47400295D01*
X162543752Y-47447914D01*
X163115180Y-48019342D01*
X163115180Y-47400295D01*
%TO.C,Rb1*%
X201164380Y-43591647D02*
X200688190Y-43924980D01*
X201164380Y-44163076D02*
X200164380Y-44163076D01*
X200164380Y-43782123D01*
X200212000Y-43686885D01*
X200259619Y-43639266D01*
X200354857Y-43591647D01*
X200497714Y-43591647D01*
X200592952Y-43639266D01*
X200640571Y-43686885D01*
X200688190Y-43782123D01*
X200688190Y-44163076D01*
X201164380Y-43163076D02*
X200164380Y-43163076D01*
X200545333Y-43163076D02*
X200497714Y-43067838D01*
X200497714Y-42877361D01*
X200545333Y-42782123D01*
X200592952Y-42734504D01*
X200688190Y-42686885D01*
X200973904Y-42686885D01*
X201069142Y-42734504D01*
X201116761Y-42782123D01*
X201164380Y-42877361D01*
X201164380Y-43067838D01*
X201116761Y-43163076D01*
X201164380Y-41734504D02*
X201164380Y-42305933D01*
X201164380Y-42020219D02*
X200164380Y-42020219D01*
X200307238Y-42115457D01*
X200402476Y-42210695D01*
X200450095Y-42305933D01*
%TO.C,Rf1*%
X193167619Y-13582980D02*
X192834285Y-13106790D01*
X192596190Y-13582980D02*
X192596190Y-12582980D01*
X192977142Y-12582980D01*
X193072380Y-12630600D01*
X193120000Y-12678219D01*
X193167619Y-12773457D01*
X193167619Y-12916314D01*
X193120000Y-13011552D01*
X193072380Y-13059171D01*
X192977142Y-13106790D01*
X192596190Y-13106790D01*
X193453333Y-12916314D02*
X193834285Y-12916314D01*
X193596190Y-13582980D02*
X193596190Y-12725838D01*
X193643809Y-12630600D01*
X193739047Y-12582980D01*
X193834285Y-12582980D01*
X194691428Y-13582980D02*
X194120000Y-13582980D01*
X194405714Y-13582980D02*
X194405714Y-12582980D01*
X194310476Y-12725838D01*
X194215238Y-12821076D01*
X194120000Y-12868695D01*
%TO.C,Rg1*%
X192746952Y-35172980D02*
X192413619Y-34696790D01*
X192175523Y-35172980D02*
X192175523Y-34172980D01*
X192556476Y-34172980D01*
X192651714Y-34220600D01*
X192699333Y-34268219D01*
X192746952Y-34363457D01*
X192746952Y-34506314D01*
X192699333Y-34601552D01*
X192651714Y-34649171D01*
X192556476Y-34696790D01*
X192175523Y-34696790D01*
X193604095Y-34506314D02*
X193604095Y-35315838D01*
X193556476Y-35411076D01*
X193508857Y-35458695D01*
X193413619Y-35506314D01*
X193270761Y-35506314D01*
X193175523Y-35458695D01*
X193604095Y-35125361D02*
X193508857Y-35172980D01*
X193318380Y-35172980D01*
X193223142Y-35125361D01*
X193175523Y-35077742D01*
X193127904Y-34982504D01*
X193127904Y-34696790D01*
X193175523Y-34601552D01*
X193223142Y-34553933D01*
X193318380Y-34506314D01*
X193508857Y-34506314D01*
X193604095Y-34553933D01*
X194604095Y-35172980D02*
X194032666Y-35172980D01*
X194318380Y-35172980D02*
X194318380Y-34172980D01*
X194223142Y-34315838D01*
X194127904Y-34411076D01*
X194032666Y-34458695D01*
%TO.C,SEC1*%
X60699161Y-135239485D02*
X60746780Y-135096628D01*
X60746780Y-134858533D01*
X60699161Y-134763295D01*
X60651542Y-134715676D01*
X60556304Y-134668057D01*
X60461066Y-134668057D01*
X60365828Y-134715676D01*
X60318209Y-134763295D01*
X60270590Y-134858533D01*
X60222971Y-135049009D01*
X60175352Y-135144247D01*
X60127733Y-135191866D01*
X60032495Y-135239485D01*
X59937257Y-135239485D01*
X59842019Y-135191866D01*
X59794400Y-135144247D01*
X59746780Y-135049009D01*
X59746780Y-134810914D01*
X59794400Y-134668057D01*
X60222971Y-134239485D02*
X60222971Y-133906152D01*
X60746780Y-133763295D02*
X60746780Y-134239485D01*
X59746780Y-134239485D01*
X59746780Y-133763295D01*
X60651542Y-132763295D02*
X60699161Y-132810914D01*
X60746780Y-132953771D01*
X60746780Y-133049009D01*
X60699161Y-133191866D01*
X60603923Y-133287104D01*
X60508685Y-133334723D01*
X60318209Y-133382342D01*
X60175352Y-133382342D01*
X59984876Y-133334723D01*
X59889638Y-133287104D01*
X59794400Y-133191866D01*
X59746780Y-133049009D01*
X59746780Y-132953771D01*
X59794400Y-132810914D01*
X59842019Y-132763295D01*
X60746780Y-131810914D02*
X60746780Y-132382342D01*
X60746780Y-132096628D02*
X59746780Y-132096628D01*
X59889638Y-132191866D01*
X59984876Y-132287104D01*
X60032495Y-132382342D01*
%TO.C,SP1*%
X151631161Y-134279104D02*
X151678780Y-134136247D01*
X151678780Y-133898152D01*
X151631161Y-133802914D01*
X151583542Y-133755295D01*
X151488304Y-133707676D01*
X151393066Y-133707676D01*
X151297828Y-133755295D01*
X151250209Y-133802914D01*
X151202590Y-133898152D01*
X151154971Y-134088628D01*
X151107352Y-134183866D01*
X151059733Y-134231485D01*
X150964495Y-134279104D01*
X150869257Y-134279104D01*
X150774019Y-134231485D01*
X150726400Y-134183866D01*
X150678780Y-134088628D01*
X150678780Y-133850533D01*
X150726400Y-133707676D01*
X151678780Y-133279104D02*
X150678780Y-133279104D01*
X150678780Y-132898152D01*
X150726400Y-132802914D01*
X150774019Y-132755295D01*
X150869257Y-132707676D01*
X151012114Y-132707676D01*
X151107352Y-132755295D01*
X151154971Y-132802914D01*
X151202590Y-132898152D01*
X151202590Y-133279104D01*
X151678780Y-131755295D02*
X151678780Y-132326723D01*
X151678780Y-132041009D02*
X150678780Y-132041009D01*
X150821638Y-132136247D01*
X150916876Y-132231485D01*
X150964495Y-132326723D01*
%TO.C,U1*%
X192532095Y-26140980D02*
X192532095Y-26950504D01*
X192579714Y-27045742D01*
X192627333Y-27093361D01*
X192722571Y-27140980D01*
X192913047Y-27140980D01*
X193008285Y-27093361D01*
X193055904Y-27045742D01*
X193103523Y-26950504D01*
X193103523Y-26140980D01*
X194103523Y-27140980D02*
X193532095Y-27140980D01*
X193817809Y-27140980D02*
X193817809Y-26140980D01*
X193722571Y-26283838D01*
X193627333Y-26379076D01*
X193532095Y-26426695D01*
%TO.C,U2*%
X192532095Y-4804980D02*
X192532095Y-5614504D01*
X192579714Y-5709742D01*
X192627333Y-5757361D01*
X192722571Y-5804980D01*
X192913047Y-5804980D01*
X193008285Y-5757361D01*
X193055904Y-5709742D01*
X193103523Y-5614504D01*
X193103523Y-4804980D01*
X193532095Y-4900219D02*
X193579714Y-4852600D01*
X193674952Y-4804980D01*
X193913047Y-4804980D01*
X194008285Y-4852600D01*
X194055904Y-4900219D01*
X194103523Y-4995457D01*
X194103523Y-5090695D01*
X194055904Y-5233552D01*
X193484476Y-5804980D01*
X194103523Y-5804980D01*
%TO.C,U3*%
X92278295Y20175019D02*
X92278295Y19365495D01*
X92325914Y19270257D01*
X92373533Y19222638D01*
X92468771Y19175019D01*
X92659247Y19175019D01*
X92754485Y19222638D01*
X92802104Y19270257D01*
X92849723Y19365495D01*
X92849723Y20175019D01*
X93230676Y20175019D02*
X93849723Y20175019D01*
X93516390Y19794066D01*
X93659247Y19794066D01*
X93754485Y19746447D01*
X93802104Y19698828D01*
X93849723Y19603590D01*
X93849723Y19365495D01*
X93802104Y19270257D01*
X93754485Y19222638D01*
X93659247Y19175019D01*
X93373533Y19175019D01*
X93278295Y19222638D01*
X93230676Y19270257D01*
%TD*%
M02*
