%TF.GenerationSoftware,KiCad,Pcbnew,5.1.10-88a1d61d58~90~ubuntu20.04.1*%
%TF.CreationDate,2022-04-26T09:50:21-05:00*%
%TF.ProjectId,Autoclave_2.0,4175746f-636c-4617-9665-5f322e302e6b,rev?*%
%TF.SameCoordinates,Original*%
%TF.FileFunction,Profile,NP*%
%FSLAX46Y46*%
G04 Gerber Fmt 4.6, Leading zero omitted, Abs format (unit mm)*
G04 Created by KiCad (PCBNEW 5.1.10-88a1d61d58~90~ubuntu20.04.1) date 2022-04-26 09:50:21*
%MOMM*%
%LPD*%
G01*
G04 APERTURE LIST*
%TA.AperFunction,Profile*%
%ADD10C,0.050000*%
%TD*%
G04 APERTURE END LIST*
D10*
X106261780Y23291800D02*
X70586600Y23291800D01*
X139563266Y7797800D02*
G75*
G03*
X139563266Y7797800I-1666666J0D01*
G01*
X135396600Y7797800D02*
X140396600Y7797800D01*
X137896600Y10297800D02*
X137896600Y5297800D01*
X130098800Y15062200D02*
X132918200Y18186400D01*
X132918200Y18186400D02*
X138760200Y18186400D01*
X106261780Y23291800D02*
X106261780Y19726999D01*
X106261780Y19726999D02*
X111963200Y15062200D01*
X25323800Y-169321800D02*
X275920400Y-169321800D01*
X25323800Y-85321800D02*
X25323800Y-169321800D01*
X275920400Y-85321800D02*
X275920400Y-169321800D01*
X70586600Y-85321800D02*
X25323800Y-85321800D01*
X230657400Y-85321800D02*
X275920400Y-85321800D01*
X230657400Y23291800D02*
X230657400Y11760200D01*
X143332200Y11760200D02*
X158699200Y11760200D01*
X138760200Y18186400D02*
X143332200Y11760200D01*
X111963200Y15062200D02*
X130098800Y15062200D01*
X164541200Y23291800D02*
X230657400Y23291800D01*
X164541200Y17449800D02*
X164541200Y23291800D01*
X158699200Y11760200D02*
X164541200Y17449800D01*
X230657400Y11760200D02*
X230657400Y-85321800D01*
X70586600Y23291800D02*
X70586600Y-85321800D01*
M02*
