%TF.GenerationSoftware,KiCad,Pcbnew,5.1.10-88a1d61d58~90~ubuntu20.04.1*%
%TF.CreationDate,2022-04-26T09:50:21-05:00*%
%TF.ProjectId,Autoclave_2.0,4175746f-636c-4617-9665-5f322e302e6b,rev?*%
%TF.SameCoordinates,Original*%
%TF.FileFunction,Soldermask,Bot*%
%TF.FilePolarity,Negative*%
%FSLAX46Y46*%
G04 Gerber Fmt 4.6, Leading zero omitted, Abs format (unit mm)*
G04 Created by KiCad (PCBNEW 5.1.10-88a1d61d58~90~ubuntu20.04.1) date 2022-04-26 09:50:21*
%MOMM*%
%LPD*%
G01*
G04 APERTURE LIST*
%ADD10C,5.000000*%
%ADD11O,1.727200X1.727200*%
%ADD12C,3.200000*%
%ADD13R,3.500000X3.500000*%
%ADD14R,2.500000X2.500000*%
%ADD15C,2.500000*%
%ADD16C,3.000000*%
%ADD17C,2.000000*%
%ADD18R,2.000000X2.000000*%
%ADD19R,1.200000X1.200000*%
%ADD20C,1.200000*%
%ADD21C,1.600000*%
%ADD22R,1.600000X1.600000*%
%ADD23C,2.350000*%
%ADD24C,3.500000*%
%ADD25C,1.700000*%
%ADD26R,1.700000X1.700000*%
%ADD27O,1.600000X1.600000*%
G04 APERTURE END LIST*
D10*
%TO.C,REF\u002A\u002A*%
X272796000Y-89484200D03*
%TD*%
%TO.C,REF\u002A\u002A*%
X272796000Y-165658800D03*
%TD*%
D11*
%TO.C,XA1*%
X129159000Y-35255200D03*
X152019000Y-68148200D03*
X152019000Y-65608200D03*
X149479000Y-68148200D03*
X149479000Y-65608200D03*
X146939000Y-68148200D03*
X146939000Y-65608200D03*
X144399000Y-68148200D03*
X144399000Y-65608200D03*
X141859000Y-68148200D03*
X141859000Y-65608200D03*
X139319000Y-68148200D03*
X139319000Y-65608200D03*
X136779000Y-68148200D03*
X136779000Y-65608200D03*
X134239000Y-68148200D03*
X134239000Y-65608200D03*
X131699000Y-68148200D03*
X131699000Y-65608200D03*
X129159000Y-68148200D03*
X129159000Y-65608200D03*
X126619000Y-68148200D03*
X126619000Y-65608200D03*
X124079000Y-68148200D03*
X124079000Y-65608200D03*
X121539000Y-68148200D03*
X121539000Y-65608200D03*
X118999000Y-68148200D03*
X118999000Y-65608200D03*
X116459000Y-68148200D03*
X116459000Y-65608200D03*
X113919000Y-68148200D03*
X113919000Y-65608200D03*
X111379000Y-68148200D03*
X111379000Y-65608200D03*
X108839000Y-68148200D03*
X108839000Y-65608200D03*
X157099000Y-63068200D03*
X157099000Y-60528200D03*
X157099000Y-57988200D03*
X157099000Y-55448200D03*
X157099000Y-52908200D03*
X157099000Y-50368200D03*
X157099000Y-47828200D03*
X157099000Y-45288200D03*
X157099000Y-40208200D03*
X157099000Y-37668200D03*
X157099000Y-35128200D03*
X157099000Y-32588200D03*
X157099000Y-30048200D03*
X157099000Y-27508200D03*
X157099000Y-24968200D03*
X157099000Y431800D03*
X108839000Y-5664200D03*
X108839000Y-3124200D03*
X108839000Y-584200D03*
X108839000Y4495800D03*
X108839000Y7035800D03*
X108839000Y9575800D03*
D12*
X157099000Y14401800D03*
X157099000Y-68148200D03*
X108839000Y13131800D03*
X108839000Y-61798200D03*
X124079000Y-37668200D03*
X152019000Y-37668200D03*
D11*
X108839000Y-8204200D03*
X108839000Y-10744200D03*
X108839000Y-13284200D03*
X108839000Y1955800D03*
X108839000Y-17348200D03*
X108839000Y-19888200D03*
X108839000Y-22428200D03*
X108839000Y-24968200D03*
X108839000Y-27508200D03*
X108839000Y-30048200D03*
X108839000Y-32588200D03*
X108839000Y-35128200D03*
X108839000Y-40208200D03*
X108839000Y-42748200D03*
X108839000Y-45288200D03*
X108839000Y-47828200D03*
X108839000Y-50368200D03*
X108839000Y-52908200D03*
X108839000Y-55448200D03*
X108839000Y-57988200D03*
X157099000Y-2108200D03*
X157099000Y-4648200D03*
X157099000Y-7188200D03*
X157099000Y-9728200D03*
X157099000Y-12268200D03*
X157099000Y-14808200D03*
X157099000Y-17348200D03*
X157099000Y-22428200D03*
X129159000Y-37795200D03*
X131699000Y-35255200D03*
X131699000Y-37795200D03*
X134239000Y-37795200D03*
X134239000Y-35255200D03*
%TD*%
D10*
%TO.C,REF\u002A\u002A*%
X28600400Y-89484200D03*
%TD*%
%TO.C,REF\u002A\u002A*%
X28600400Y-165658800D03*
%TD*%
%TO.C,REF\u002A\u002A*%
X74320400Y19837400D03*
%TD*%
%TO.C,REF\u002A\u002A*%
X227228400Y19888200D03*
%TD*%
D13*
%TO.C,J4*%
X175437800Y-4343400D03*
G36*
G01*
X174437800Y3156600D02*
X176437800Y3156600D01*
G75*
G02*
X177187800Y2406600I0J-750000D01*
G01*
X177187800Y906600D01*
G75*
G02*
X176437800Y156600I-750000J0D01*
G01*
X174437800Y156600D01*
G75*
G02*
X173687800Y906600I0J750000D01*
G01*
X173687800Y2406600D01*
G75*
G02*
X174437800Y3156600I750000J0D01*
G01*
G37*
G36*
G01*
X169862800Y406600D02*
X171612800Y406600D01*
G75*
G02*
X172487800Y-468400I0J-875000D01*
G01*
X172487800Y-2218400D01*
G75*
G02*
X171612800Y-3093400I-875000J0D01*
G01*
X169862800Y-3093400D01*
G75*
G02*
X168987800Y-2218400I0J875000D01*
G01*
X168987800Y-468400D01*
G75*
G02*
X169862800Y406600I875000J0D01*
G01*
G37*
%TD*%
D14*
%TO.C,Blanca1*%
X215290400Y-67437000D03*
D15*
X215290400Y-62437000D03*
%TD*%
D14*
%TO.C,T_EX1*%
X215290400Y-10033000D03*
D15*
X215290400Y-4953000D03*
X215290400Y127000D03*
%TD*%
D14*
%TO.C,P_IN1*%
X215290400Y-26797000D03*
D15*
X215290400Y-21717000D03*
X215290400Y-16637000D03*
%TD*%
D14*
%TO.C,P_EX1*%
X215290400Y-43815000D03*
D15*
X215290400Y-38735000D03*
X215290400Y-33655000D03*
%TD*%
D14*
%TO.C,Nivel1*%
X215290400Y-84201000D03*
D15*
X215290400Y-79121000D03*
X215290400Y-74041000D03*
%TD*%
D14*
%TO.C,J12*%
X45618400Y-153619200D03*
D15*
X50618400Y-153619200D03*
%TD*%
D14*
%TO.C,J11*%
X67970400Y-153365200D03*
D15*
X72970400Y-153365200D03*
%TD*%
D14*
%TO.C,J10*%
X250342400Y-153619200D03*
D15*
X255342400Y-153619200D03*
%TD*%
D14*
%TO.C,J9*%
X89814400Y-153365200D03*
D15*
X94814400Y-153365200D03*
%TD*%
D14*
%TO.C,J8*%
X221894400Y-153619200D03*
D15*
X226974400Y-153619200D03*
X232054400Y-153619200D03*
X237134400Y-153619200D03*
%TD*%
D14*
%TO.C,J7*%
X112928400Y-153365200D03*
D15*
X117928400Y-153365200D03*
%TD*%
D14*
%TO.C,J6*%
X205130400Y-153619200D03*
D15*
X210130400Y-153619200D03*
%TD*%
D14*
%TO.C,J5*%
X136296400Y-153365200D03*
D15*
X141296400Y-153365200D03*
%TD*%
D14*
%TO.C,J3*%
X181508400Y-153365200D03*
D15*
X186508400Y-153365200D03*
%TD*%
D14*
%TO.C,J2*%
X158648400Y-153365200D03*
D15*
X163648400Y-153365200D03*
%TD*%
D14*
%TO.C,J1*%
X89535000Y-34874200D03*
D15*
X89535000Y-39874200D03*
%TD*%
D14*
%TO.C,Gris1*%
X215290400Y-55753000D03*
D15*
X215290400Y-50753000D03*
%TD*%
%TO.C,BMB1*%
X132786400Y-126867200D03*
D16*
X132786400Y-139067200D03*
X144836400Y-139117200D03*
D15*
X144786400Y-126867200D03*
D16*
X138836400Y-124917200D03*
%TD*%
D17*
%TO.C,Buzzer1*%
X142494000Y-84195600D03*
D18*
X142494000Y-91795600D03*
%TD*%
D19*
%TO.C,C1*%
X83134200Y7137400D03*
D20*
X83134200Y5137400D03*
%TD*%
%TO.C,C2*%
X83134200Y-704600D03*
D19*
X83134200Y1295400D03*
%TD*%
%TO.C,C3*%
X83134200Y12693400D03*
D20*
X83134200Y10693400D03*
%TD*%
%TO.C,C4*%
X83134200Y16567400D03*
D19*
X83134200Y18567400D03*
%TD*%
D21*
%TO.C,Cf1*%
X204946000Y-9880600D03*
D22*
X202946000Y-9880600D03*
%TD*%
D15*
%TO.C,CNT1*%
X200604400Y-127121200D03*
D16*
X200604400Y-139321200D03*
X212654400Y-139371200D03*
D15*
X212604400Y-127121200D03*
D16*
X206654400Y-125171200D03*
%TD*%
D18*
%TO.C,D1*%
X169824400Y-116789200D03*
D17*
X167284400Y-116789200D03*
%TD*%
%TO.C,D2*%
X189636400Y-116535200D03*
D18*
X192176400Y-116535200D03*
%TD*%
D17*
%TO.C,D3*%
X184150000Y-13690600D03*
D18*
X181610000Y-13690600D03*
%TD*%
%TO.C,D4*%
X147726400Y-116535200D03*
D17*
X145186400Y-116535200D03*
%TD*%
%TO.C,D5*%
X213258400Y-116535200D03*
D18*
X215798400Y-116535200D03*
%TD*%
%TO.C,D6*%
X124612400Y-116789200D03*
D17*
X122072400Y-116789200D03*
%TD*%
%TO.C,D7*%
X236372400Y-116027200D03*
D18*
X238912400Y-116027200D03*
%TD*%
%TO.C,D8*%
X102006400Y-116535200D03*
D17*
X99466400Y-116535200D03*
%TD*%
%TO.C,D9*%
X260248400Y-115773200D03*
D18*
X262788400Y-115773200D03*
%TD*%
%TO.C,D10*%
X77876400Y-116535200D03*
D17*
X75336400Y-116535200D03*
%TD*%
%TO.C,D11*%
X52476400Y-116535200D03*
D18*
X55016400Y-116535200D03*
%TD*%
%TO.C,D12*%
X165912800Y-60020200D03*
D17*
X165912800Y-57480200D03*
%TD*%
D16*
%TO.C,EM1*%
X230276400Y-125171200D03*
D15*
X236226400Y-127121200D03*
D16*
X236276400Y-139371200D03*
X224226400Y-139321200D03*
D15*
X224226400Y-127121200D03*
%TD*%
D16*
%TO.C,ENA1*%
X47904400Y-125679200D03*
D15*
X53854400Y-127629200D03*
D16*
X53904400Y-139879200D03*
X41854400Y-139829200D03*
D15*
X41854400Y-127629200D03*
%TD*%
D16*
%TO.C,ESL1*%
X253644400Y-125171200D03*
D15*
X259594400Y-127121200D03*
D16*
X259644400Y-139371200D03*
X247594400Y-139321200D03*
D15*
X247594400Y-127121200D03*
%TD*%
%TO.C,ESR1*%
X87066400Y-126867200D03*
D16*
X87066400Y-139067200D03*
X99116400Y-139117200D03*
D15*
X99066400Y-126867200D03*
D16*
X93116400Y-124917200D03*
%TD*%
%TO.C,EST1*%
X115976400Y-124917200D03*
D15*
X121926400Y-126867200D03*
D16*
X121976400Y-139117200D03*
X109926400Y-139067200D03*
D15*
X109926400Y-126867200D03*
%TD*%
D23*
%TO.C,F1*%
X89535000Y-51384200D03*
X89535000Y-56384200D03*
X89535000Y-71384200D03*
X89535000Y-66384200D03*
%TD*%
D24*
%TO.C,J13*%
X90616200Y-6928600D03*
X90616200Y-18968600D03*
D25*
X93326200Y-14198600D03*
X93326200Y-11698600D03*
X95326200Y-11698600D03*
D26*
X95326200Y-14198600D03*
%TD*%
D16*
%TO.C,MP1*%
X183794400Y-124917200D03*
D15*
X189744400Y-126867200D03*
D16*
X189794400Y-139117200D03*
X177744400Y-139067200D03*
D15*
X177744400Y-126867200D03*
%TD*%
D22*
%TO.C,Q1*%
X192024000Y-84429600D03*
D27*
X171704000Y-92049600D03*
X189484000Y-84429600D03*
X174244000Y-92049600D03*
X186944000Y-84429600D03*
X176784000Y-92049600D03*
X184404000Y-84429600D03*
X179324000Y-92049600D03*
X181864000Y-84429600D03*
X181864000Y-92049600D03*
X179324000Y-84429600D03*
X184404000Y-92049600D03*
X176784000Y-84429600D03*
X186944000Y-92049600D03*
X174244000Y-84429600D03*
X189484000Y-92049600D03*
X171704000Y-84429600D03*
X192024000Y-92049600D03*
%TD*%
%TO.C,Q2*%
X122174000Y-91795600D03*
X101854000Y-84175600D03*
X119634000Y-91795600D03*
X104394000Y-84175600D03*
X117094000Y-91795600D03*
X106934000Y-84175600D03*
X114554000Y-91795600D03*
X109474000Y-84175600D03*
X112014000Y-91795600D03*
X112014000Y-84175600D03*
X109474000Y-91795600D03*
X114554000Y-84175600D03*
X106934000Y-91795600D03*
X117094000Y-84175600D03*
X104394000Y-91795600D03*
X119634000Y-84175600D03*
X101854000Y-91795600D03*
D22*
X122174000Y-84175600D03*
%TD*%
D17*
%TO.C,R1*%
X153458400Y-116789200D03*
X162458400Y-116789200D03*
%TD*%
%TO.C,R1.1*%
X188976000Y-47472600D03*
X197976000Y-47472600D03*
%TD*%
%TO.C,R1.2*%
X188976000Y-39598600D03*
X197976000Y-39598600D03*
%TD*%
%TO.C,R2*%
X184810400Y-116535200D03*
X175810400Y-116535200D03*
%TD*%
%TO.C,R3*%
X177038000Y-13690600D03*
X168038000Y-13690600D03*
%TD*%
%TO.C,R4*%
X140360400Y-116535200D03*
X131360400Y-116535200D03*
%TD*%
%TO.C,R5*%
X198162400Y-116535200D03*
X207162400Y-116535200D03*
%TD*%
%TO.C,R6*%
X116738400Y-116789200D03*
X107738400Y-116789200D03*
%TD*%
%TO.C,R7*%
X222292400Y-116027200D03*
X231292400Y-116027200D03*
%TD*%
%TO.C,R8*%
X84624400Y-116535200D03*
X93624400Y-116535200D03*
%TD*%
%TO.C,R9*%
X254660400Y-115773200D03*
X245660400Y-115773200D03*
%TD*%
%TO.C,R10*%
X61510400Y-116535200D03*
X70510400Y-116535200D03*
%TD*%
%TO.C,R11*%
X38904400Y-116535200D03*
X47904400Y-116535200D03*
%TD*%
%TO.C,R12*%
X165912800Y-44162200D03*
X165912800Y-53162200D03*
%TD*%
%TO.C,Rb1*%
X203962000Y-38472600D03*
X203962000Y-47472600D03*
%TD*%
%TO.C,Rf1*%
X198120000Y-9880600D03*
X189120000Y-9880600D03*
%TD*%
%TO.C,Rg1*%
X188866000Y-31470600D03*
X197866000Y-31470600D03*
%TD*%
D15*
%TO.C,SEC1*%
X63444400Y-127375200D03*
D16*
X63444400Y-139575200D03*
X75494400Y-139625200D03*
D15*
X75444400Y-127375200D03*
D16*
X69494400Y-125425200D03*
%TD*%
D15*
%TO.C,SP1*%
X154376400Y-126867200D03*
D16*
X154376400Y-139067200D03*
X166426400Y-139117200D03*
D15*
X166376400Y-126867200D03*
D16*
X160426400Y-124917200D03*
%TD*%
D22*
%TO.C,U1*%
X197104000Y-24358600D03*
D27*
X189484000Y-16738600D03*
X197104000Y-21818600D03*
X189484000Y-19278600D03*
X197104000Y-19278600D03*
X189484000Y-21818600D03*
X197104000Y-16738600D03*
X189484000Y-24358600D03*
%TD*%
%TO.C,U2*%
X189484000Y-3022600D03*
X197104000Y4597400D03*
X189484000Y-482600D03*
X197104000Y2057400D03*
X189484000Y2057400D03*
X197104000Y-482600D03*
X189484000Y4597400D03*
D22*
X197104000Y-3022600D03*
%TD*%
D27*
%TO.C,U3*%
X96850200Y17297400D03*
X89230200Y-482600D03*
X96850200Y14757400D03*
X89230200Y2057400D03*
X96850200Y12217400D03*
X89230200Y4597400D03*
X96850200Y9677400D03*
X89230200Y7137400D03*
X96850200Y7137400D03*
X89230200Y9677400D03*
X96850200Y4597400D03*
X89230200Y12217400D03*
X96850200Y2057400D03*
X89230200Y14757400D03*
X96850200Y-482600D03*
D22*
X89230200Y17297400D03*
%TD*%
M02*
