M48
; DRILL file {KiCad 5.1.10-88a1d61d58~90~ubuntu20.04.1} date Tue Apr 26 09:50:19 2022
; FORMAT={-:-/ absolute / inch / decimal}
; #@! TF.CreationDate,2022-04-26T09:50:19-05:00
; #@! TF.GenerationSoftware,Kicad,Pcbnew,5.1.10-88a1d61d58~90~ubuntu20.04.1
; #@! TF.FileFunction,Plated,1,2,PTH
FMAT,2
INCH
T1C0.0236
T2C0.0315
T3C0.0362
T4C0.0394
T5C0.0400
T6C0.0512
T7C0.0531
T8C0.0917
T9C0.0984
%
G90
G05
T1
X3.273Y0.731
X3.273Y0.6523
X3.273Y0.4997
X3.273Y0.421
X3.273Y0.281
X3.273Y0.2023
X3.273Y0.051
X3.273Y-0.0277
T2
X3.513Y0.681
X3.513Y0.581
X3.513Y0.481
X3.513Y0.381
X3.513Y0.281
X3.513Y0.181
X3.513Y0.081
X3.513Y-0.019
X3.813Y0.681
X3.813Y0.581
X3.813Y0.481
X3.813Y0.381
X3.813Y0.281
X3.813Y0.181
X3.813Y0.081
X3.813Y-0.019
X4.01Y-3.314
X4.01Y-3.614
X4.11Y-3.314
X4.11Y-3.614
X4.21Y-3.314
X4.21Y-3.614
X4.31Y-3.314
X4.31Y-3.614
X4.41Y-3.314
X4.41Y-3.614
X4.51Y-3.314
X4.51Y-3.614
X4.61Y-3.314
X4.61Y-3.614
X4.71Y-3.314
X4.71Y-3.614
X4.81Y-3.314
X4.81Y-3.614
X6.76Y-3.324
X6.76Y-3.624
X6.86Y-3.324
X6.86Y-3.624
X6.96Y-3.324
X6.96Y-3.624
X7.06Y-3.324
X7.06Y-3.624
X7.16Y-3.324
X7.16Y-3.624
X7.26Y-3.324
X7.26Y-3.624
X7.36Y-3.324
X7.36Y-3.624
X7.46Y0.181
X7.46Y0.081
X7.46Y-0.019
X7.46Y-0.119
X7.46Y-0.659
X7.46Y-0.759
X7.46Y-0.859
X7.46Y-0.959
X7.46Y-3.324
X7.46Y-3.624
X7.56Y-3.324
X7.56Y-3.624
X7.76Y0.181
X7.76Y0.081
X7.76Y-0.019
X7.76Y-0.119
X7.76Y-0.659
X7.76Y-0.759
X7.76Y-0.859
X7.76Y-0.959
X7.99Y-0.389
X8.0687Y-0.389
T3
X3.6743Y-0.4606
X3.6743Y-0.559
X3.753Y-0.4606
X3.753Y-0.559
T4
X1.5317Y-4.588
X1.6478Y-5.0248
X1.886Y-4.588
X2.066Y-4.588
X2.1203Y-5.0248
X2.166Y-4.588
X2.4217Y-4.588
X2.4978Y-5.0148
X2.776Y-4.588
X2.966Y-4.588
X2.9703Y-5.0148
X3.066Y-4.588
X3.3317Y-4.588
X3.4278Y-4.9948
X3.686Y-4.588
X3.9003Y-4.9948
X3.916Y-4.588
X4.016Y-4.588
X4.2417Y-4.598
X4.3278Y-4.9948
X4.596Y-4.598
X4.8003Y-4.9948
X4.806Y-4.598
X4.906Y-4.598
X5.1717Y-4.588
X5.2278Y-4.9948
X5.526Y-4.588
X5.61Y-3.3148
X5.61Y-3.614
X5.7003Y-4.9948
X5.716Y-4.588
X5.816Y-4.588
X6.0417Y-4.598
X6.0778Y-4.9948
X6.396Y-4.598
X6.532Y-1.7387
X6.532Y-2.093
X6.532Y-2.263
X6.532Y-2.363
X6.5503Y-4.9948
X6.586Y-4.598
X6.6157Y-0.539
X6.686Y-4.598
X6.9217Y-4.588
X6.97Y-0.539
X6.9978Y-4.9948
X7.15Y-0.539
X7.25Y-0.539
X7.276Y-4.588
X7.4357Y-1.239
X7.44Y-1.559
X7.44Y-1.869
X7.4457Y-0.389
X7.466Y-4.588
X7.4703Y-4.9948
X7.566Y-4.588
X7.79Y-1.239
X7.7943Y-1.559
X7.7943Y-1.869
X7.8Y-0.389
X7.8017Y-4.588
X7.8978Y-5.0048
X8.03Y-1.5147
X8.03Y-1.869
X8.156Y-4.588
X8.3703Y-5.0048
X8.396Y-4.588
X8.496Y-4.588
X8.7517Y-4.568
X8.8278Y-5.0048
X9.106Y-4.568
X9.3003Y-5.0048
X9.306Y-4.568
X9.406Y-4.568
X9.6717Y-4.558
X9.7478Y-5.0048
X10.026Y-4.558
X10.2203Y-5.0048
X10.246Y-4.558
X10.346Y-4.558
T5
X4.285Y0.377
X4.285Y0.277
X4.285Y0.177
X4.285Y0.077
X4.285Y-0.023
X4.285Y-0.123
X4.285Y-0.223
X4.285Y-0.323
X4.285Y-0.423
X4.285Y-0.523
X4.285Y-0.683
X4.285Y-0.783
X4.285Y-0.883
X4.285Y-0.983
X4.285Y-1.083
X4.285Y-1.183
X4.285Y-1.283
X4.285Y-1.383
X4.285Y-1.583
X4.285Y-1.683
X4.285Y-1.783
X4.285Y-1.883
X4.285Y-1.983
X4.285Y-2.083
X4.285Y-2.183
X4.285Y-2.283
X4.285Y-2.583
X4.285Y-2.683
X4.385Y-2.583
X4.385Y-2.683
X4.485Y-2.583
X4.485Y-2.683
X4.585Y-2.583
X4.585Y-2.683
X4.685Y-2.583
X4.685Y-2.683
X4.785Y-2.583
X4.785Y-2.683
X4.885Y-2.583
X4.885Y-2.683
X4.985Y-2.583
X4.985Y-2.683
X5.085Y-1.388
X5.085Y-1.488
X5.085Y-2.583
X5.085Y-2.683
X5.185Y-1.388
X5.185Y-1.488
X5.185Y-2.583
X5.185Y-2.683
X5.285Y-1.388
X5.285Y-1.488
X5.285Y-2.583
X5.285Y-2.683
X5.385Y-2.583
X5.385Y-2.683
X5.485Y-2.583
X5.485Y-2.683
X5.585Y-2.583
X5.585Y-2.683
X5.685Y-2.583
X5.685Y-2.683
X5.785Y-2.583
X5.785Y-2.683
X5.885Y-2.583
X5.885Y-2.683
X5.985Y-2.583
X5.985Y-2.683
X6.185Y0.017
X6.185Y-0.083
X6.185Y-0.183
X6.185Y-0.283
X6.185Y-0.383
X6.185Y-0.483
X6.185Y-0.583
X6.185Y-0.683
X6.185Y-0.883
X6.185Y-0.983
X6.185Y-1.083
X6.185Y-1.183
X6.185Y-1.283
X6.185Y-1.383
X6.185Y-1.483
X6.185Y-1.583
X6.185Y-1.783
X6.185Y-1.883
X6.185Y-1.983
X6.185Y-2.083
X6.185Y-2.183
X6.185Y-2.283
X6.185Y-2.383
X6.185Y-2.483
T6
X1.6478Y-5.5051
X1.796Y-6.048
X1.886Y-4.948
X1.9929Y-6.048
X2.1222Y-5.5071
X2.4978Y-5.4951
X2.676Y-6.038
X2.736Y-4.938
X2.8729Y-6.038
X2.9722Y-5.4971
X3.4278Y-5.4751
X3.525Y-1.373
X3.525Y-1.5699
X3.536Y-6.038
X3.666Y-4.918
X3.7329Y-6.038
X3.9022Y-5.4771
X4.3278Y-5.4751
X4.446Y-6.038
X4.566Y-4.918
X4.6429Y-6.038
X4.8022Y-5.4771
X5.2278Y-5.4751
X5.366Y-6.038
X5.466Y-4.918
X5.5629Y-6.038
X5.7022Y-5.4771
X6.0778Y-5.4751
X6.246Y-6.038
X6.316Y-4.918
X6.4429Y-6.038
X6.5522Y-5.4771
X6.9978Y-5.4751
X7.146Y-6.038
X7.236Y-4.918
X7.3429Y-6.038
X7.4722Y-5.4771
X7.8978Y-5.4851
X8.076Y-6.048
X8.136Y-4.928
X8.2729Y-6.048
X8.3722Y-5.4871
X8.476Y0.005
X8.476Y-0.195
X8.476Y-0.395
X8.476Y-0.655
X8.476Y-0.855
X8.476Y-1.055
X8.476Y-1.325
X8.476Y-1.525
X8.476Y-1.725
X8.476Y-1.9981
X8.476Y-2.195
X8.476Y-2.4581
X8.476Y-2.655
X8.476Y-2.915
X8.476Y-3.115
X8.476Y-3.315
X8.736Y-6.048
X8.8278Y-5.4851
X8.936Y-6.048
X9.066Y-4.928
X9.136Y-6.048
X9.3022Y-5.4871
X9.336Y-6.048
X9.7478Y-5.4851
X9.856Y-6.048
X9.986Y-4.928
X10.0529Y-6.048
X10.2222Y-5.4871
T7
X3.525Y-2.023
X3.525Y-2.2199
X3.525Y-2.6136
X3.525Y-2.8104
T8
X3.5676Y-0.2728
X3.5676Y-0.7468
T9
X1.126Y-3.523
X1.126Y-6.522
X2.926Y0.781
X8.946Y0.783
X10.74Y-3.523
X10.74Y-6.522
T4
G00X6.722Y-0.0135
M15
G01X6.722Y-0.0923
M16
G05
G00X6.9464Y0.0652
M15
G01X6.8676Y0.0652
M16
G05
G00X6.9464Y-0.171
M15
G01X6.8676Y-0.171
M16
G05
T0
M30
