%TF.GenerationSoftware,KiCad,Pcbnew,5.1.10-88a1d61d58~90~ubuntu20.04.1*%
%TF.CreationDate,2022-04-26T09:50:21-05:00*%
%TF.ProjectId,Autoclave_2.0,4175746f-636c-4617-9665-5f322e302e6b,rev?*%
%TF.SameCoordinates,Original*%
%TF.FileFunction,Copper,L1,Top*%
%TF.FilePolarity,Positive*%
%FSLAX46Y46*%
G04 Gerber Fmt 4.6, Leading zero omitted, Abs format (unit mm)*
G04 Created by KiCad (PCBNEW 5.1.10-88a1d61d58~90~ubuntu20.04.1) date 2022-04-26 09:50:21*
%MOMM*%
%LPD*%
G01*
G04 APERTURE LIST*
%TA.AperFunction,ComponentPad*%
%ADD10C,5.000000*%
%TD*%
%TA.AperFunction,ComponentPad*%
%ADD11O,1.727200X1.727200*%
%TD*%
%TA.AperFunction,ComponentPad*%
%ADD12R,3.500000X3.500000*%
%TD*%
%TA.AperFunction,ComponentPad*%
%ADD13R,2.500000X2.500000*%
%TD*%
%TA.AperFunction,ComponentPad*%
%ADD14C,2.500000*%
%TD*%
%TA.AperFunction,ComponentPad*%
%ADD15C,3.000000*%
%TD*%
%TA.AperFunction,ComponentPad*%
%ADD16C,2.000000*%
%TD*%
%TA.AperFunction,ComponentPad*%
%ADD17R,2.000000X2.000000*%
%TD*%
%TA.AperFunction,ComponentPad*%
%ADD18R,1.200000X1.200000*%
%TD*%
%TA.AperFunction,ComponentPad*%
%ADD19C,1.200000*%
%TD*%
%TA.AperFunction,ComponentPad*%
%ADD20C,1.600000*%
%TD*%
%TA.AperFunction,ComponentPad*%
%ADD21R,1.600000X1.600000*%
%TD*%
%TA.AperFunction,ComponentPad*%
%ADD22C,2.350000*%
%TD*%
%TA.AperFunction,ComponentPad*%
%ADD23C,3.500000*%
%TD*%
%TA.AperFunction,ComponentPad*%
%ADD24C,1.700000*%
%TD*%
%TA.AperFunction,ComponentPad*%
%ADD25R,1.700000X1.700000*%
%TD*%
%TA.AperFunction,ComponentPad*%
%ADD26O,1.600000X1.600000*%
%TD*%
%TA.AperFunction,Conductor*%
%ADD27C,0.500000*%
%TD*%
%TA.AperFunction,Conductor*%
%ADD28C,0.250000*%
%TD*%
G04 APERTURE END LIST*
D10*
%TO.P,REF\u002A\u002A,1*%
%TO.N,N/C*%
X272796000Y-89484200D03*
%TD*%
%TO.P,REF\u002A\u002A,1*%
%TO.N,N/C*%
X272796000Y-165658800D03*
%TD*%
D11*
%TO.P,XA1,MISO*%
%TO.N,Net-(XA1-PadMISO)*%
X129159000Y-35255200D03*
%TO.P,XA1,GND6*%
%TO.N,GND*%
X152019000Y-68148200D03*
%TO.P,XA1,GND5*%
X152019000Y-65608200D03*
%TO.P,XA1,D53*%
%TO.N,Net-(Q1-Pad5)*%
X149479000Y-68148200D03*
%TO.P,XA1,D52*%
%TO.N,Net-(Q1-Pad4)*%
X149479000Y-65608200D03*
%TO.P,XA1,D51*%
%TO.N,Net-(Q1-Pad6)*%
X146939000Y-68148200D03*
%TO.P,XA1,D50*%
%TO.N,Net-(Q1-Pad3)*%
X146939000Y-65608200D03*
%TO.P,XA1,D49*%
%TO.N,Net-(Q1-Pad7)*%
X144399000Y-68148200D03*
%TO.P,XA1,D48*%
%TO.N,Net-(Q1-Pad2)*%
X144399000Y-65608200D03*
%TO.P,XA1,D47*%
%TO.N,Net-(Q1-Pad8)*%
X141859000Y-68148200D03*
%TO.P,XA1,D46*%
%TO.N,Net-(Q1-Pad1)*%
X141859000Y-65608200D03*
%TO.P,XA1,D45*%
%TO.N,Net-(Q2-Pad1)*%
X139319000Y-68148200D03*
%TO.P,XA1,D44*%
%TO.N,Net-(Q2-Pad2)*%
X139319000Y-65608200D03*
%TO.P,XA1,D43*%
%TO.N,Net-(Q2-Pad3)*%
X136779000Y-68148200D03*
%TO.P,XA1,D42*%
%TO.N,Net-(XA1-PadD42)*%
X136779000Y-65608200D03*
%TO.P,XA1,D41*%
%TO.N,Net-(XA1-PadD41)*%
X134239000Y-68148200D03*
%TO.P,XA1,D40*%
%TO.N,Net-(XA1-PadD40)*%
X134239000Y-65608200D03*
%TO.P,XA1,D39*%
%TO.N,Net-(XA1-PadD39)*%
X131699000Y-68148200D03*
%TO.P,XA1,D38*%
%TO.N,Net-(XA1-PadD38)*%
X131699000Y-65608200D03*
%TO.P,XA1,D37*%
%TO.N,Net-(XA1-PadD37)*%
X129159000Y-68148200D03*
%TO.P,XA1,D36*%
%TO.N,Net-(XA1-PadD36)*%
X129159000Y-65608200D03*
%TO.P,XA1,D35*%
%TO.N,Net-(XA1-PadD35)*%
X126619000Y-68148200D03*
%TO.P,XA1,D34*%
%TO.N,Net-(XA1-PadD34)*%
X126619000Y-65608200D03*
%TO.P,XA1,D33*%
%TO.N,Net-(XA1-PadD33)*%
X124079000Y-68148200D03*
%TO.P,XA1,D32*%
%TO.N,Net-(XA1-PadD32)*%
X124079000Y-65608200D03*
%TO.P,XA1,D31*%
%TO.N,Net-(XA1-PadD31)*%
X121539000Y-68148200D03*
%TO.P,XA1,D30*%
%TO.N,Net-(XA1-PadD30)*%
X121539000Y-65608200D03*
%TO.P,XA1,D29*%
%TO.N,Net-(XA1-PadD29)*%
X118999000Y-68148200D03*
%TO.P,XA1,D28*%
%TO.N,Net-(XA1-PadD28)*%
X118999000Y-65608200D03*
%TO.P,XA1,D27*%
%TO.N,Net-(XA1-PadD27)*%
X116459000Y-68148200D03*
%TO.P,XA1,D26*%
%TO.N,Net-(XA1-PadD26)*%
X116459000Y-65608200D03*
%TO.P,XA1,D25*%
%TO.N,Net-(XA1-PadD25)*%
X113919000Y-68148200D03*
%TO.P,XA1,D24*%
%TO.N,Net-(XA1-PadD24)*%
X113919000Y-65608200D03*
%TO.P,XA1,D23*%
%TO.N,Net-(XA1-PadD23)*%
X111379000Y-68148200D03*
%TO.P,XA1,D22*%
%TO.N,Net-(XA1-PadD22)*%
X111379000Y-65608200D03*
%TO.P,XA1,5V4*%
%TO.N,+5V*%
X108839000Y-68148200D03*
%TO.P,XA1,5V3*%
X108839000Y-65608200D03*
%TO.P,XA1,A15*%
%TO.N,Net-(XA1-PadA15)*%
X157099000Y-63068200D03*
%TO.P,XA1,A14*%
%TO.N,Net-(XA1-PadA14)*%
X157099000Y-60528200D03*
%TO.P,XA1,A13*%
%TO.N,Net-(XA1-PadA13)*%
X157099000Y-57988200D03*
%TO.P,XA1,A12*%
%TO.N,Net-(XA1-PadA12)*%
X157099000Y-55448200D03*
%TO.P,XA1,A11*%
%TO.N,Net-(XA1-PadA11)*%
X157099000Y-52908200D03*
%TO.P,XA1,A10*%
%TO.N,Net-(XA1-PadA10)*%
X157099000Y-50368200D03*
%TO.P,XA1,A9*%
%TO.N,Net-(XA1-PadA9)*%
X157099000Y-47828200D03*
%TO.P,XA1,A8*%
%TO.N,Net-(XA1-PadA8)*%
X157099000Y-45288200D03*
%TO.P,XA1,A7*%
%TO.N,Net-(Nivel1-Pad1)*%
X157099000Y-40208200D03*
%TO.P,XA1,A6*%
%TO.N,Net-(Nivel1-Pad3)*%
X157099000Y-37668200D03*
%TO.P,XA1,A5*%
%TO.N,Net-(Blanca1-Pad2)*%
X157099000Y-35128200D03*
%TO.P,XA1,A4*%
%TO.N,Net-(Gris1-Pad2)*%
X157099000Y-32588200D03*
%TO.P,XA1,A3*%
%TO.N,Net-(XA1-PadA3)*%
X157099000Y-30048200D03*
%TO.P,XA1,A2*%
%TO.N,Net-(P_EX1-Pad2)*%
X157099000Y-27508200D03*
%TO.P,XA1,A1*%
%TO.N,Net-(P_IN1-Pad2)*%
X157099000Y-24968200D03*
%TO.P,XA1,*%
%TO.N,*%
X157099000Y431800D03*
%TO.P,XA1,D11*%
%TO.N,Net-(XA1-PadD11)*%
X108839000Y-5664200D03*
%TO.P,XA1,D12*%
%TO.N,Net-(XA1-PadD12)*%
X108839000Y-3124200D03*
%TO.P,XA1,D13*%
%TO.N,Net-(XA1-PadD13)*%
X108839000Y-584200D03*
%TO.P,XA1,AREF*%
%TO.N,Net-(XA1-PadAREF)*%
X108839000Y4495800D03*
%TO.P,XA1,SDA*%
%TO.N,Net-(XA1-PadSDA)*%
X108839000Y7035800D03*
%TO.P,XA1,SCL*%
%TO.N,Net-(XA1-PadSCL)*%
X108839000Y9575800D03*
%TO.P,XA1,D10*%
%TO.N,Net-(XA1-PadD10)*%
X108839000Y-8204200D03*
%TO.P,XA1,D9*%
%TO.N,Net-(XA1-PadD9)*%
X108839000Y-10744200D03*
%TO.P,XA1,D8*%
%TO.N,Net-(XA1-PadD8)*%
X108839000Y-13284200D03*
%TO.P,XA1,GND1*%
%TO.N,GND*%
X108839000Y1955800D03*
%TO.P,XA1,D7*%
%TO.N,Net-(XA1-PadD7)*%
X108839000Y-17348200D03*
%TO.P,XA1,D6*%
%TO.N,Net-(XA1-PadD6)*%
X108839000Y-19888200D03*
%TO.P,XA1,D5*%
%TO.N,Net-(XA1-PadD5)*%
X108839000Y-22428200D03*
%TO.P,XA1,D4*%
%TO.N,Net-(XA1-PadD4)*%
X108839000Y-24968200D03*
%TO.P,XA1,D3*%
%TO.N,Net-(XA1-PadD3)*%
X108839000Y-27508200D03*
%TO.P,XA1,D2*%
%TO.N,Net-(XA1-PadD2)*%
X108839000Y-30048200D03*
%TO.P,XA1,D1*%
%TO.N,Net-(XA1-PadD1)*%
X108839000Y-32588200D03*
%TO.P,XA1,D0*%
%TO.N,Net-(XA1-PadD0)*%
X108839000Y-35128200D03*
%TO.P,XA1,D14*%
%TO.N,Net-(R12-Pad2)*%
X108839000Y-40208200D03*
%TO.P,XA1,D15*%
%TO.N,Net-(XA1-PadD15)*%
X108839000Y-42748200D03*
%TO.P,XA1,D16*%
%TO.N,Net-(XA1-PadD16)*%
X108839000Y-45288200D03*
%TO.P,XA1,D17*%
%TO.N,Net-(XA1-PadD17)*%
X108839000Y-47828200D03*
%TO.P,XA1,D18*%
%TO.N,Net-(U3-Pad10)*%
X108839000Y-50368200D03*
%TO.P,XA1,D19*%
%TO.N,Net-(U3-Pad9)*%
X108839000Y-52908200D03*
%TO.P,XA1,D20*%
%TO.N,Net-(XA1-PadD20)*%
X108839000Y-55448200D03*
%TO.P,XA1,D21*%
%TO.N,Net-(XA1-PadD21)*%
X108839000Y-57988200D03*
%TO.P,XA1,IORF*%
%TO.N,Net-(XA1-PadIORF)*%
X157099000Y-2108200D03*
%TO.P,XA1,RST1*%
%TO.N,Net-(XA1-PadRST1)*%
X157099000Y-4648200D03*
%TO.P,XA1,3V3*%
%TO.N,Net-(XA1-Pad3V3)*%
X157099000Y-7188200D03*
%TO.P,XA1,5V1*%
%TO.N,+5V*%
X157099000Y-9728200D03*
%TO.P,XA1,GND2*%
%TO.N,GND*%
X157099000Y-12268200D03*
%TO.P,XA1,GND3*%
X157099000Y-14808200D03*
%TO.P,XA1,VIN*%
%TO.N,+12V*%
X157099000Y-17348200D03*
%TO.P,XA1,A0*%
%TO.N,Net-(U2-Pad2)*%
X157099000Y-22428200D03*
%TO.P,XA1,5V2*%
%TO.N,Net-(XA1-Pad5V2)*%
X129159000Y-37795200D03*
%TO.P,XA1,SCK*%
%TO.N,Net-(XA1-PadSCK)*%
X131699000Y-35255200D03*
%TO.P,XA1,MOSI*%
%TO.N,Net-(XA1-PadMOSI)*%
X131699000Y-37795200D03*
%TO.P,XA1,GND4*%
%TO.N,Net-(XA1-PadGND4)*%
X134239000Y-37795200D03*
%TO.P,XA1,RST2*%
%TO.N,Net-(XA1-PadRST2)*%
X134239000Y-35255200D03*
%TD*%
D10*
%TO.P,REF\u002A\u002A,1*%
%TO.N,N/C*%
X28600400Y-89484200D03*
%TD*%
%TO.P,REF\u002A\u002A,1*%
%TO.N,N/C*%
X28600400Y-165658800D03*
%TD*%
%TO.P,REF\u002A\u002A,1*%
%TO.N,N/C*%
X74320400Y19837400D03*
%TD*%
%TO.P,REF\u002A\u002A,1*%
%TO.N,N/C*%
X227228400Y19888200D03*
%TD*%
D12*
%TO.P,J4,1*%
%TO.N,GND*%
X175437800Y-4343400D03*
%TO.P,J4,2*%
%TO.N,-12V*%
%TA.AperFunction,ComponentPad*%
G36*
G01*
X174437800Y3156600D02*
X176437800Y3156600D01*
G75*
G02*
X177187800Y2406600I0J-750000D01*
G01*
X177187800Y906600D01*
G75*
G02*
X176437800Y156600I-750000J0D01*
G01*
X174437800Y156600D01*
G75*
G02*
X173687800Y906600I0J750000D01*
G01*
X173687800Y2406600D01*
G75*
G02*
X174437800Y3156600I750000J0D01*
G01*
G37*
%TD.AperFunction*%
%TO.P,J4,3*%
%TO.N,N/C*%
%TA.AperFunction,ComponentPad*%
G36*
G01*
X169862800Y406600D02*
X171612800Y406600D01*
G75*
G02*
X172487800Y-468400I0J-875000D01*
G01*
X172487800Y-2218400D01*
G75*
G02*
X171612800Y-3093400I-875000J0D01*
G01*
X169862800Y-3093400D01*
G75*
G02*
X168987800Y-2218400I0J875000D01*
G01*
X168987800Y-468400D01*
G75*
G02*
X169862800Y406600I875000J0D01*
G01*
G37*
%TD.AperFunction*%
%TD*%
D13*
%TO.P,Blanca1,1*%
%TO.N,GND*%
X215290400Y-67437000D03*
D14*
%TO.P,Blanca1,2*%
%TO.N,Net-(Blanca1-Pad2)*%
X215290400Y-62437000D03*
%TD*%
D13*
%TO.P,T_EX1,1*%
%TO.N,GND*%
X215290400Y-10033000D03*
D14*
%TO.P,T_EX1,2*%
%TO.N,Net-(R1.2-Pad2)*%
X215290400Y-4953000D03*
%TO.P,T_EX1,3*%
X215290400Y127000D03*
%TD*%
D13*
%TO.P,P_IN1,1*%
%TO.N,GND*%
X215290400Y-26797000D03*
D14*
%TO.P,P_IN1,2*%
%TO.N,Net-(P_IN1-Pad2)*%
X215290400Y-21717000D03*
%TO.P,P_IN1,3*%
%TO.N,+12V*%
X215290400Y-16637000D03*
%TD*%
D13*
%TO.P,P_EX1,1*%
%TO.N,GND*%
X215290400Y-43815000D03*
D14*
%TO.P,P_EX1,2*%
%TO.N,Net-(P_EX1-Pad2)*%
X215290400Y-38735000D03*
%TO.P,P_EX1,3*%
%TO.N,+12V*%
X215290400Y-33655000D03*
%TD*%
D13*
%TO.P,Nivel1,1*%
%TO.N,Net-(Nivel1-Pad1)*%
X215290400Y-84201000D03*
D14*
%TO.P,Nivel1,2*%
%TO.N,GND*%
X215290400Y-79121000D03*
%TO.P,Nivel1,3*%
%TO.N,Net-(Nivel1-Pad3)*%
X215290400Y-74041000D03*
%TD*%
D13*
%TO.P,J12,1*%
%TO.N,Net-(ENA1-Pad3)*%
X45618400Y-153619200D03*
D14*
%TO.P,J12,2*%
%TO.N,NEUT*%
X50618400Y-153619200D03*
%TD*%
D13*
%TO.P,J11,1*%
%TO.N,Net-(J11-Pad1)*%
X67970400Y-153365200D03*
D14*
%TO.P,J11,2*%
%TO.N,NEUT*%
X72970400Y-153365200D03*
%TD*%
D13*
%TO.P,J10,1*%
%TO.N,Net-(ESL1-Pad3)*%
X250342400Y-153619200D03*
D14*
%TO.P,J10,2*%
%TO.N,NEUT*%
X255342400Y-153619200D03*
%TD*%
D13*
%TO.P,J9,1*%
%TO.N,Net-(ESR1-Pad3)*%
X89814400Y-153365200D03*
D14*
%TO.P,J9,2*%
%TO.N,NEUT*%
X94814400Y-153365200D03*
%TD*%
D13*
%TO.P,J8,1*%
%TO.N,Net-(EM1-Pad3)*%
X221894400Y-153619200D03*
D14*
%TO.P,J8,2*%
%TO.N,NEUT*%
X226974400Y-153619200D03*
%TO.P,J8,3*%
X232054400Y-153619200D03*
%TO.P,J8,4*%
%TO.N,Net-(EM1-Pad4)*%
X237134400Y-153619200D03*
%TD*%
D13*
%TO.P,J7,1*%
%TO.N,Net-(EST1-Pad3)*%
X112928400Y-153365200D03*
D14*
%TO.P,J7,2*%
%TO.N,NEUT*%
X117928400Y-153365200D03*
%TD*%
D13*
%TO.P,J6,1*%
%TO.N,Net-(CNT1-Pad3)*%
X205130400Y-153619200D03*
D14*
%TO.P,J6,2*%
%TO.N,NEUT*%
X210130400Y-153619200D03*
%TD*%
D13*
%TO.P,J5,1*%
%TO.N,Net-(BMB1-Pad3)*%
X136296400Y-153365200D03*
D14*
%TO.P,J5,2*%
%TO.N,NEUT*%
X141296400Y-153365200D03*
%TD*%
D13*
%TO.P,J3,1*%
%TO.N,Net-(J3-Pad1)*%
X181508400Y-153365200D03*
D14*
%TO.P,J3,2*%
%TO.N,NEUT*%
X186508400Y-153365200D03*
%TD*%
D13*
%TO.P,J2,1*%
%TO.N,Net-(J2-Pad1)*%
X158648400Y-153365200D03*
D14*
%TO.P,J2,2*%
%TO.N,NEUT*%
X163648400Y-153365200D03*
%TD*%
D13*
%TO.P,J1,1*%
%TO.N,Net-(F1-Pad1)*%
X89535000Y-34874200D03*
D14*
%TO.P,J1,2*%
%TO.N,NEUT*%
X89535000Y-39874200D03*
%TD*%
D13*
%TO.P,Gris1,1*%
%TO.N,GND*%
X215290400Y-55753000D03*
D14*
%TO.P,Gris1,2*%
%TO.N,Net-(Gris1-Pad2)*%
X215290400Y-50753000D03*
%TD*%
%TO.P,BMB1,2*%
%TO.N,+12V*%
X132786400Y-126867200D03*
D15*
%TO.P,BMB1,3*%
%TO.N,Net-(BMB1-Pad3)*%
X132786400Y-139067200D03*
%TO.P,BMB1,4*%
%TO.N,Net-(BMB1-Pad4)*%
X144836400Y-139117200D03*
D14*
%TO.P,BMB1,5*%
%TO.N,Net-(BMB1-Pad5)*%
X144786400Y-126867200D03*
D15*
%TO.P,BMB1,1*%
%TO.N,LINE*%
X138836400Y-124917200D03*
%TD*%
D16*
%TO.P,Buzzer1,2*%
%TO.N,+12V*%
X142494000Y-84195600D03*
D17*
%TO.P,Buzzer1,1*%
%TO.N,Net-(Buzzer1-Pad1)*%
X142494000Y-91795600D03*
%TD*%
D18*
%TO.P,C1,1*%
%TO.N,Net-(C1-Pad1)*%
X83134200Y7137400D03*
D19*
%TO.P,C1,2*%
%TO.N,Net-(C1-Pad2)*%
X83134200Y5137400D03*
%TD*%
%TO.P,C2,2*%
%TO.N,Net-(C2-Pad2)*%
X83134200Y-704600D03*
D18*
%TO.P,C2,1*%
%TO.N,GND*%
X83134200Y1295400D03*
%TD*%
%TO.P,C3,1*%
%TO.N,Net-(C3-Pad1)*%
X83134200Y12693400D03*
D19*
%TO.P,C3,2*%
%TO.N,GND*%
X83134200Y10693400D03*
%TD*%
%TO.P,C4,2*%
%TO.N,Net-(C4-Pad2)*%
X83134200Y16567400D03*
D18*
%TO.P,C4,1*%
%TO.N,Net-(C4-Pad1)*%
X83134200Y18567400D03*
%TD*%
D20*
%TO.P,Cf1,2*%
%TO.N,GND*%
X204946000Y-9880600D03*
D21*
%TO.P,Cf1,1*%
%TO.N,Net-(Cf1-Pad1)*%
X202946000Y-9880600D03*
%TD*%
D14*
%TO.P,CNT1,2*%
%TO.N,+12V*%
X200604400Y-127121200D03*
D15*
%TO.P,CNT1,3*%
%TO.N,Net-(CNT1-Pad3)*%
X200604400Y-139321200D03*
%TO.P,CNT1,4*%
%TO.N,Net-(CNT1-Pad4)*%
X212654400Y-139371200D03*
D14*
%TO.P,CNT1,5*%
%TO.N,Net-(CNT1-Pad5)*%
X212604400Y-127121200D03*
D15*
%TO.P,CNT1,1*%
%TO.N,LINE*%
X206654400Y-125171200D03*
%TD*%
D17*
%TO.P,D1,1*%
%TO.N,Net-(D1-Pad1)*%
X169824400Y-116789200D03*
D16*
%TO.P,D1,2*%
%TO.N,Net-(D1-Pad2)*%
X167284400Y-116789200D03*
%TD*%
%TO.P,D2,2*%
%TO.N,Net-(D2-Pad2)*%
X189636400Y-116535200D03*
D17*
%TO.P,D2,1*%
%TO.N,Net-(D2-Pad1)*%
X192176400Y-116535200D03*
%TD*%
D16*
%TO.P,D3,2*%
%TO.N,GND*%
X184150000Y-13690600D03*
D17*
%TO.P,D3,1*%
%TO.N,Net-(D3-Pad1)*%
X181610000Y-13690600D03*
%TD*%
%TO.P,D4,1*%
%TO.N,Net-(BMB1-Pad5)*%
X147726400Y-116535200D03*
D16*
%TO.P,D4,2*%
%TO.N,Net-(D4-Pad2)*%
X145186400Y-116535200D03*
%TD*%
%TO.P,D5,2*%
%TO.N,Net-(D5-Pad2)*%
X213258400Y-116535200D03*
D17*
%TO.P,D5,1*%
%TO.N,Net-(CNT1-Pad5)*%
X215798400Y-116535200D03*
%TD*%
%TO.P,D6,1*%
%TO.N,Net-(D6-Pad1)*%
X124612400Y-116789200D03*
D16*
%TO.P,D6,2*%
%TO.N,Net-(D6-Pad2)*%
X122072400Y-116789200D03*
%TD*%
%TO.P,D7,2*%
%TO.N,Net-(D7-Pad2)*%
X236372400Y-116027200D03*
D17*
%TO.P,D7,1*%
%TO.N,Net-(D7-Pad1)*%
X238912400Y-116027200D03*
%TD*%
%TO.P,D8,1*%
%TO.N,Net-(D8-Pad1)*%
X102006400Y-116535200D03*
D16*
%TO.P,D8,2*%
%TO.N,Net-(D8-Pad2)*%
X99466400Y-116535200D03*
%TD*%
%TO.P,D9,2*%
%TO.N,Net-(D9-Pad2)*%
X260248400Y-115773200D03*
D17*
%TO.P,D9,1*%
%TO.N,Net-(D9-Pad1)*%
X262788400Y-115773200D03*
%TD*%
%TO.P,D10,1*%
%TO.N,Net-(D10-Pad1)*%
X77876400Y-116535200D03*
D16*
%TO.P,D10,2*%
%TO.N,Net-(D10-Pad2)*%
X75336400Y-116535200D03*
%TD*%
%TO.P,D11,2*%
%TO.N,Net-(D11-Pad2)*%
X52476400Y-116535200D03*
D17*
%TO.P,D11,1*%
%TO.N,Net-(D11-Pad1)*%
X55016400Y-116535200D03*
%TD*%
%TO.P,D12,1*%
%TO.N,GND*%
X165912800Y-60020200D03*
D16*
%TO.P,D12,2*%
%TO.N,Net-(D12-Pad2)*%
X165912800Y-57480200D03*
%TD*%
D15*
%TO.P,EM1,1*%
%TO.N,LINE*%
X230276400Y-125171200D03*
D14*
%TO.P,EM1,5*%
%TO.N,Net-(D7-Pad1)*%
X236226400Y-127121200D03*
D15*
%TO.P,EM1,4*%
%TO.N,Net-(EM1-Pad4)*%
X236276400Y-139371200D03*
%TO.P,EM1,3*%
%TO.N,Net-(EM1-Pad3)*%
X224226400Y-139321200D03*
D14*
%TO.P,EM1,2*%
%TO.N,+12V*%
X224226400Y-127121200D03*
%TD*%
D15*
%TO.P,ENA1,1*%
%TO.N,LINE*%
X47904400Y-125679200D03*
D14*
%TO.P,ENA1,5*%
%TO.N,Net-(D11-Pad1)*%
X53854400Y-127629200D03*
D15*
%TO.P,ENA1,4*%
%TO.N,Net-(ENA1-Pad4)*%
X53904400Y-139879200D03*
%TO.P,ENA1,3*%
%TO.N,Net-(ENA1-Pad3)*%
X41854400Y-139829200D03*
D14*
%TO.P,ENA1,2*%
%TO.N,+12V*%
X41854400Y-127629200D03*
%TD*%
D15*
%TO.P,ESL1,1*%
%TO.N,LINE*%
X253644400Y-125171200D03*
D14*
%TO.P,ESL1,5*%
%TO.N,Net-(D9-Pad1)*%
X259594400Y-127121200D03*
D15*
%TO.P,ESL1,4*%
%TO.N,Net-(ESL1-Pad4)*%
X259644400Y-139371200D03*
%TO.P,ESL1,3*%
%TO.N,Net-(ESL1-Pad3)*%
X247594400Y-139321200D03*
D14*
%TO.P,ESL1,2*%
%TO.N,+12V*%
X247594400Y-127121200D03*
%TD*%
%TO.P,ESR1,2*%
%TO.N,+12V*%
X87066400Y-126867200D03*
D15*
%TO.P,ESR1,3*%
%TO.N,Net-(ESR1-Pad3)*%
X87066400Y-139067200D03*
%TO.P,ESR1,4*%
%TO.N,Net-(ESR1-Pad4)*%
X99116400Y-139117200D03*
D14*
%TO.P,ESR1,5*%
%TO.N,Net-(D8-Pad1)*%
X99066400Y-126867200D03*
D15*
%TO.P,ESR1,1*%
%TO.N,LINE*%
X93116400Y-124917200D03*
%TD*%
%TO.P,EST1,1*%
%TO.N,LINE*%
X115976400Y-124917200D03*
D14*
%TO.P,EST1,5*%
%TO.N,Net-(D6-Pad1)*%
X121926400Y-126867200D03*
D15*
%TO.P,EST1,4*%
%TO.N,Net-(EST1-Pad4)*%
X121976400Y-139117200D03*
%TO.P,EST1,3*%
%TO.N,Net-(EST1-Pad3)*%
X109926400Y-139067200D03*
D14*
%TO.P,EST1,2*%
%TO.N,+12V*%
X109926400Y-126867200D03*
%TD*%
D22*
%TO.P,F1,1*%
%TO.N,Net-(F1-Pad1)*%
X89535000Y-51384200D03*
X89535000Y-56384200D03*
%TO.P,F1,2*%
%TO.N,LINE*%
X89535000Y-71384200D03*
X89535000Y-66384200D03*
%TD*%
D23*
%TO.P,J13,5*%
%TO.N,Net-(J13-Pad5)*%
X90616200Y-6928600D03*
X90616200Y-18968600D03*
D24*
%TO.P,J13,4*%
%TO.N,GND*%
X93326200Y-14198600D03*
%TO.P,J13,3*%
%TO.N,Net-(J13-Pad3)*%
X93326200Y-11698600D03*
%TO.P,J13,2*%
%TO.N,Net-(J13-Pad2)*%
X95326200Y-11698600D03*
D25*
%TO.P,J13,1*%
%TO.N,+12V*%
X95326200Y-14198600D03*
%TD*%
D15*
%TO.P,MP1,1*%
%TO.N,LINE*%
X183794400Y-124917200D03*
D14*
%TO.P,MP1,5*%
%TO.N,Net-(D2-Pad1)*%
X189744400Y-126867200D03*
D15*
%TO.P,MP1,4*%
%TO.N,Net-(MP1-Pad4)*%
X189794400Y-139117200D03*
%TO.P,MP1,3*%
%TO.N,Net-(J3-Pad1)*%
X177744400Y-139067200D03*
D14*
%TO.P,MP1,2*%
%TO.N,+12V*%
X177744400Y-126867200D03*
%TD*%
D21*
%TO.P,Q1,1*%
%TO.N,Net-(Q1-Pad1)*%
X192024000Y-84429600D03*
D26*
%TO.P,Q1,10*%
%TO.N,+12V*%
X171704000Y-92049600D03*
%TO.P,Q1,2*%
%TO.N,Net-(Q1-Pad2)*%
X189484000Y-84429600D03*
%TO.P,Q1,11*%
%TO.N,Net-(D8-Pad1)*%
X174244000Y-92049600D03*
%TO.P,Q1,3*%
%TO.N,Net-(Q1-Pad3)*%
X186944000Y-84429600D03*
%TO.P,Q1,12*%
%TO.N,Net-(D6-Pad1)*%
X176784000Y-92049600D03*
%TO.P,Q1,4*%
%TO.N,Net-(Q1-Pad4)*%
X184404000Y-84429600D03*
%TO.P,Q1,13*%
%TO.N,Net-(BMB1-Pad5)*%
X179324000Y-92049600D03*
%TO.P,Q1,5*%
%TO.N,Net-(Q1-Pad5)*%
X181864000Y-84429600D03*
%TO.P,Q1,14*%
%TO.N,Net-(D1-Pad1)*%
X181864000Y-92049600D03*
%TO.P,Q1,6*%
%TO.N,Net-(Q1-Pad6)*%
X179324000Y-84429600D03*
%TO.P,Q1,15*%
%TO.N,Net-(D2-Pad1)*%
X184404000Y-92049600D03*
%TO.P,Q1,7*%
%TO.N,Net-(Q1-Pad7)*%
X176784000Y-84429600D03*
%TO.P,Q1,16*%
%TO.N,Net-(CNT1-Pad5)*%
X186944000Y-92049600D03*
%TO.P,Q1,8*%
%TO.N,Net-(Q1-Pad8)*%
X174244000Y-84429600D03*
%TO.P,Q1,17*%
%TO.N,Net-(D7-Pad1)*%
X189484000Y-92049600D03*
%TO.P,Q1,9*%
%TO.N,GND*%
X171704000Y-84429600D03*
%TO.P,Q1,18*%
%TO.N,Net-(D9-Pad1)*%
X192024000Y-92049600D03*
%TD*%
%TO.P,Q2,18*%
%TO.N,Net-(D10-Pad1)*%
X122174000Y-91795600D03*
%TO.P,Q2,9*%
%TO.N,GND*%
X101854000Y-84175600D03*
%TO.P,Q2,17*%
%TO.N,Net-(D11-Pad1)*%
X119634000Y-91795600D03*
%TO.P,Q2,8*%
%TO.N,Net-(Q2-Pad8)*%
X104394000Y-84175600D03*
%TO.P,Q2,16*%
%TO.N,Net-(Buzzer1-Pad1)*%
X117094000Y-91795600D03*
%TO.P,Q2,7*%
%TO.N,Net-(Q2-Pad7)*%
X106934000Y-84175600D03*
%TO.P,Q2,15*%
%TO.N,Net-(Q2-Pad15)*%
X114554000Y-91795600D03*
%TO.P,Q2,6*%
%TO.N,Net-(Q2-Pad6)*%
X109474000Y-84175600D03*
%TO.P,Q2,14*%
%TO.N,Net-(Q2-Pad14)*%
X112014000Y-91795600D03*
%TO.P,Q2,5*%
%TO.N,Net-(Q2-Pad5)*%
X112014000Y-84175600D03*
%TO.P,Q2,13*%
%TO.N,Net-(Q2-Pad13)*%
X109474000Y-91795600D03*
%TO.P,Q2,4*%
%TO.N,Net-(Q2-Pad4)*%
X114554000Y-84175600D03*
%TO.P,Q2,12*%
%TO.N,Net-(Q2-Pad12)*%
X106934000Y-91795600D03*
%TO.P,Q2,3*%
%TO.N,Net-(Q2-Pad3)*%
X117094000Y-84175600D03*
%TO.P,Q2,11*%
%TO.N,Net-(Q2-Pad11)*%
X104394000Y-91795600D03*
%TO.P,Q2,2*%
%TO.N,Net-(Q2-Pad2)*%
X119634000Y-84175600D03*
%TO.P,Q2,10*%
%TO.N,+12V*%
X101854000Y-91795600D03*
D21*
%TO.P,Q2,1*%
%TO.N,Net-(Q2-Pad1)*%
X122174000Y-84175600D03*
%TD*%
D16*
%TO.P,R1,2*%
%TO.N,+12V*%
X153458400Y-116789200D03*
%TO.P,R1,1*%
%TO.N,Net-(D1-Pad2)*%
X162458400Y-116789200D03*
%TD*%
%TO.P,R1.1,1*%
%TO.N,+12V*%
X188976000Y-47472600D03*
%TO.P,R1.1,2*%
%TO.N,Net-(R1.1-Pad2)*%
X197976000Y-47472600D03*
%TD*%
%TO.P,R1.2,1*%
%TO.N,+12V*%
X188976000Y-39598600D03*
%TO.P,R1.2,2*%
%TO.N,Net-(R1.2-Pad2)*%
X197976000Y-39598600D03*
%TD*%
%TO.P,R2,1*%
%TO.N,Net-(D2-Pad2)*%
X184810400Y-116535200D03*
%TO.P,R2,2*%
%TO.N,+12V*%
X175810400Y-116535200D03*
%TD*%
%TO.P,R3,1*%
%TO.N,Net-(D3-Pad1)*%
X177038000Y-13690600D03*
%TO.P,R3,2*%
%TO.N,-12V*%
X168038000Y-13690600D03*
%TD*%
%TO.P,R4,1*%
%TO.N,Net-(D4-Pad2)*%
X140360400Y-116535200D03*
%TO.P,R4,2*%
%TO.N,+12V*%
X131360400Y-116535200D03*
%TD*%
%TO.P,R5,2*%
%TO.N,+12V*%
X198162400Y-116535200D03*
%TO.P,R5,1*%
%TO.N,Net-(D5-Pad2)*%
X207162400Y-116535200D03*
%TD*%
%TO.P,R6,1*%
%TO.N,Net-(D6-Pad2)*%
X116738400Y-116789200D03*
%TO.P,R6,2*%
%TO.N,+12V*%
X107738400Y-116789200D03*
%TD*%
%TO.P,R7,2*%
%TO.N,+12V*%
X222292400Y-116027200D03*
%TO.P,R7,1*%
%TO.N,Net-(D7-Pad2)*%
X231292400Y-116027200D03*
%TD*%
%TO.P,R8,2*%
%TO.N,+12V*%
X84624400Y-116535200D03*
%TO.P,R8,1*%
%TO.N,Net-(D8-Pad2)*%
X93624400Y-116535200D03*
%TD*%
%TO.P,R9,1*%
%TO.N,Net-(D9-Pad2)*%
X254660400Y-115773200D03*
%TO.P,R9,2*%
%TO.N,+12V*%
X245660400Y-115773200D03*
%TD*%
%TO.P,R10,2*%
%TO.N,+12V*%
X61510400Y-116535200D03*
%TO.P,R10,1*%
%TO.N,Net-(D10-Pad2)*%
X70510400Y-116535200D03*
%TD*%
%TO.P,R11,2*%
%TO.N,+12V*%
X38904400Y-116535200D03*
%TO.P,R11,1*%
%TO.N,Net-(D11-Pad2)*%
X47904400Y-116535200D03*
%TD*%
%TO.P,R12,2*%
%TO.N,Net-(R12-Pad2)*%
X165912800Y-44162200D03*
%TO.P,R12,1*%
%TO.N,Net-(D12-Pad2)*%
X165912800Y-53162200D03*
%TD*%
%TO.P,Rb1,2*%
%TO.N,GND*%
X203962000Y-38472600D03*
%TO.P,Rb1,1*%
%TO.N,Net-(R1.1-Pad2)*%
X203962000Y-47472600D03*
%TD*%
%TO.P,Rf1,1*%
%TO.N,Net-(Cf1-Pad1)*%
X198120000Y-9880600D03*
%TO.P,Rf1,2*%
%TO.N,Net-(Rf1-Pad2)*%
X189120000Y-9880600D03*
%TD*%
%TO.P,Rg1,2*%
%TO.N,Net-(Rg1-Pad2)*%
X188866000Y-31470600D03*
%TO.P,Rg1,1*%
%TO.N,Net-(Rg1-Pad1)*%
X197866000Y-31470600D03*
%TD*%
D14*
%TO.P,SEC1,2*%
%TO.N,+12V*%
X63444400Y-127375200D03*
D15*
%TO.P,SEC1,3*%
%TO.N,Net-(J11-Pad1)*%
X63444400Y-139575200D03*
%TO.P,SEC1,4*%
%TO.N,Net-(SEC1-Pad4)*%
X75494400Y-139625200D03*
D14*
%TO.P,SEC1,5*%
%TO.N,Net-(D10-Pad1)*%
X75444400Y-127375200D03*
D15*
%TO.P,SEC1,1*%
%TO.N,LINE*%
X69494400Y-125425200D03*
%TD*%
D14*
%TO.P,SP1,2*%
%TO.N,+12V*%
X154376400Y-126867200D03*
D15*
%TO.P,SP1,3*%
%TO.N,Net-(J2-Pad1)*%
X154376400Y-139067200D03*
%TO.P,SP1,4*%
%TO.N,Net-(SP1-Pad4)*%
X166426400Y-139117200D03*
D14*
%TO.P,SP1,5*%
%TO.N,Net-(D1-Pad1)*%
X166376400Y-126867200D03*
D15*
%TO.P,SP1,1*%
%TO.N,LINE*%
X160426400Y-124917200D03*
%TD*%
D21*
%TO.P,U1,1*%
%TO.N,Net-(Rg1-Pad1)*%
X197104000Y-24358600D03*
D26*
%TO.P,U1,5*%
%TO.N,GND*%
X189484000Y-16738600D03*
%TO.P,U1,2*%
%TO.N,Net-(R1.1-Pad2)*%
X197104000Y-21818600D03*
%TO.P,U1,6*%
%TO.N,Net-(Rf1-Pad2)*%
X189484000Y-19278600D03*
%TO.P,U1,3*%
%TO.N,Net-(R1.2-Pad2)*%
X197104000Y-19278600D03*
%TO.P,U1,7*%
%TO.N,+12V*%
X189484000Y-21818600D03*
%TO.P,U1,4*%
%TO.N,-12V*%
X197104000Y-16738600D03*
%TO.P,U1,8*%
%TO.N,Net-(Rg1-Pad2)*%
X189484000Y-24358600D03*
%TD*%
%TO.P,U2,8*%
%TO.N,Net-(U2-Pad8)*%
X189484000Y-3022600D03*
%TO.P,U2,4*%
%TO.N,-12V*%
X197104000Y4597400D03*
%TO.P,U2,7*%
%TO.N,+12V*%
X189484000Y-482600D03*
%TO.P,U2,3*%
%TO.N,Net-(Cf1-Pad1)*%
X197104000Y2057400D03*
%TO.P,U2,6*%
%TO.N,Net-(U2-Pad2)*%
X189484000Y2057400D03*
%TO.P,U2,2*%
X197104000Y-482600D03*
%TO.P,U2,5*%
%TO.N,Net-(U2-Pad5)*%
X189484000Y4597400D03*
D21*
%TO.P,U2,1*%
%TO.N,Net-(U2-Pad1)*%
X197104000Y-3022600D03*
%TD*%
D26*
%TO.P,U3,16*%
%TO.N,+5V*%
X96850200Y17297400D03*
%TO.P,U3,8*%
%TO.N,Net-(J13-Pad3)*%
X89230200Y-482600D03*
%TO.P,U3,15*%
%TO.N,GND*%
X96850200Y14757400D03*
%TO.P,U3,7*%
%TO.N,Net-(J13-Pad2)*%
X89230200Y2057400D03*
%TO.P,U3,14*%
%TO.N,Net-(U3-Pad14)*%
X96850200Y12217400D03*
%TO.P,U3,6*%
%TO.N,Net-(C2-Pad2)*%
X89230200Y4597400D03*
%TO.P,U3,13*%
%TO.N,Net-(U3-Pad13)*%
X96850200Y9677400D03*
%TO.P,U3,5*%
%TO.N,Net-(C1-Pad2)*%
X89230200Y7137400D03*
%TO.P,U3,12*%
%TO.N,Net-(U3-Pad12)*%
X96850200Y7137400D03*
%TO.P,U3,4*%
%TO.N,Net-(C1-Pad1)*%
X89230200Y9677400D03*
%TO.P,U3,11*%
%TO.N,Net-(U3-Pad11)*%
X96850200Y4597400D03*
%TO.P,U3,3*%
%TO.N,Net-(C4-Pad2)*%
X89230200Y12217400D03*
%TO.P,U3,10*%
%TO.N,Net-(U3-Pad10)*%
X96850200Y2057400D03*
%TO.P,U3,2*%
%TO.N,Net-(C3-Pad1)*%
X89230200Y14757400D03*
%TO.P,U3,9*%
%TO.N,Net-(U3-Pad9)*%
X96850200Y-482600D03*
D21*
%TO.P,U3,1*%
%TO.N,Net-(C4-Pad1)*%
X89230200Y17297400D03*
%TD*%
D27*
%TO.N,Net-(Blanca1-Pad2)*%
X215290400Y-62437000D02*
X213414600Y-62437000D01*
X213414600Y-62437000D02*
X205536800Y-54559200D01*
X205536800Y-54559200D02*
X184175400Y-54559200D01*
X184175400Y-54559200D02*
X179044600Y-49428400D01*
X179044600Y-49428400D02*
X179044600Y-36195000D01*
X179044600Y-36195000D02*
X177952400Y-35102800D01*
X157124400Y-35102800D02*
X157099000Y-35128200D01*
X177952400Y-35102800D02*
X157124400Y-35102800D01*
%TO.N,Net-(BMB1-Pad5)*%
X147726400Y-123927200D02*
X144786400Y-126867200D01*
X147726400Y-116535200D02*
X147726400Y-123927200D01*
X179324000Y-92049600D02*
X179324000Y-96139000D01*
X179324000Y-96139000D02*
X177063400Y-98399600D01*
X177063400Y-98399600D02*
X172796200Y-98399600D01*
X172796200Y-98399600D02*
X166522400Y-104673400D01*
X166522400Y-104673400D02*
X166522400Y-108458000D01*
X166522400Y-108458000D02*
X162687000Y-112293400D01*
X151968200Y-112293400D02*
X147726400Y-116535200D01*
X162687000Y-112293400D02*
X151968200Y-112293400D01*
%TO.N,+12V*%
X95326200Y-14198600D02*
X102489000Y-14198600D01*
X102489000Y-14198600D02*
X103682800Y-15392400D01*
X103682800Y-15392400D02*
X129311400Y-15392400D01*
X131267200Y-17348200D02*
X157099000Y-17348200D01*
X129311400Y-15392400D02*
X131267200Y-17348200D01*
%TO.N,Net-(Buzzer1-Pad1)*%
X117094000Y-91795600D02*
X119126000Y-89763600D01*
X140462000Y-89763600D02*
X142494000Y-91795600D01*
X119126000Y-89763600D02*
X140462000Y-89763600D01*
%TO.N,Net-(C1-Pad2)*%
X89230200Y7137400D02*
X86690200Y7137400D01*
X84690200Y5137400D02*
X83134200Y5137400D01*
X86690200Y7137400D02*
X84690200Y5137400D01*
%TO.N,Net-(C1-Pad1)*%
X85674200Y9677400D02*
X83134200Y7137400D01*
X89230200Y9677400D02*
X85674200Y9677400D01*
D28*
%TO.N,Net-(C2-Pad2)*%
X83928200Y-704600D02*
X83134200Y-704600D01*
D27*
X89230200Y4597400D02*
X83928200Y-704600D01*
%TO.N,Net-(C3-Pad1)*%
X89230200Y14757400D02*
X90500200Y14757400D01*
X90500200Y14757400D02*
X92024200Y16281400D01*
X92024200Y16281400D02*
X92024200Y17805400D01*
X92024200Y17805400D02*
X89230200Y20599400D01*
X89230200Y20599400D02*
X79832200Y20599400D01*
X79832200Y20599400D02*
X78054200Y18821400D01*
X78054200Y18821400D02*
X78054200Y16281400D01*
X81642200Y12693400D02*
X83134200Y12693400D01*
X78054200Y16281400D02*
X81642200Y12693400D01*
%TO.N,Net-(C4-Pad1)*%
X87960200Y18567400D02*
X89230200Y17297400D01*
X83134200Y18567400D02*
X87960200Y18567400D01*
%TO.N,Net-(C4-Pad2)*%
X84880200Y16567400D02*
X89230200Y12217400D01*
X83134200Y16567400D02*
X84880200Y16567400D01*
%TO.N,Net-(Cf1-Pad1)*%
X202946000Y-9880600D02*
X198120000Y-9880600D01*
X199119999Y-8880601D02*
X198120000Y-9880600D01*
X199119999Y41401D02*
X199119999Y-8880601D01*
X197104000Y2057400D02*
X199119999Y41401D01*
%TO.N,Net-(CNT1-Pad5)*%
X215798400Y-123927200D02*
X212604400Y-127121200D01*
X215798400Y-116535200D02*
X215798400Y-123927200D01*
X186944000Y-92049600D02*
X191947800Y-97053400D01*
X196316600Y-97053400D02*
X198742300Y-99479100D01*
X191947800Y-97053400D02*
X196316600Y-97053400D01*
X198742300Y-99479100D02*
X198526400Y-99263200D01*
X215798400Y-116535200D02*
X198742300Y-99479100D01*
%TO.N,Net-(D1-Pad2)*%
X167284400Y-116789200D02*
X162458400Y-116789200D01*
%TO.N,Net-(D1-Pad1)*%
X169824400Y-123419200D02*
X166376400Y-126867200D01*
X169824400Y-116789200D02*
X169824400Y-123419200D01*
X181864000Y-96901000D02*
X181864000Y-92049600D01*
X179197000Y-99568000D02*
X181864000Y-96901000D01*
X169824400Y-103327200D02*
X173583600Y-99568000D01*
X173583600Y-99568000D02*
X179197000Y-99568000D01*
X169824400Y-116789200D02*
X169824400Y-103327200D01*
%TO.N,Net-(D2-Pad1)*%
X192176400Y-124435200D02*
X189744400Y-126867200D01*
X192176400Y-116535200D02*
X192176400Y-124435200D01*
X192176400Y-99822000D02*
X184404000Y-92049600D01*
X192176400Y-116535200D02*
X192176400Y-99822000D01*
%TO.N,Net-(D2-Pad2)*%
X189636400Y-116535200D02*
X184810400Y-116535200D01*
%TO.N,Net-(D3-Pad1)*%
X181610000Y-13690600D02*
X177038000Y-13690600D01*
%TO.N,Net-(D4-Pad2)*%
X145186400Y-116535200D02*
X140360400Y-116535200D01*
%TO.N,Net-(D5-Pad2)*%
X213258400Y-116535200D02*
X207162400Y-116535200D01*
%TO.N,Net-(D6-Pad2)*%
X122072400Y-116789200D02*
X116738400Y-116789200D01*
%TO.N,Net-(D6-Pad1)*%
X124612400Y-124181200D02*
X121926400Y-126867200D01*
X124612400Y-116789200D02*
X124612400Y-124181200D01*
X131470400Y-109931200D02*
X124612400Y-116789200D01*
X160883600Y-109931200D02*
X131470400Y-109931200D01*
X164820600Y-102997000D02*
X164820600Y-105994200D01*
X171043600Y-96774000D02*
X164820600Y-102997000D01*
X175844200Y-96774000D02*
X171043600Y-96774000D01*
X176784000Y-95834200D02*
X175844200Y-96774000D01*
X164820600Y-105994200D02*
X160883600Y-109931200D01*
X176784000Y-92049600D02*
X176784000Y-95834200D01*
%TO.N,Net-(D7-Pad1)*%
X238912400Y-124435200D02*
X236226400Y-127121200D01*
X238912400Y-116027200D02*
X238912400Y-124435200D01*
X238912400Y-103835200D02*
X238912400Y-116027200D01*
X192328800Y-94894400D02*
X229971600Y-94894400D01*
X229971600Y-94894400D02*
X238912400Y-103835200D01*
X189484000Y-92049600D02*
X192328800Y-94894400D01*
%TO.N,Net-(D7-Pad2)*%
X236372400Y-116027200D02*
X231292400Y-116027200D01*
%TO.N,Net-(D8-Pad2)*%
X93624400Y-116535200D02*
X99466400Y-116535200D01*
%TO.N,Net-(D8-Pad1)*%
X99066400Y-121668202D02*
X99066400Y-126867200D01*
X102006400Y-118728202D02*
X99066400Y-121668202D01*
X102006400Y-116535200D02*
X102006400Y-118728202D01*
X112674400Y-105867200D02*
X102006400Y-116535200D01*
X160350200Y-105867200D02*
X112674400Y-105867200D01*
X162610800Y-101168200D02*
X162610800Y-103606600D01*
X168351200Y-95427800D02*
X162610800Y-101168200D01*
X162610800Y-103606600D02*
X160350200Y-105867200D01*
X172897800Y-95427800D02*
X168351200Y-95427800D01*
X174244000Y-94081600D02*
X172897800Y-95427800D01*
X174244000Y-92049600D02*
X174244000Y-94081600D01*
%TO.N,Net-(D9-Pad1)*%
X262788400Y-123927200D02*
X259594400Y-127121200D01*
X262788400Y-115773200D02*
X262788400Y-123927200D01*
X192024000Y-92049600D02*
X243433600Y-92049600D01*
X262788400Y-111404400D02*
X262788400Y-115773200D01*
X243433600Y-92049600D02*
X262788400Y-111404400D01*
%TO.N,Net-(D9-Pad2)*%
X260248400Y-115773200D02*
X254660400Y-115773200D01*
%TO.N,Net-(D10-Pad2)*%
X75336400Y-116535200D02*
X70510400Y-116535200D01*
%TO.N,Net-(D10-Pad1)*%
X77876400Y-124943200D02*
X75444400Y-127375200D01*
X77876400Y-116535200D02*
X77876400Y-124943200D01*
X83718400Y-110693200D02*
X77876400Y-116535200D01*
X103276400Y-110693200D02*
X90500200Y-110693200D01*
X90500200Y-110693200D02*
X83718400Y-110693200D01*
X122174000Y-91795600D02*
X103276400Y-110693200D01*
X90830400Y-110693200D02*
X90500200Y-110693200D01*
%TO.N,Net-(D11-Pad1)*%
X55016400Y-126467200D02*
X53854400Y-127629200D01*
X55016400Y-116535200D02*
X55016400Y-126467200D01*
X62890400Y-108661200D02*
X55016400Y-116535200D01*
X102768400Y-108661200D02*
X62890400Y-108661200D01*
X119634000Y-91795600D02*
X102768400Y-108661200D01*
%TO.N,Net-(D11-Pad2)*%
X52476400Y-116535200D02*
X47904400Y-116535200D01*
%TO.N,Net-(D12-Pad2)*%
X165912800Y-57480200D02*
X165912800Y-53162200D01*
%TO.N,Net-(Gris1-Pad2)*%
X215290400Y-50753000D02*
X209825600Y-50753000D01*
X209825600Y-50753000D02*
X207137000Y-53441600D01*
X207137000Y-53441600D02*
X185039000Y-53441600D01*
X185039000Y-53441600D02*
X180467000Y-48869600D01*
X180467000Y-48869600D02*
X180467000Y-33807400D01*
X179247800Y-32588200D02*
X157099000Y-32588200D01*
X180467000Y-33807400D02*
X179247800Y-32588200D01*
%TO.N,Net-(J13-Pad2)*%
X95326200Y-4038600D02*
X95326200Y-11698600D01*
X89230200Y2057400D02*
X95326200Y-4038600D01*
%TO.N,Net-(J13-Pad3)*%
X93326200Y-4578600D02*
X89230200Y-482600D01*
X93326200Y-11698600D02*
X93326200Y-4578600D01*
%TO.N,Net-(P_EX1-Pad2)*%
X215290400Y-38735000D02*
X210185000Y-38735000D01*
X210185000Y-38735000D02*
X209296000Y-39624000D01*
X209296000Y-39624000D02*
X209296000Y-49479200D01*
X209296000Y-49479200D02*
X206476600Y-52298600D01*
X206476600Y-52298600D02*
X185572400Y-52298600D01*
X185572400Y-52298600D02*
X181660800Y-48387000D01*
X181660800Y-48387000D02*
X181660800Y-28956000D01*
X180213000Y-27508200D02*
X157099000Y-27508200D01*
X181660800Y-28956000D02*
X180213000Y-27508200D01*
D28*
%TO.N,Net-(P_IN1-Pad2)*%
X157371870Y-24968200D02*
X157099000Y-24968200D01*
X157625870Y-25222200D02*
X157371870Y-24968200D01*
D27*
X215290400Y-21717000D02*
X208026000Y-28981400D01*
X208026000Y-28981400D02*
X208026000Y-49250600D01*
X208026000Y-49250600D02*
X206273400Y-51003200D01*
X206273400Y-51003200D02*
X187629800Y-51003200D01*
X187525999Y-50899399D02*
X186357599Y-50899399D01*
X187629800Y-51003200D02*
X187525999Y-50899399D01*
X186357599Y-50899399D02*
X182854600Y-47396400D01*
X182854600Y-47396400D02*
X182854600Y-28575000D01*
X179247800Y-24968200D02*
X157099000Y-24968200D01*
X182854600Y-28575000D02*
X179247800Y-24968200D01*
D28*
%TO.N,Net-(Q1-Pad8)*%
X174244000Y-84429600D02*
X171399200Y-81584800D01*
X171399200Y-81584800D02*
X146329400Y-81584800D01*
X141859000Y-77114400D02*
X141859000Y-68148200D01*
X146329400Y-81584800D02*
X141859000Y-77114400D01*
%TO.N,Net-(Q1-Pad7)*%
X176784000Y-84429600D02*
X173126400Y-80772000D01*
X173126400Y-80772000D02*
X147802600Y-80772000D01*
X144399000Y-77368400D02*
X144399000Y-68148200D01*
X147802600Y-80772000D02*
X144399000Y-77368400D01*
%TO.N,Net-(Q1-Pad6)*%
X146939000Y-77139800D02*
X146939000Y-68148200D01*
X149707600Y-79908400D02*
X146939000Y-77139800D01*
X174802800Y-79908400D02*
X149707600Y-79908400D01*
X179324000Y-84429600D02*
X174802800Y-79908400D01*
%TO.N,Net-(Q1-Pad5)*%
X181864000Y-84429600D02*
X176479200Y-79044800D01*
X176479200Y-79044800D02*
X151028400Y-79044800D01*
X149479000Y-77495400D02*
X149479000Y-68148200D01*
X151028400Y-79044800D02*
X149479000Y-77495400D01*
%TO.N,Net-(Q1-Pad4)*%
X152781000Y-63830200D02*
X151257000Y-63830200D01*
X153797000Y-64846200D02*
X152781000Y-63830200D01*
X153797000Y-75920600D02*
X153797000Y-64846200D01*
X155752800Y-77876400D02*
X153797000Y-75920600D01*
X177850800Y-77876400D02*
X155752800Y-77876400D01*
X151257000Y-63830200D02*
X149479000Y-65608200D01*
X184404000Y-84429600D02*
X177850800Y-77876400D01*
%TO.N,Net-(Q1-Pad3)*%
X152527000Y-62560200D02*
X154559000Y-64592200D01*
X149987000Y-62560200D02*
X152527000Y-62560200D01*
X146939000Y-65608200D02*
X149987000Y-62560200D01*
X154559000Y-65151000D02*
X154508200Y-65201800D01*
X154559000Y-64592200D02*
X154559000Y-65151000D01*
X154508200Y-65201800D02*
X154508200Y-75463400D01*
X154508200Y-75463400D02*
X156133800Y-77089000D01*
X179603400Y-77089000D02*
X186944000Y-84429600D01*
X156133800Y-77089000D02*
X179603400Y-77089000D01*
%TO.N,Net-(Q1-Pad2)*%
X164363400Y-76301600D02*
X181356000Y-76301600D01*
X162712400Y-74650600D02*
X164363400Y-76301600D01*
X161163000Y-65354200D02*
X162712400Y-66903600D01*
X162712400Y-66903600D02*
X162712400Y-74650600D01*
X152781000Y-61798200D02*
X156337000Y-65354200D01*
X156337000Y-65354200D02*
X161163000Y-65354200D01*
X148209000Y-61798200D02*
X152781000Y-61798200D01*
X181356000Y-76301600D02*
X189484000Y-84429600D01*
X144399000Y-65608200D02*
X148209000Y-61798200D01*
%TO.N,Net-(Q1-Pad1)*%
X182905400Y-75311000D02*
X192024000Y-84429600D01*
X164795200Y-75311000D02*
X182905400Y-75311000D01*
X163550600Y-74066400D02*
X164795200Y-75311000D01*
X161754390Y-64904190D02*
X163550600Y-66700400D01*
X156902990Y-64904190D02*
X161754390Y-64904190D01*
X152781000Y-60782200D02*
X156902990Y-64904190D01*
X163550600Y-66700400D02*
X163550600Y-74066400D01*
X146685000Y-60782200D02*
X152781000Y-60782200D01*
X141859000Y-65608200D02*
X146685000Y-60782200D01*
%TO.N,Net-(Q2-Pad1)*%
X132740400Y-84175600D02*
X122174000Y-84175600D01*
X139319000Y-77597000D02*
X132740400Y-84175600D01*
X139319000Y-68148200D02*
X139319000Y-77597000D01*
%TO.N,Net-(Q2-Pad2)*%
X138049000Y-66878200D02*
X138049000Y-75514200D01*
X139319000Y-65608200D02*
X138049000Y-66878200D01*
X119634000Y-84175600D02*
X121970800Y-81838800D01*
X131724400Y-81838800D02*
X138049000Y-75514200D01*
X121970800Y-81838800D02*
X131724400Y-81838800D01*
%TO.N,Net-(Q2-Pad3)*%
X136779000Y-68148200D02*
X136779000Y-74244200D01*
X117094000Y-84175600D02*
X121793000Y-79476600D01*
X121793000Y-79476600D02*
X131546600Y-79476600D01*
X131546600Y-79476600D02*
X136779000Y-74244200D01*
D27*
%TO.N,Net-(R1.1-Pad2)*%
X197976000Y-47472600D02*
X194818000Y-44314600D01*
X194818000Y-24104600D02*
X197104000Y-21818600D01*
X194818000Y-44314600D02*
X194818000Y-24104600D01*
X203962000Y-47472600D02*
X197976000Y-47472600D01*
%TO.N,Net-(R1.2-Pad2)*%
X200660000Y-36914600D02*
X197976000Y-39598600D01*
X200660000Y-22834600D02*
X200660000Y-36914600D01*
X215290400Y-33000D02*
X215290400Y-5033000D01*
X199009000Y-21183600D02*
X200660000Y-22834600D01*
X197104000Y-19278600D02*
X199009000Y-21183600D01*
X199059800Y-21183600D02*
X199009000Y-21183600D01*
X200964800Y-19278600D02*
X215290400Y-4953000D01*
X197104000Y-19278600D02*
X200964800Y-19278600D01*
%TO.N,Net-(R12-Pad2)*%
X116205000Y-42138600D02*
X114274600Y-40208200D01*
X114274600Y-40208200D02*
X108839000Y-40208200D01*
X157085270Y-42138600D02*
X116205000Y-42138600D01*
X159108870Y-44162200D02*
X157085270Y-42138600D01*
X165912800Y-44162200D02*
X159108870Y-44162200D01*
%TO.N,Net-(Rf1-Pad2)*%
X189484000Y-19278600D02*
X187198000Y-16992600D01*
X187198000Y-11802600D02*
X189120000Y-9880600D01*
X187198000Y-16992600D02*
X187198000Y-11802600D01*
%TO.N,Net-(Rg1-Pad1)*%
X197866000Y-31470600D02*
X197866000Y-25882600D01*
X197104000Y-25120600D02*
X197866000Y-25882600D01*
X197104000Y-24358600D02*
X197104000Y-25120600D01*
%TO.N,Net-(Rg1-Pad2)*%
X188866000Y-26026600D02*
X188866000Y-24976600D01*
X188866000Y-31470600D02*
X188866000Y-26026600D01*
D28*
X188866000Y-26026600D02*
X188866000Y-25738600D01*
D27*
X189484000Y-24358600D02*
X188866000Y-24976600D01*
%TO.N,Net-(U2-Pad2)*%
X197104000Y-482600D02*
X195326000Y-482600D01*
X192786000Y2057400D02*
X189484000Y2057400D01*
X195326000Y-482600D02*
X192786000Y2057400D01*
X157099000Y-22428200D02*
X165303200Y-22428200D01*
X165303200Y-22428200D02*
X180721000Y-7010400D01*
X180721000Y-7010400D02*
X180721000Y-3556000D01*
X186334400Y2057400D02*
X189484000Y2057400D01*
X180721000Y-3556000D02*
X186334400Y2057400D01*
D28*
%TO.N,Net-(U3-Pad10)*%
X97104200Y2057400D02*
X96850200Y2057400D01*
D27*
%TO.N,Net-(Nivel1-Pad1)*%
X215290400Y-84201000D02*
X215290400Y-83667600D01*
X215290400Y-83667600D02*
X207619600Y-75996800D01*
X207619600Y-75996800D02*
X207619600Y-61874400D01*
X207619600Y-61874400D02*
X203301600Y-57556400D01*
X203301600Y-57556400D02*
X183184800Y-57556400D01*
X183184800Y-57556400D02*
X176123600Y-50495200D01*
X176123600Y-50495200D02*
X176123600Y-41986200D01*
X174345600Y-40208200D02*
X157099000Y-40208200D01*
X176123600Y-41986200D02*
X174345600Y-40208200D01*
%TO.N,Net-(Nivel1-Pad3)*%
X215290400Y-74041000D02*
X209169000Y-67919600D01*
X209169000Y-67919600D02*
X209169000Y-60985400D01*
X209169000Y-60985400D02*
X204038200Y-55854600D01*
X204038200Y-55854600D02*
X183515000Y-55854600D01*
X183515000Y-55854600D02*
X177698400Y-50038000D01*
X177698400Y-50038000D02*
X177698400Y-38811200D01*
X176555400Y-37668200D02*
X157099000Y-37668200D01*
X177698400Y-38811200D02*
X176555400Y-37668200D01*
%TD*%
M02*
